<?xml version="1.0" encoding="utf-8"?>
<!-- Generator: Adobe Illustrator 19.1.0, SVG Export Plug-In . SVG Version: 6.00 Build 0)  -->
<svg version="1.1" id="Õ_xBA__x2264__x201E__3" xmlns="http://www.w3.org/2000/svg" xmlns:xlink="http://www.w3.org/1999/xlink"
	 x="0px" y="0px" viewBox="0 0 340 240" style="enable-background:new 0 0 340 240;" xml:space="preserve">
<style type="text/css">
	.st0{fill:none;}
	.st1{fill:#555555;}
	.st2{fill:#348EA9;}
	.st3{fill:#E18C32;}
	.st4{fill:#F14948;}
	.st5{fill:#53BA9C;}
	.st6{fill:#939393;}
	.st7{fill:#777777;}
</style>
<g>
	<path class="st0" d="M214.7,101.8c0-7.1,2.8-13.8,7.8-18.9c1.6-1.6,3.4-3,5.3-4.1c-3-7.7-7.7-14.9-13.9-21.1
		c-6.3-6.3-13.8-11.1-21.9-14.2c-0.9,1.3-1.9,2.6-3.1,3.7c-5,5-11.7,7.8-18.9,7.8c-7.1,0-13.8-2.8-18.9-7.8
		c-1.2-1.2-2.3-2.5-3.2-3.9c-8.3,3.1-15.9,7.9-22.3,14.4c-6.3,6.3-10.9,13.5-13.9,21.3c1.8,1.1,3.5,2.4,5,3.9c5,5,7.8,11.7,7.8,18.9
		s-2.8,13.8-7.8,18.9c-1.5,1.5-3.2,2.8-5,3.9c3,7.8,7.7,15.1,13.9,21.3c6,6,13.1,10.7,20.8,13.8c1.1-2,2.5-3.8,4.2-5.5
		c5-5,11.7-7.8,18.9-7.8c7.1,0,13.8,2.8,18.9,7.8c1.7,1.7,3.1,3.6,4.3,5.6c7.9-3.1,15.1-7.8,21.2-13.9c6.2-6.2,10.8-13.4,13.9-21.1
		c-1.9-1.1-3.7-2.5-5.3-4.1C217.5,115.6,214.7,108.9,214.7,101.8z"/>
	<path class="st1" d="M111.7,79c3-7.8,7.7-15.1,13.9-21.3c6.4-6.4,14-11.3,22.3-14.4c-3.4-5-4.9-10.8-4.6-16.6
		c-11.1,3.9-21.3,10.3-29.9,18.8c-8.7,8.7-14.9,18.9-18.7,29.7c1-0.1,2-0.2,3-0.2C102.8,75.1,107.6,76.5,111.7,79z"/>
	<path class="st1" d="M227.8,124.8c-3,7.7-7.7,14.9-13.9,21.1c-6.1,6.1-13.4,10.8-21.2,13.9c3,5.2,4.1,11.3,3.2,17.1
		c11.2-3.9,21.5-10.3,30.1-18.9c8.7-8.7,14.9-18.9,18.8-29.8c-1.1,0.1-2.3,0.2-3.4,0.2C236.5,128.5,231.9,127.2,227.8,124.8z"/>
	<path class="st1" d="M192,43.5c8.1,3.1,15.6,7.9,21.9,14.2c6.2,6.2,10.8,13.4,13.9,21.1c4.1-2.4,8.7-3.7,13.6-3.7
		c1.2,0,2.3,0.1,3.4,0.2C241,64.5,234.7,54.3,226,45.6c-8.4-8.4-18.4-14.8-29.4-18.7C197,32.7,195.4,38.5,192,43.5z"/>
	<path class="st1" d="M146.5,159.7c-7.7-3.1-14.8-7.7-20.8-13.8c-6.3-6.3-10.9-13.5-13.9-21.3c-4.1,2.5-8.9,3.9-13.9,3.9
		c-1,0-2-0.1-3-0.2c3.8,10.9,10.1,21.1,18.7,29.7c8.5,8.5,18.6,14.8,29.6,18.7C142.3,171,143.4,164.9,146.5,159.7z"/>
	<path class="st1" d="M192.5,25.6c-0.6-4.8-2.7-9.5-6.5-13.3c-4.4-4.4-10.2-6.6-16-6.6c-5.8,0-11.6,2.2-16,6.6
		c-3.7,3.7-5.8,8.3-6.4,13.1c7.1-2.1,14.6-3.1,22.2-3.1C177.6,22.3,185.3,23.4,192.5,25.6z"/>
	<path class="st1" d="M170.1,51c5.8,0,11.6-2.2,16-6.6c0.7-0.7,1.4-1.5,2-2.3c-5.8-1.8-12-2.7-18.2-2.7c-6.1,0-12.1,0.9-17.8,2.6
		c0.6,0.8,1.3,1.6,2,2.4C158.4,48.8,164.2,51,170.1,51z"/>
	<path class="st1" d="M188,42.1c3.7-4.8,5.2-10.8,4.5-16.5c-7.3-2.2-14.9-3.3-22.7-3.3c-7.6,0-15.1,1.1-22.2,3.1
		c-0.7,5.8,0.7,11.7,4.4,16.6c5.7-1.7,11.7-2.6,17.8-2.6C176.1,39.4,182.2,40.3,188,42.1z"/>
	<path class="st1" d="M169.6,150.4c-5.8,0-11.6,2.2-16,6.6c-1.2,1.2-2.3,2.6-3.2,4c6.2,2,12.8,3.1,19.5,3.1c6.6,0,13-1,19.1-3
		c-0.9-1.5-2-2.9-3.3-4.2C181.2,152.6,175.4,150.4,169.6,150.4z"/>
	<path class="st1" d="M169.8,181.4c-7.7,0-15.2-1.1-22.3-3.2c0.9,4,2.9,7.8,6.1,11c4.4,4.4,10.2,6.6,16,6.6c5.8,0,11.6-2.2,16-6.6
		c3.1-3.1,5.1-6.9,6-10.8C184.6,180.3,177.3,181.4,169.8,181.4C169.8,181.4,169.8,181.4,169.8,181.4z"/>
	<path class="st1" d="M150.3,161.1c-3.2,5.2-4.2,11.3-2.9,17.1c7.2,2.1,14.7,3.2,22.3,3.2c0,0,0,0,0,0c7.5,0,14.8-1,21.8-3
		c1.4-5.7,0.4-11.9-2.7-17.1c-6.1,1.9-12.5,3-19.1,3C163.1,164.2,156.5,163.1,150.3,161.1z"/>
	<path class="st1" d="M229.2,82.7c-1.4,0.9-2.7,1.9-3.9,3.1c-8.9,8.9-8.9,23.2,0,32.1c1.2,1.2,2.5,2.2,3.9,3.1
		C233.1,108.5,233.1,95.1,229.2,82.7z"/>
	<path class="st1" d="M246.2,124c4.1-0.9,8-2.9,11.2-6.1c8.9-8.9,8.9-23.2,0-32.1c-3.2-3.2-7.1-5.2-11.2-6.1
		C250.3,94.1,250.3,109.5,246.2,124z"/>
	<g>
		<path class="st1" d="M229.2,82.7c4,12.4,4,25.8,0,38.2c3.7,2.4,7.9,3.6,12.2,3.6c1.6,0,3.2-0.2,4.8-0.5c4.2-14.4,4.2-29.9,0-44.3
			c-1.6-0.3-3.2-0.5-4.8-0.5C237.1,79.1,232.9,80.3,229.2,82.7z"/>
	</g>
	<path class="st1" d="M93.5,79.6c-4.3,0.8-8.3,2.9-11.6,6.2c-8.9,8.9-8.9,23.2,0,32.1c3.3,3.3,7.4,5.4,11.6,6.2
		C89.3,109.6,89.3,94.1,93.5,79.6z"/>
	<path class="st1" d="M113.9,85.8c-1.1-1.1-2.3-2.1-3.5-2.9c-3.9,12.3-3.9,25.6,0,37.9c1.2-0.8,2.4-1.8,3.5-2.9
		C122.8,109,122.8,94.6,113.9,85.8z"/>
	<path class="st1" d="M110.4,82.9c-3.8-2.5-8.1-3.8-12.5-3.8c-1.5,0-3,0.1-4.4,0.4c-4.2,14.5-4.2,30,0,44.5c1.5,0.3,2.9,0.4,4.4,0.4
		c4.4,0,8.7-1.3,12.5-3.8C106.5,108.4,106.5,95.2,110.4,82.9z"/>
	<circle class="st2" cx="169.8" cy="28.2" r="22.9"/>
	<circle class="st3" cx="169.8" cy="173" r="22.9"/>
	<circle class="st4" cx="241.3" cy="102" r="22.9"/>
	<circle class="st5" cx="97.6" cy="102" r="22.9"/>
</g>
<g>
	<path class="st6" d="M146,113.3c-3.5-7.2-3.4-15.2-0.5-22.1l7.9,4.6l0.9-23.6l-22.5,10.9l8,4.7c-4,8.7-4.2,19.1,0.3,28.3
		c6.6,13.5,21.1,20.6,35.2,18.4l0.1-6.7C163.7,130.1,151.4,124.5,146,113.3z"/>
	<path class="st7" d="M200.4,115.4c4-8.7,4.2-19-0.3-28.3c-6.6-13.5-21.1-20.6-35.2-18.4l-0.1,6.7c11.7-2.4,23.9,3.3,29.3,14.5
		c3.5,7.2,3.4,15.2,0.5,22.1l-7.9-4.6l-0.9,23.6l22.5-10.9L200.4,115.4z"/>
</g>
<g>
	<path class="st5" d="M9.3,70.1h5.5v2.1H6.7V58.5h2.6V70.1z"/>
	<path class="st5" d="M19.3,59.6c0,0.2,0,0.4-0.1,0.6c-0.1,0.2-0.2,0.3-0.3,0.5c-0.1,0.1-0.3,0.2-0.5,0.3c-0.2,0.1-0.4,0.1-0.6,0.1
		c-0.2,0-0.4,0-0.6-0.1c-0.2-0.1-0.3-0.2-0.5-0.3c-0.1-0.1-0.2-0.3-0.3-0.5s-0.1-0.4-0.1-0.6c0-0.2,0-0.4,0.1-0.6
		c0.1-0.2,0.2-0.3,0.3-0.5c0.1-0.1,0.3-0.2,0.5-0.3s0.4-0.1,0.6-0.1c0.2,0,0.4,0,0.6,0.1s0.3,0.2,0.5,0.3c0.1,0.1,0.2,0.3,0.3,0.5
		C19.2,59.2,19.3,59.4,19.3,59.6z M18.9,62.5v9.7h-2.3v-9.7H18.9z"/>
	<path class="st5" d="M24.8,72.4c-0.8,0-1.5-0.2-1.9-0.7c-0.5-0.5-0.7-1.1-0.7-2v-5.4h-1c-0.1,0-0.2,0-0.3-0.1
		c-0.1-0.1-0.1-0.2-0.1-0.4v-0.9l1.6-0.3l0.5-2.7c0-0.1,0.1-0.2,0.2-0.3c0.1-0.1,0.2-0.1,0.3-0.1h1.2v3.1H27v1.7h-2.6v5.3
		c0,0.3,0.1,0.5,0.2,0.7s0.4,0.3,0.6,0.3c0.1,0,0.3,0,0.4-0.1c0.1,0,0.2-0.1,0.3-0.1c0.1,0,0.1-0.1,0.2-0.1c0.1,0,0.1-0.1,0.2-0.1
		c0.1,0,0.1,0,0.2,0.1s0.1,0.1,0.1,0.2l0.7,1.1c-0.3,0.3-0.7,0.5-1.2,0.6S25.2,72.4,24.8,72.4z"/>
	<path class="st5" d="M28.9,72.2V58.1h2.3v5.4c0.4-0.4,0.8-0.7,1.3-0.9s1-0.3,1.6-0.3c0.5,0,1,0.1,1.4,0.3c0.4,0.2,0.8,0.4,1,0.8
		s0.5,0.7,0.6,1.2s0.2,1,0.2,1.5v6.2h-2.3V66c0-0.6-0.1-1.1-0.4-1.4c-0.3-0.3-0.7-0.5-1.2-0.5c-0.4,0-0.8,0.1-1.1,0.3
		c-0.4,0.2-0.7,0.4-1,0.8v7H28.9z"/>
	<path class="st5" d="M43.7,62.3c0.6,0,1.2,0.1,1.7,0.3s1,0.5,1.3,0.9s0.7,0.8,0.9,1.4c0.2,0.5,0.3,1.2,0.3,1.9c0,0.2,0,0.3,0,0.4
		c0,0.1,0,0.2-0.1,0.3s-0.1,0.1-0.2,0.1c-0.1,0-0.2,0-0.3,0h-6c0.1,1,0.3,1.7,0.8,2.2c0.5,0.5,1.1,0.7,1.9,0.7c0.4,0,0.7,0,1-0.1
		c0.3-0.1,0.5-0.2,0.7-0.3c0.2-0.1,0.4-0.2,0.5-0.3c0.2-0.1,0.3-0.1,0.5-0.1c0.1,0,0.2,0,0.2,0.1c0.1,0,0.1,0.1,0.2,0.2l0.7,0.9
		c-0.3,0.3-0.6,0.6-0.9,0.8c-0.3,0.2-0.7,0.4-1,0.5s-0.7,0.2-1.1,0.3s-0.7,0.1-1.1,0.1c-0.7,0-1.3-0.1-1.9-0.3s-1.1-0.6-1.5-1
		c-0.4-0.4-0.8-1-1-1.6c-0.2-0.6-0.4-1.4-0.4-2.3c0-0.7,0.1-1.3,0.3-1.9c0.2-0.6,0.5-1.1,0.9-1.5c0.4-0.4,0.9-0.8,1.5-1
		S43,62.3,43.7,62.3z M43.8,64c-0.7,0-1.2,0.2-1.6,0.6c-0.4,0.4-0.6,0.9-0.7,1.6h4.4c0-0.3,0-0.6-0.1-0.9c-0.1-0.3-0.2-0.5-0.4-0.7
		c-0.2-0.2-0.4-0.4-0.6-0.5C44.4,64,44.1,64,43.8,64z"/>
	<path class="st5" d="M49.9,72.2v-9.7h1.4c0.3,0,0.5,0.1,0.6,0.4l0.2,0.8c0.2-0.2,0.4-0.4,0.6-0.6c0.2-0.2,0.4-0.3,0.7-0.4
		c0.2-0.1,0.5-0.2,0.8-0.3c0.3-0.1,0.6-0.1,0.9-0.1c0.5,0,1,0.1,1.4,0.3c0.4,0.2,0.8,0.4,1,0.8s0.5,0.7,0.6,1.2s0.2,1,0.2,1.5v6.2
		H56V66c0-0.6-0.1-1.1-0.4-1.4c-0.3-0.3-0.7-0.5-1.2-0.5c-0.4,0-0.8,0.1-1.1,0.3s-0.7,0.4-1,0.8v7H49.9z"/>
	<path class="st5" d="M64.7,62.3c0.6,0,1.2,0.1,1.7,0.3s1,0.5,1.3,0.9s0.7,0.8,0.9,1.4c0.2,0.5,0.3,1.2,0.3,1.9c0,0.2,0,0.3,0,0.4
		c0,0.1,0,0.2-0.1,0.3s-0.1,0.1-0.2,0.1c-0.1,0-0.2,0-0.3,0h-6c0.1,1,0.3,1.7,0.8,2.2c0.5,0.5,1.1,0.7,1.9,0.7c0.4,0,0.7,0,1-0.1
		c0.3-0.1,0.5-0.2,0.7-0.3c0.2-0.1,0.4-0.2,0.5-0.3c0.2-0.1,0.3-0.1,0.5-0.1c0.1,0,0.2,0,0.2,0.1c0.1,0,0.1,0.1,0.2,0.2l0.7,0.9
		c-0.3,0.3-0.6,0.6-0.9,0.8c-0.3,0.2-0.7,0.4-1,0.5s-0.7,0.2-1.1,0.3s-0.7,0.1-1.1,0.1c-0.7,0-1.3-0.1-1.9-0.3s-1.1-0.6-1.5-1
		c-0.4-0.4-0.8-1-1-1.6C60.1,68.7,60,68,60,67.1c0-0.7,0.1-1.3,0.3-1.9c0.2-0.6,0.5-1.1,0.9-1.5c0.4-0.4,0.9-0.8,1.5-1
		S64,62.3,64.7,62.3z M64.7,64c-0.7,0-1.2,0.2-1.6,0.6c-0.4,0.4-0.6,0.9-0.7,1.6h4.4c0-0.3,0-0.6-0.1-0.9c-0.1-0.3-0.2-0.5-0.4-0.7
		c-0.2-0.2-0.4-0.4-0.6-0.5C65.4,64,65.1,64,64.7,64z"/>
	<path class="st5" d="M76.6,64.4c-0.1,0.1-0.1,0.2-0.2,0.2c-0.1,0-0.2,0.1-0.3,0.1c-0.1,0-0.2,0-0.4-0.1c-0.1-0.1-0.3-0.1-0.5-0.2
		c-0.2-0.1-0.4-0.2-0.6-0.2C74.5,64.1,74.3,64,74,64c-0.5,0-0.8,0.1-1.1,0.3c-0.3,0.2-0.4,0.5-0.4,0.8c0,0.2,0.1,0.4,0.2,0.5
		s0.3,0.3,0.5,0.4c0.2,0.1,0.5,0.2,0.8,0.3s0.6,0.2,0.9,0.3c0.3,0.1,0.6,0.2,0.9,0.3s0.5,0.3,0.8,0.5c0.2,0.2,0.4,0.4,0.5,0.7
		c0.1,0.3,0.2,0.6,0.2,1c0,0.5-0.1,0.9-0.3,1.3c-0.2,0.4-0.4,0.7-0.8,1S75.5,72,75,72.1s-1,0.2-1.7,0.2c-0.3,0-0.7,0-1-0.1
		c-0.3-0.1-0.6-0.1-0.9-0.3c-0.3-0.1-0.6-0.2-0.8-0.4c-0.2-0.1-0.5-0.3-0.7-0.5l0.5-0.9c0.1-0.1,0.2-0.2,0.2-0.2s0.2-0.1,0.4-0.1
		c0.1,0,0.3,0,0.4,0.1c0.1,0.1,0.3,0.2,0.5,0.3c0.2,0.1,0.4,0.2,0.6,0.3c0.2,0.1,0.5,0.1,0.9,0.1c0.3,0,0.5,0,0.7-0.1
		c0.2-0.1,0.4-0.2,0.5-0.3c0.1-0.1,0.2-0.2,0.3-0.4c0.1-0.1,0.1-0.3,0.1-0.4c0-0.2-0.1-0.4-0.2-0.6s-0.3-0.3-0.5-0.4
		c-0.2-0.1-0.5-0.2-0.8-0.3S73,68.1,72.7,68c-0.3-0.1-0.6-0.2-0.9-0.4s-0.5-0.3-0.8-0.5s-0.4-0.5-0.5-0.8c-0.1-0.3-0.2-0.7-0.2-1.1
		c0-0.4,0.1-0.8,0.2-1.1s0.4-0.7,0.7-0.9s0.7-0.5,1.1-0.6c0.5-0.2,1-0.2,1.6-0.2c0.7,0,1.3,0.1,1.8,0.3c0.6,0.2,1,0.5,1.4,0.9
		L76.6,64.4z"/>
	<path class="st5" d="M84.9,64.4c-0.1,0.1-0.1,0.2-0.2,0.2c-0.1,0-0.2,0.1-0.3,0.1c-0.1,0-0.2,0-0.4-0.1c-0.1-0.1-0.3-0.1-0.5-0.2
		c-0.2-0.1-0.4-0.2-0.6-0.2c-0.2-0.1-0.5-0.1-0.8-0.1c-0.5,0-0.8,0.1-1.1,0.3c-0.3,0.2-0.4,0.5-0.4,0.8c0,0.2,0.1,0.4,0.2,0.5
		s0.3,0.3,0.5,0.4c0.2,0.1,0.5,0.2,0.8,0.3s0.6,0.2,0.9,0.3c0.3,0.1,0.6,0.2,0.9,0.3s0.5,0.3,0.8,0.5c0.2,0.2,0.4,0.4,0.5,0.7
		c0.1,0.3,0.2,0.6,0.2,1c0,0.5-0.1,0.9-0.3,1.3c-0.2,0.4-0.4,0.7-0.8,1s-0.7,0.5-1.2,0.7s-1,0.2-1.7,0.2c-0.3,0-0.7,0-1-0.1
		c-0.3-0.1-0.6-0.1-0.9-0.3c-0.3-0.1-0.6-0.2-0.8-0.4c-0.2-0.1-0.5-0.3-0.7-0.5l0.5-0.9c0.1-0.1,0.2-0.2,0.2-0.2s0.2-0.1,0.4-0.1
		c0.1,0,0.3,0,0.4,0.1c0.1,0.1,0.3,0.2,0.5,0.3c0.2,0.1,0.4,0.2,0.6,0.3c0.2,0.1,0.5,0.1,0.9,0.1c0.3,0,0.5,0,0.7-0.1
		c0.2-0.1,0.4-0.2,0.5-0.3c0.1-0.1,0.2-0.2,0.3-0.4c0.1-0.1,0.1-0.3,0.1-0.4c0-0.2-0.1-0.4-0.2-0.6s-0.3-0.3-0.5-0.4
		c-0.2-0.1-0.5-0.2-0.8-0.3S81.3,68.1,81,68c-0.3-0.1-0.6-0.2-0.9-0.4s-0.5-0.3-0.8-0.5s-0.4-0.5-0.5-0.8c-0.1-0.3-0.2-0.7-0.2-1.1
		c0-0.4,0.1-0.8,0.2-1.1s0.4-0.7,0.7-0.9s0.7-0.5,1.1-0.6c0.5-0.2,1-0.2,1.6-0.2c0.7,0,1.3,0.1,1.8,0.3c0.6,0.2,1,0.5,1.4,0.9
		L84.9,64.4z"/>
</g>
<g>
	<path class="st4" d="M265.2,135.5v2h-6.1v4.1h5.1v2h-5.1v5.6h-2.6v-13.7H265.2z"/>
	<path class="st4" d="M269.5,135.1v14.1h-2.3v-14.1H269.5z"/>
	<path class="st4" d="M276.2,139.3c0.6,0,1.2,0.1,1.7,0.3c0.5,0.2,1,0.5,1.3,0.9c0.4,0.4,0.7,0.8,0.9,1.4c0.2,0.5,0.3,1.2,0.3,1.9
		c0,0.2,0,0.3,0,0.4c0,0.1,0,0.2-0.1,0.3s-0.1,0.1-0.2,0.1c-0.1,0-0.2,0-0.3,0h-6c0.1,1,0.3,1.7,0.8,2.2c0.5,0.5,1.1,0.7,1.9,0.7
		c0.4,0,0.7,0,1-0.1c0.3-0.1,0.5-0.2,0.7-0.3c0.2-0.1,0.4-0.2,0.5-0.3c0.2-0.1,0.3-0.1,0.5-0.1c0.1,0,0.2,0,0.2,0.1
		c0.1,0,0.1,0.1,0.2,0.2l0.7,0.9c-0.3,0.3-0.6,0.6-0.9,0.8c-0.3,0.2-0.7,0.4-1,0.5c-0.4,0.1-0.7,0.2-1.1,0.3s-0.7,0.1-1.1,0.1
		c-0.7,0-1.3-0.1-1.9-0.3c-0.6-0.2-1.1-0.6-1.5-1s-0.8-1-1-1.6s-0.4-1.4-0.4-2.3c0-0.7,0.1-1.3,0.3-1.9c0.2-0.6,0.5-1.1,0.9-1.5
		s0.9-0.8,1.5-1C274.8,139.4,275.5,139.3,276.2,139.3z M276.3,141c-0.7,0-1.2,0.2-1.6,0.6c-0.4,0.4-0.6,0.9-0.7,1.6h4.4
		c0-0.3,0-0.6-0.1-0.9c-0.1-0.3-0.2-0.5-0.4-0.7c-0.2-0.2-0.4-0.4-0.6-0.5S276.6,141,276.3,141z"/>
	<path class="st4" d="M284.1,144.2l-3.2-4.7h2.3c0.2,0,0.3,0,0.4,0.1c0.1,0,0.2,0.1,0.2,0.2l2,3.3c0-0.1,0.1-0.2,0.1-0.3
		c0-0.1,0.1-0.2,0.2-0.3l1.6-2.6c0.1-0.1,0.2-0.2,0.2-0.3c0.1-0.1,0.2-0.1,0.3-0.1h2.2l-3.2,4.6l3.3,5.1h-2.3c-0.2,0-0.3,0-0.4-0.1
		c-0.1-0.1-0.2-0.2-0.3-0.3l-2.1-3.4c-0.1,0.2-0.1,0.4-0.2,0.6l-1.8,2.8c-0.1,0.1-0.2,0.2-0.3,0.3s-0.2,0.1-0.4,0.1h-2.1
		L284.1,144.2z"/>
	<path class="st4" d="M294.9,136.6c0,0.2,0,0.4-0.1,0.6c-0.1,0.2-0.2,0.3-0.3,0.5c-0.1,0.1-0.3,0.2-0.5,0.3
		c-0.2,0.1-0.4,0.1-0.6,0.1c-0.2,0-0.4,0-0.6-0.1c-0.2-0.1-0.3-0.2-0.5-0.3c-0.1-0.1-0.2-0.3-0.3-0.5c-0.1-0.2-0.1-0.4-0.1-0.6
		c0-0.2,0-0.4,0.1-0.6s0.2-0.3,0.3-0.5c0.1-0.1,0.3-0.2,0.5-0.3s0.4-0.1,0.6-0.1c0.2,0,0.4,0,0.6,0.1s0.3,0.2,0.5,0.3
		c0.1,0.1,0.2,0.3,0.3,0.5S294.9,136.4,294.9,136.6z M294.5,139.5v9.7h-2.3v-9.7H294.5z"/>
	<path class="st4" d="M297.2,149.2v-14.1h2.3v5.6c0.4-0.4,0.8-0.7,1.3-1c0.5-0.2,1.1-0.4,1.7-0.4c0.5,0,1,0.1,1.5,0.3
		c0.4,0.2,0.8,0.5,1.1,1c0.3,0.4,0.6,0.9,0.7,1.5c0.2,0.6,0.3,1.3,0.3,2.1c0,0.7-0.1,1.4-0.3,2c-0.2,0.6-0.5,1.2-0.8,1.6
		s-0.8,0.8-1.3,1.1c-0.5,0.3-1.1,0.4-1.7,0.4c-0.3,0-0.6,0-0.8-0.1c-0.2-0.1-0.5-0.1-0.7-0.3c-0.2-0.1-0.4-0.2-0.6-0.4
		s-0.3-0.3-0.5-0.5l-0.1,0.7c0,0.2-0.1,0.3-0.2,0.4c-0.1,0.1-0.2,0.1-0.4,0.1H297.2z M301.8,141.1c-0.5,0-0.9,0.1-1.2,0.3
		c-0.3,0.2-0.7,0.5-1,0.9v4.4c0.3,0.3,0.6,0.6,0.9,0.7c0.3,0.1,0.7,0.2,1,0.2c0.4,0,0.7-0.1,1-0.2c0.3-0.1,0.5-0.3,0.7-0.6
		c0.2-0.3,0.4-0.6,0.5-1c0.1-0.4,0.2-0.9,0.2-1.5c0-0.6,0-1.1-0.1-1.4c-0.1-0.4-0.2-0.7-0.4-1c-0.2-0.2-0.4-0.4-0.6-0.5
		C302.3,141.2,302.1,141.1,301.8,141.1z"/>
	<path class="st4" d="M310.9,136.6c0,0.2,0,0.4-0.1,0.6c-0.1,0.2-0.2,0.3-0.3,0.5c-0.1,0.1-0.3,0.2-0.5,0.3
		c-0.2,0.1-0.4,0.1-0.6,0.1c-0.2,0-0.4,0-0.6-0.1c-0.2-0.1-0.3-0.2-0.5-0.3c-0.1-0.1-0.2-0.3-0.3-0.5c-0.1-0.2-0.1-0.4-0.1-0.6
		c0-0.2,0-0.4,0.1-0.6s0.2-0.3,0.3-0.5c0.1-0.1,0.3-0.2,0.5-0.3s0.4-0.1,0.6-0.1c0.2,0,0.4,0,0.6,0.1s0.3,0.2,0.5,0.3
		c0.1,0.1,0.2,0.3,0.3,0.5S310.9,136.4,310.9,136.6z M310.5,139.5v9.7h-2.3v-9.7H310.5z"/>
	<path class="st4" d="M315.7,135.1v14.1h-2.3v-14.1H315.7z"/>
	<path class="st4" d="M321.2,136.6c0,0.2,0,0.4-0.1,0.6c-0.1,0.2-0.2,0.3-0.3,0.5c-0.1,0.1-0.3,0.2-0.5,0.3
		c-0.2,0.1-0.4,0.1-0.6,0.1c-0.2,0-0.4,0-0.6-0.1c-0.2-0.1-0.3-0.2-0.5-0.3c-0.1-0.1-0.2-0.3-0.3-0.5c-0.1-0.2-0.1-0.4-0.1-0.6
		c0-0.2,0-0.4,0.1-0.6s0.2-0.3,0.3-0.5c0.1-0.1,0.3-0.2,0.5-0.3s0.4-0.1,0.6-0.1c0.2,0,0.4,0,0.6,0.1s0.3,0.2,0.5,0.3
		c0.1,0.1,0.2,0.3,0.3,0.5S321.2,136.4,321.2,136.6z M320.8,139.5v9.7h-2.3v-9.7H320.8z"/>
	<path class="st4" d="M326.7,149.4c-0.8,0-1.5-0.2-1.9-0.7s-0.7-1.1-0.7-2v-5.4h-1c-0.1,0-0.2,0-0.3-0.1s-0.1-0.2-0.1-0.4v-0.9
		l1.6-0.3l0.5-2.7c0-0.1,0.1-0.2,0.2-0.3c0.1-0.1,0.2-0.1,0.3-0.1h1.2v3.1h2.6v1.7h-2.6v5.3c0,0.3,0.1,0.5,0.2,0.7
		c0.2,0.2,0.4,0.3,0.6,0.3c0.1,0,0.3,0,0.4-0.1c0.1,0,0.2-0.1,0.3-0.1c0.1,0,0.1-0.1,0.2-0.1c0.1,0,0.1-0.1,0.2-0.1
		c0.1,0,0.1,0,0.2,0.1c0,0,0.1,0.1,0.1,0.2l0.7,1.1c-0.3,0.3-0.7,0.5-1.2,0.6S327.1,149.4,326.7,149.4z"/>
	<path class="st4" d="M334.3,151.9c-0.1,0.2-0.2,0.3-0.3,0.4c-0.1,0.1-0.3,0.1-0.5,0.1h-1.7l1.8-3.9l-3.9-9h2.1c0.2,0,0.3,0,0.4,0.1
		s0.2,0.2,0.2,0.3l2.1,5.1c0.1,0.2,0.1,0.3,0.2,0.5s0.1,0.4,0.1,0.5c0.1-0.2,0.1-0.4,0.2-0.5c0.1-0.2,0.1-0.3,0.2-0.5l2-5
		c0-0.1,0.1-0.2,0.3-0.3c0.1-0.1,0.2-0.1,0.4-0.1h1.9L334.3,151.9z"/>
</g>
<g>
	<path class="st3" d="M12.4,199.6c0.1,0,0.3,0.1,0.4,0.2l1,1.1c-0.6,0.7-1.2,1.2-2.1,1.6S9.9,203,8.8,203c-1,0-1.9-0.2-2.7-0.5
		c-0.8-0.3-1.5-0.8-2.1-1.5s-1-1.4-1.3-2.2S2.2,197,2.2,196c0-1,0.2-2,0.5-2.8c0.3-0.9,0.8-1.6,1.4-2.2c0.6-0.6,1.4-1.1,2.2-1.4
		c0.9-0.3,1.8-0.5,2.9-0.5c1,0,1.9,0.2,2.7,0.5c0.8,0.3,1.4,0.8,2,1.3l-0.9,1.2c-0.1,0.1-0.1,0.1-0.2,0.2c-0.1,0.1-0.2,0.1-0.3,0.1
		c-0.1,0-0.3-0.1-0.4-0.2c-0.2-0.1-0.3-0.2-0.6-0.4c-0.2-0.1-0.5-0.3-0.9-0.4c-0.4-0.1-0.8-0.2-1.4-0.2c-0.6,0-1.2,0.1-1.8,0.3
		c-0.5,0.2-1,0.5-1.4,1c-0.4,0.4-0.7,0.9-0.9,1.5c-0.2,0.6-0.3,1.3-0.3,2c0,0.8,0.1,1.5,0.3,2.1c0.2,0.6,0.5,1.1,0.9,1.5
		s0.8,0.7,1.3,0.9c0.5,0.2,1.1,0.3,1.6,0.3c0.3,0,0.7,0,0.9-0.1c0.3,0,0.5-0.1,0.8-0.2c0.2-0.1,0.5-0.2,0.7-0.3
		c0.2-0.1,0.4-0.3,0.6-0.5c0.1-0.1,0.1-0.1,0.2-0.1C12.2,199.6,12.3,199.6,12.4,199.6z"/>
	<path class="st3" d="M17.7,193.1v6.2c0,0.6,0.1,1.1,0.4,1.4c0.3,0.3,0.7,0.5,1.2,0.5c0.4,0,0.8-0.1,1.1-0.3c0.4-0.2,0.7-0.4,1-0.7
		v-7h2.3v9.7h-1.4c-0.3,0-0.5-0.1-0.6-0.4l-0.2-0.8c-0.2,0.2-0.4,0.4-0.6,0.6c-0.2,0.2-0.4,0.3-0.7,0.4s-0.5,0.2-0.8,0.3
		S19,203,18.6,203c-0.5,0-1-0.1-1.4-0.3c-0.4-0.2-0.8-0.4-1-0.8c-0.3-0.3-0.5-0.7-0.6-1.2c-0.1-0.5-0.2-1-0.2-1.5v-6.2H17.7z"/>
	<path class="st3" d="M32.1,195c-0.1,0.1-0.1,0.2-0.2,0.2c-0.1,0-0.2,0.1-0.3,0.1c-0.1,0-0.2,0-0.4-0.1c-0.1-0.1-0.3-0.1-0.5-0.2
		c-0.2-0.1-0.4-0.2-0.6-0.2c-0.2-0.1-0.5-0.1-0.8-0.1c-0.5,0-0.8,0.1-1.1,0.3c-0.3,0.2-0.4,0.5-0.4,0.8c0,0.2,0.1,0.4,0.2,0.5
		s0.3,0.3,0.5,0.4c0.2,0.1,0.5,0.2,0.8,0.3c0.3,0.1,0.6,0.2,0.9,0.3c0.3,0.1,0.6,0.2,0.9,0.3s0.5,0.3,0.8,0.5
		c0.2,0.2,0.4,0.4,0.5,0.7s0.2,0.6,0.2,1c0,0.5-0.1,0.9-0.3,1.3s-0.4,0.7-0.8,1c-0.3,0.3-0.7,0.5-1.2,0.7c-0.5,0.2-1,0.2-1.7,0.2
		c-0.3,0-0.7,0-1-0.1s-0.6-0.1-0.9-0.3c-0.3-0.1-0.6-0.2-0.8-0.4c-0.2-0.1-0.5-0.3-0.7-0.5l0.5-0.9c0.1-0.1,0.2-0.2,0.2-0.2
		c0.1-0.1,0.2-0.1,0.4-0.1c0.1,0,0.3,0,0.4,0.1c0.1,0.1,0.3,0.2,0.5,0.3c0.2,0.1,0.4,0.2,0.6,0.3c0.2,0.1,0.5,0.1,0.9,0.1
		c0.3,0,0.5,0,0.7-0.1c0.2-0.1,0.4-0.2,0.5-0.3c0.1-0.1,0.2-0.2,0.3-0.4c0.1-0.1,0.1-0.3,0.1-0.4c0-0.2-0.1-0.4-0.2-0.6
		s-0.3-0.3-0.5-0.4c-0.2-0.1-0.5-0.2-0.8-0.3c-0.3-0.1-0.6-0.2-0.9-0.3c-0.3-0.1-0.6-0.2-0.9-0.4c-0.3-0.1-0.5-0.3-0.8-0.5
		s-0.4-0.5-0.5-0.8c-0.1-0.3-0.2-0.7-0.2-1.1c0-0.4,0.1-0.8,0.2-1.1c0.2-0.4,0.4-0.7,0.7-0.9c0.3-0.3,0.7-0.5,1.1-0.6
		c0.5-0.2,1-0.2,1.6-0.2c0.7,0,1.3,0.1,1.8,0.3c0.6,0.2,1,0.5,1.4,0.9L32.1,195z"/>
	<path class="st3" d="M37.9,203c-0.8,0-1.5-0.2-1.9-0.7s-0.7-1.1-0.7-2v-5.4h-1c-0.1,0-0.2,0-0.3-0.1s-0.1-0.2-0.1-0.4v-0.9l1.6-0.3
		l0.5-2.7c0-0.1,0.1-0.2,0.2-0.3c0.1-0.1,0.2-0.1,0.3-0.1h1.2v3.1h2.6v1.7h-2.6v5.3c0,0.3,0.1,0.5,0.2,0.7s0.4,0.3,0.6,0.3
		c0.1,0,0.3,0,0.4-0.1S39,201,39,201c0.1,0,0.1-0.1,0.2-0.1c0.1,0,0.1-0.1,0.2-0.1c0.1,0,0.1,0,0.2,0.1c0,0,0.1,0.1,0.1,0.2l0.7,1.1
		c-0.3,0.3-0.7,0.5-1.2,0.6S38.3,203,37.9,203z"/>
	<path class="st3" d="M46.2,193c0.7,0,1.4,0.1,2,0.4c0.6,0.2,1.1,0.6,1.5,1s0.7,1,1,1.6c0.2,0.6,0.3,1.3,0.3,2.1
		c0,0.8-0.1,1.5-0.3,2.1s-0.6,1.1-1,1.6c-0.4,0.4-0.9,0.8-1.5,1c-0.6,0.2-1.3,0.4-2,0.4c-0.7,0-1.4-0.1-2-0.4
		c-0.6-0.2-1.1-0.6-1.5-1c-0.4-0.4-0.7-1-1-1.6c-0.2-0.6-0.3-1.3-0.3-2.1c0-0.8,0.1-1.5,0.3-2.1c0.2-0.6,0.6-1.1,1-1.6
		c0.4-0.4,0.9-0.8,1.5-1C44.8,193.1,45.4,193,46.2,193z M46.2,201.2c0.8,0,1.4-0.3,1.8-0.8s0.6-1.3,0.6-2.4c0-1.1-0.2-1.9-0.6-2.4
		s-1-0.8-1.8-0.8c-0.8,0-1.4,0.3-1.8,0.8c-0.4,0.6-0.6,1.4-0.6,2.4s0.2,1.8,0.6,2.4S45.4,201.2,46.2,201.2z"/>
	<path class="st3" d="M52.8,202.9v-9.7h1.4c0.3,0,0.5,0.1,0.6,0.4l0.2,0.7c0.2-0.2,0.4-0.4,0.5-0.5c0.2-0.2,0.4-0.3,0.6-0.4
		c0.2-0.1,0.4-0.2,0.7-0.3c0.2-0.1,0.5-0.1,0.8-0.1c0.6,0,1.1,0.2,1.5,0.5c0.4,0.3,0.7,0.8,0.9,1.3c0.2-0.3,0.3-0.6,0.6-0.8
		s0.5-0.4,0.8-0.6c0.3-0.1,0.6-0.3,0.9-0.3c0.3-0.1,0.6-0.1,0.9-0.1c0.5,0,1,0.1,1.4,0.2c0.4,0.2,0.8,0.4,1.1,0.7
		c0.3,0.3,0.5,0.7,0.7,1.2s0.2,1,0.2,1.6v6.2h-2.3v-6.2c0-0.6-0.1-1.1-0.4-1.4c-0.3-0.3-0.7-0.5-1.2-0.5c-0.2,0-0.5,0-0.7,0.1
		c-0.2,0.1-0.4,0.2-0.5,0.4s-0.3,0.4-0.4,0.6c-0.1,0.2-0.1,0.5-0.1,0.8v6.2h-2.4v-6.2c0-0.7-0.1-1.1-0.4-1.4s-0.7-0.4-1.2-0.4
		c-0.3,0-0.7,0.1-0.9,0.3s-0.6,0.4-0.8,0.7v7.1H52.8z"/>
	<path class="st3" d="M71.7,190.3c0,0.2,0,0.4-0.1,0.6c-0.1,0.2-0.2,0.3-0.3,0.5c-0.1,0.1-0.3,0.2-0.5,0.3c-0.2,0.1-0.4,0.1-0.6,0.1
		c-0.2,0-0.4,0-0.6-0.1c-0.2-0.1-0.3-0.2-0.5-0.3c-0.1-0.1-0.2-0.3-0.3-0.5c-0.1-0.2-0.1-0.4-0.1-0.6c0-0.2,0-0.4,0.1-0.6
		s0.2-0.3,0.3-0.5c0.1-0.1,0.3-0.2,0.5-0.3s0.4-0.1,0.6-0.1c0.2,0,0.4,0,0.6,0.1s0.3,0.2,0.5,0.3c0.1,0.1,0.2,0.3,0.3,0.5
		C71.6,189.9,71.7,190.1,71.7,190.3z M71.3,193.1v9.7H69v-9.7H71.3z"/>
	<path class="st3" d="M81,194.1c0,0.2,0,0.3-0.1,0.5c-0.1,0.2-0.1,0.3-0.2,0.4l-4.6,6.1h4.8v1.8h-7.5v-1c0-0.1,0-0.2,0.1-0.4
		c0.1-0.1,0.1-0.3,0.2-0.4l4.7-6.2h-4.7v-1.8H81V194.1z"/>
	<path class="st3" d="M86.9,193c0.6,0,1.2,0.1,1.7,0.3s1,0.5,1.3,0.9s0.7,0.8,0.9,1.4c0.2,0.5,0.3,1.2,0.3,1.9c0,0.2,0,0.3,0,0.4
		c0,0.1,0,0.2-0.1,0.3s-0.1,0.1-0.2,0.1c-0.1,0-0.2,0-0.3,0h-6c0.1,1,0.3,1.7,0.8,2.2c0.5,0.5,1.1,0.7,1.9,0.7c0.4,0,0.7,0,1-0.1
		c0.3-0.1,0.5-0.2,0.7-0.3c0.2-0.1,0.4-0.2,0.5-0.3c0.2-0.1,0.3-0.1,0.5-0.1c0.1,0,0.2,0,0.2,0.1c0.1,0,0.1,0.1,0.2,0.2l0.7,0.9
		c-0.3,0.3-0.6,0.6-0.9,0.8c-0.3,0.2-0.7,0.4-1,0.5c-0.4,0.1-0.7,0.2-1.1,0.3S87.4,203,87,203c-0.7,0-1.3-0.1-1.9-0.3
		s-1.1-0.6-1.5-1s-0.8-1-1-1.6c-0.2-0.6-0.4-1.4-0.4-2.3c0-0.7,0.1-1.3,0.3-1.9s0.5-1.1,0.9-1.5s0.9-0.8,1.5-1
		C85.5,193.1,86.2,193,86.9,193z M87,194.6c-0.7,0-1.2,0.2-1.6,0.6c-0.4,0.4-0.6,0.9-0.7,1.6H89c0-0.3,0-0.6-0.1-0.9
		c-0.1-0.3-0.2-0.5-0.4-0.7c-0.2-0.2-0.4-0.4-0.6-0.5C87.6,194.7,87.3,194.6,87,194.6z"/>
	<path class="st3" d="M99.9,202.9c-0.3,0-0.5-0.1-0.6-0.4l-0.2-0.9c-0.2,0.2-0.4,0.4-0.6,0.6s-0.5,0.3-0.7,0.5
		c-0.3,0.1-0.5,0.2-0.8,0.3c-0.3,0.1-0.6,0.1-1,0.1c-0.5,0-1-0.1-1.5-0.3s-0.8-0.5-1.1-1s-0.6-0.9-0.7-1.6c-0.2-0.6-0.3-1.3-0.3-2.1
		c0-0.7,0.1-1.4,0.3-2c0.2-0.6,0.5-1.2,0.8-1.6c0.4-0.5,0.8-0.8,1.3-1.1s1.1-0.4,1.7-0.4c0.5,0,1,0.1,1.4,0.3c0.4,0.2,0.7,0.4,1,0.7
		v-5.1h2.3v14.1H99.9z M96.8,201.1c0.5,0,0.9-0.1,1.2-0.3c0.3-0.2,0.7-0.5,1-0.9v-4.4c-0.3-0.3-0.6-0.6-0.9-0.7s-0.7-0.2-1-0.2
		c-0.4,0-0.7,0.1-1,0.2c-0.3,0.1-0.5,0.3-0.7,0.6c-0.2,0.3-0.4,0.6-0.5,1c-0.1,0.4-0.2,0.9-0.2,1.5c0,0.6,0,1.1,0.1,1.4
		s0.2,0.7,0.4,1c0.2,0.3,0.4,0.4,0.6,0.5C96.2,201.1,96.5,201.1,96.8,201.1z"/>
	<path class="st3" d="M107.9,193.6c-0.4-0.7-0.6-1.4-0.6-2.1c0-0.6,0.2-1.2,0.5-1.8c0.3-0.6,0.8-1.1,1.4-1.6l0.7,0.4
		c0.1,0,0.1,0.1,0.1,0.1c0,0.1,0,0.1,0,0.2c0,0.1,0,0.1,0,0.2s-0.1,0.1-0.1,0.1c-0.1,0.1-0.2,0.2-0.3,0.3s-0.2,0.3-0.3,0.4
		c-0.1,0.1-0.1,0.3-0.2,0.5c-0.1,0.2-0.1,0.4-0.1,0.6c0,0.2,0,0.4,0.1,0.7c0.1,0.2,0.2,0.5,0.4,0.8c0.1,0.1,0.1,0.2,0.1,0.3
		c0,0.2-0.1,0.3-0.3,0.4L107.9,193.6z"/>
	<path class="st3" d="M120.6,189.1v2h-6.1v4.1h5.1v2h-5.1v5.6h-2.6v-13.7H120.6z"/>
	<path class="st3" d="M125.3,190.3c0,0.2,0,0.4-0.1,0.6c-0.1,0.2-0.2,0.3-0.3,0.5c-0.1,0.1-0.3,0.2-0.5,0.3
		c-0.2,0.1-0.4,0.1-0.6,0.1c-0.2,0-0.4,0-0.6-0.1c-0.2-0.1-0.3-0.2-0.5-0.3c-0.1-0.1-0.2-0.3-0.3-0.5c-0.1-0.2-0.1-0.4-0.1-0.6
		c0-0.2,0-0.4,0.1-0.6s0.2-0.3,0.3-0.5c0.1-0.1,0.3-0.2,0.5-0.3s0.4-0.1,0.6-0.1c0.2,0,0.4,0,0.6,0.1s0.3,0.2,0.5,0.3
		c0.1,0.1,0.2,0.3,0.3,0.5C125.3,189.9,125.3,190.1,125.3,190.3z M125,193.1v9.7h-2.3v-9.7H125z"/>
	<path class="st3" d="M130.8,203c-0.8,0-1.5-0.2-1.9-0.7s-0.7-1.1-0.7-2v-5.4h-1c-0.1,0-0.2,0-0.3-0.1s-0.1-0.2-0.1-0.4v-0.9
		l1.6-0.3l0.5-2.7c0-0.1,0.1-0.2,0.2-0.3c0.1-0.1,0.2-0.1,0.3-0.1h1.2v3.1h2.6v1.7h-2.6v5.3c0,0.3,0.1,0.5,0.2,0.7s0.4,0.3,0.6,0.3
		c0.1,0,0.3,0,0.4-0.1s0.2-0.1,0.3-0.1c0.1,0,0.1-0.1,0.2-0.1c0.1,0,0.1-0.1,0.2-0.1c0.1,0,0.1,0,0.2,0.1c0,0,0.1,0.1,0.1,0.2
		l0.7,1.1c-0.3,0.3-0.7,0.5-1.2,0.6S131.3,203,130.8,203z"/>
	<path class="st3" d="M135.3,193.6c-0.4-0.7-0.6-1.4-0.6-2.1c0-0.6,0.2-1.2,0.5-1.8c0.3-0.6,0.8-1.1,1.4-1.6l0.7,0.4
		c0.1,0,0.1,0.1,0.1,0.1c0,0.1,0,0.1,0,0.2c0,0.1,0,0.1,0,0.2s-0.1,0.1-0.1,0.1c-0.1,0.1-0.2,0.2-0.3,0.3s-0.2,0.3-0.3,0.4
		c-0.1,0.1-0.1,0.3-0.2,0.5c-0.1,0.2-0.1,0.4-0.1,0.6c0,0.2,0,0.4,0.1,0.7c0.1,0.2,0.2,0.5,0.4,0.8c0.1,0.1,0.1,0.2,0.1,0.3
		c0,0.2-0.1,0.3-0.3,0.4L135.3,193.6z"/>
	<path class="st3" d="M21.8,225.7v-8l-0.8-0.1c-0.2,0-0.3-0.1-0.4-0.2c-0.1-0.1-0.2-0.2-0.2-0.4v-1h1.5v-0.7c0-0.6,0.1-1.1,0.3-1.5
		c0.2-0.4,0.4-0.8,0.7-1.1c0.3-0.3,0.7-0.5,1.1-0.7s1-0.2,1.5-0.2c0.4,0,0.9,0.1,1.3,0.2l0,1.2c0,0.2-0.1,0.3-0.3,0.3
		c-0.2,0-0.3,0.1-0.6,0.1c-0.3,0-0.5,0-0.7,0.1c-0.2,0.1-0.4,0.2-0.6,0.3c-0.2,0.1-0.3,0.3-0.3,0.6S24,215,24,215.4v0.6h2.5v1.7
		h-2.5v8H21.8z"/>
	<path class="st3" d="M32.2,215.8c0.7,0,1.4,0.1,2,0.4c0.6,0.2,1.1,0.6,1.5,1s0.7,1,1,1.6c0.2,0.6,0.3,1.3,0.3,2.1
		c0,0.8-0.1,1.5-0.3,2.1s-0.6,1.1-1,1.6c-0.4,0.4-0.9,0.8-1.5,1c-0.6,0.2-1.3,0.4-2,0.4c-0.7,0-1.4-0.1-2-0.4
		c-0.6-0.2-1.1-0.6-1.5-1c-0.4-0.4-0.7-1-1-1.6c-0.2-0.6-0.3-1.3-0.3-2.1c0-0.8,0.1-1.5,0.3-2.1c0.2-0.6,0.6-1.1,1-1.6
		c0.4-0.4,0.9-0.8,1.5-1C30.8,215.9,31.5,215.8,32.2,215.8z M32.2,224c0.8,0,1.4-0.3,1.8-0.8s0.6-1.3,0.6-2.4c0-1.1-0.2-1.9-0.6-2.4
		s-1-0.8-1.8-0.8c-0.8,0-1.4,0.3-1.8,0.8c-0.4,0.6-0.6,1.4-0.6,2.4s0.2,1.8,0.6,2.4S31.4,224,32.2,224z"/>
	<path class="st3" d="M38.8,225.7v-9.7h1.4c0.2,0,0.4,0,0.5,0.1c0.1,0.1,0.2,0.2,0.2,0.5l0.1,1.2c0.3-0.6,0.8-1.1,1.2-1.4
		s1-0.5,1.6-0.5c0.5,0,0.9,0.1,1.2,0.3l-0.3,1.8c0,0.1-0.1,0.2-0.1,0.2c-0.1,0-0.1,0.1-0.3,0.1c-0.1,0-0.2,0-0.4-0.1
		c-0.2,0-0.4-0.1-0.7-0.1c-0.5,0-0.9,0.1-1.3,0.4c-0.3,0.3-0.6,0.7-0.9,1.2v6.1H38.8z"/>
	<path class="st3" d="M54.4,215.8c0.7,0,1.4,0.1,2,0.4c0.6,0.2,1.1,0.6,1.5,1s0.7,1,1,1.6c0.2,0.6,0.3,1.3,0.3,2.1
		c0,0.8-0.1,1.5-0.3,2.1s-0.6,1.1-1,1.6c-0.4,0.4-0.9,0.8-1.5,1c-0.6,0.2-1.3,0.4-2,0.4c-0.7,0-1.4-0.1-2-0.4
		c-0.6-0.2-1.1-0.6-1.5-1c-0.4-0.4-0.7-1-1-1.6c-0.2-0.6-0.3-1.3-0.3-2.1c0-0.8,0.1-1.5,0.3-2.1c0.2-0.6,0.6-1.1,1-1.6
		c0.4-0.4,0.9-0.8,1.5-1C53,215.9,53.7,215.8,54.4,215.8z M54.4,224c0.8,0,1.4-0.3,1.8-0.8s0.6-1.3,0.6-2.4c0-1.1-0.2-1.9-0.6-2.4
		s-1-0.8-1.8-0.8c-0.8,0-1.4,0.3-1.8,0.8c-0.4,0.6-0.6,1.4-0.6,2.4s0.2,1.8,0.6,2.4S53.6,224,54.4,224z"/>
	<path class="st3" d="M63.2,215.9v6.2c0,0.6,0.1,1.1,0.4,1.4c0.3,0.3,0.7,0.5,1.2,0.5c0.4,0,0.8-0.1,1.1-0.3c0.4-0.2,0.7-0.4,1-0.7
		v-7h2.3v9.7h-1.4c-0.3,0-0.5-0.1-0.6-0.4l-0.2-0.8c-0.2,0.2-0.4,0.4-0.6,0.6c-0.2,0.2-0.4,0.3-0.7,0.4s-0.5,0.2-0.8,0.3
		s-0.6,0.1-0.9,0.1c-0.5,0-1-0.1-1.4-0.3c-0.4-0.2-0.8-0.4-1-0.8s-0.5-0.7-0.6-1.2c-0.1-0.5-0.2-1-0.2-1.5v-6.2H63.2z"/>
	<path class="st3" d="M71.9,225.7v-9.7h1.4c0.2,0,0.4,0,0.5,0.1c0.1,0.1,0.2,0.2,0.2,0.5l0.1,1.2c0.3-0.6,0.8-1.1,1.2-1.4
		s1-0.5,1.6-0.5c0.5,0,0.9,0.1,1.2,0.3l-0.3,1.8c0,0.1-0.1,0.2-0.1,0.2c-0.1,0-0.1,0.1-0.3,0.1c-0.1,0-0.2,0-0.4-0.1
		c-0.2,0-0.4-0.1-0.7-0.1c-0.5,0-0.9,0.1-1.3,0.4c-0.3,0.3-0.6,0.7-0.9,1.2v6.1H71.9z"/>
	<path class="st3" d="M90.1,218c-0.1,0.1-0.1,0.2-0.2,0.2c-0.1,0.1-0.2,0.1-0.3,0.1c-0.1,0-0.2,0-0.4-0.1c-0.1-0.1-0.2-0.2-0.4-0.2
		c-0.2-0.1-0.3-0.2-0.6-0.2c-0.2-0.1-0.5-0.1-0.8-0.1c-0.4,0-0.8,0.1-1.1,0.2c-0.3,0.1-0.6,0.4-0.8,0.6c-0.2,0.3-0.4,0.6-0.5,1
		c-0.1,0.4-0.2,0.8-0.2,1.3c0,0.5,0.1,1,0.2,1.4c0.1,0.4,0.3,0.7,0.5,1s0.5,0.5,0.8,0.6c0.3,0.1,0.6,0.2,1,0.2c0.4,0,0.7,0,0.9-0.1
		c0.2-0.1,0.4-0.2,0.6-0.3c0.2-0.1,0.3-0.2,0.4-0.3s0.2-0.1,0.4-0.1c0.2,0,0.3,0.1,0.4,0.2l0.7,0.9c-0.3,0.3-0.5,0.6-0.8,0.8
		c-0.3,0.2-0.6,0.4-0.9,0.5c-0.3,0.1-0.7,0.2-1,0.3c-0.3,0.1-0.7,0.1-1,0.1c-0.6,0-1.2-0.1-1.7-0.3c-0.5-0.2-1-0.6-1.4-1
		c-0.4-0.4-0.7-1-0.9-1.6c-0.2-0.6-0.3-1.3-0.3-2.1c0-0.7,0.1-1.4,0.3-2c0.2-0.6,0.5-1.1,0.9-1.6s0.9-0.8,1.5-1
		c0.6-0.3,1.3-0.4,2-0.4c0.7,0,1.4,0.1,1.9,0.4s1,0.6,1.5,1L90.1,218z"/>
	<path class="st3" d="M94.8,211.5v14.1h-2.3v-14.1H94.8z"/>
	<path class="st3" d="M100.3,213.1c0,0.2,0,0.4-0.1,0.6c-0.1,0.2-0.2,0.3-0.3,0.5c-0.1,0.1-0.3,0.2-0.5,0.3
		c-0.2,0.1-0.4,0.1-0.6,0.1c-0.2,0-0.4,0-0.6-0.1c-0.2-0.1-0.3-0.2-0.5-0.3c-0.1-0.1-0.2-0.3-0.3-0.5c-0.1-0.2-0.1-0.4-0.1-0.6
		c0-0.2,0-0.4,0.1-0.6s0.2-0.3,0.3-0.5c0.1-0.1,0.3-0.2,0.5-0.3s0.4-0.1,0.6-0.1c0.2,0,0.4,0,0.6,0.1s0.3,0.2,0.5,0.3
		c0.1,0.1,0.2,0.3,0.3,0.5C100.3,212.7,100.3,212.9,100.3,213.1z M100,215.9v9.7h-2.3v-9.7H100z"/>
	<path class="st3" d="M106.7,215.8c0.6,0,1.2,0.1,1.7,0.3s1,0.5,1.3,0.9s0.7,0.8,0.9,1.4c0.2,0.5,0.3,1.2,0.3,1.9c0,0.2,0,0.3,0,0.4
		c0,0.1,0,0.2-0.1,0.3s-0.1,0.1-0.2,0.1c-0.1,0-0.2,0-0.3,0h-6c0.1,1,0.3,1.7,0.8,2.2c0.5,0.5,1.1,0.7,1.9,0.7c0.4,0,0.7,0,1-0.1
		c0.3-0.1,0.5-0.2,0.7-0.3c0.2-0.1,0.4-0.2,0.5-0.3c0.2-0.1,0.3-0.1,0.5-0.1c0.1,0,0.2,0,0.2,0.1c0.1,0,0.1,0.1,0.2,0.2l0.7,0.9
		c-0.3,0.3-0.6,0.6-0.9,0.8c-0.3,0.2-0.7,0.4-1,0.5c-0.4,0.1-0.7,0.2-1.1,0.3s-0.7,0.1-1.1,0.1c-0.7,0-1.3-0.1-1.9-0.3
		s-1.1-0.6-1.5-1s-0.8-1-1-1.6c-0.2-0.6-0.4-1.4-0.4-2.3c0-0.7,0.1-1.3,0.3-1.9s0.5-1.1,0.9-1.5s0.9-0.8,1.5-1
		C105.3,215.9,105.9,215.8,106.7,215.8z M106.7,217.4c-0.7,0-1.2,0.2-1.6,0.6c-0.4,0.4-0.6,0.9-0.7,1.6h4.4c0-0.3,0-0.6-0.1-0.9
		c-0.1-0.3-0.2-0.5-0.4-0.7c-0.2-0.2-0.4-0.4-0.6-0.5C107.4,217.5,107.1,217.4,106.7,217.4z"/>
	<path class="st3" d="M112.8,225.7v-9.7h1.4c0.3,0,0.5,0.1,0.6,0.4l0.2,0.8c0.2-0.2,0.4-0.4,0.6-0.6c0.2-0.2,0.4-0.3,0.7-0.4
		c0.2-0.1,0.5-0.2,0.8-0.3c0.3-0.1,0.6-0.1,0.9-0.1c0.5,0,1,0.1,1.4,0.3c0.4,0.2,0.8,0.4,1,0.8s0.5,0.7,0.6,1.2
		c0.1,0.5,0.2,1,0.2,1.5v6.2h-2.3v-6.2c0-0.6-0.1-1.1-0.4-1.4s-0.7-0.5-1.2-0.5c-0.4,0-0.8,0.1-1.1,0.3s-0.7,0.4-1,0.8v7H112.8z"/>
	<path class="st3" d="M126.8,225.8c-0.8,0-1.5-0.2-1.9-0.7s-0.7-1.1-0.7-2v-5.4h-1c-0.1,0-0.2,0-0.3-0.1s-0.1-0.2-0.1-0.4v-0.9
		l1.6-0.3l0.5-2.7c0-0.1,0.1-0.2,0.2-0.3c0.1-0.1,0.2-0.1,0.3-0.1h1.2v3.1h2.6v1.7h-2.6v5.3c0,0.3,0.1,0.5,0.2,0.7s0.4,0.3,0.6,0.3
		c0.1,0,0.3,0,0.4-0.1s0.2-0.1,0.3-0.1c0.1,0,0.1-0.1,0.2-0.1c0.1,0,0.1-0.1,0.2-0.1c0.1,0,0.1,0,0.2,0.1c0,0,0.1,0.1,0.1,0.2
		l0.7,1.1c-0.3,0.3-0.7,0.5-1.2,0.6C127.7,225.7,127.3,225.8,126.8,225.8z"/>
	<path class="st3" d="M136.7,217.8c-0.1,0.1-0.1,0.2-0.2,0.2c-0.1,0-0.2,0.1-0.3,0.1c-0.1,0-0.2,0-0.4-0.1c-0.1-0.1-0.3-0.1-0.5-0.2
		c-0.2-0.1-0.4-0.2-0.6-0.2c-0.2-0.1-0.5-0.1-0.8-0.1c-0.5,0-0.8,0.1-1.1,0.3c-0.3,0.2-0.4,0.5-0.4,0.8c0,0.2,0.1,0.4,0.2,0.5
		s0.3,0.3,0.5,0.4c0.2,0.1,0.5,0.2,0.8,0.3c0.3,0.1,0.6,0.2,0.9,0.3c0.3,0.1,0.6,0.2,0.9,0.3s0.5,0.3,0.8,0.5
		c0.2,0.2,0.4,0.4,0.5,0.7s0.2,0.6,0.2,1c0,0.5-0.1,0.9-0.3,1.3s-0.4,0.7-0.8,1s-0.7,0.5-1.2,0.7c-0.5,0.2-1,0.2-1.7,0.2
		c-0.3,0-0.7,0-1-0.1s-0.6-0.1-0.9-0.3c-0.3-0.1-0.6-0.2-0.8-0.4c-0.2-0.1-0.5-0.3-0.7-0.5l0.5-0.9c0.1-0.1,0.2-0.2,0.2-0.2
		c0.1-0.1,0.2-0.1,0.4-0.1c0.1,0,0.3,0,0.4,0.1c0.1,0.1,0.3,0.2,0.5,0.3c0.2,0.1,0.4,0.2,0.6,0.3c0.2,0.1,0.5,0.1,0.9,0.1
		c0.3,0,0.5,0,0.7-0.1c0.2-0.1,0.4-0.2,0.5-0.3c0.1-0.1,0.2-0.2,0.3-0.4c0.1-0.1,0.1-0.3,0.1-0.4c0-0.2-0.1-0.4-0.2-0.6
		s-0.3-0.3-0.5-0.4c-0.2-0.1-0.5-0.2-0.8-0.3c-0.3-0.1-0.6-0.2-0.9-0.3c-0.3-0.1-0.6-0.2-0.9-0.4c-0.3-0.1-0.5-0.3-0.8-0.5
		s-0.4-0.5-0.5-0.8c-0.1-0.3-0.2-0.7-0.2-1.1c0-0.4,0.1-0.8,0.2-1.1c0.2-0.4,0.4-0.7,0.7-0.9c0.3-0.3,0.7-0.5,1.1-0.6
		c0.5-0.2,1-0.2,1.6-0.2c0.7,0,1.3,0.1,1.8,0.3c0.6,0.2,1,0.5,1.4,0.9L136.7,217.8z"/>
</g>
<g>
	<path class="st2" d="M206.2,12.4c0.1,0,0.3,0.1,0.4,0.2l1,1.1c-0.6,0.7-1.2,1.2-2.1,1.6c-0.8,0.4-1.8,0.6-2.9,0.6
		c-1,0-1.9-0.2-2.8-0.5c-0.8-0.3-1.5-0.8-2.1-1.5c-0.6-0.6-1-1.4-1.3-2.2c-0.3-0.9-0.5-1.8-0.5-2.8c0-1,0.2-2,0.5-2.8
		c0.3-0.9,0.8-1.6,1.4-2.2c0.6-0.6,1.4-1.1,2.2-1.4s1.8-0.5,2.9-0.5c1,0,1.9,0.2,2.7,0.5c0.8,0.3,1.4,0.8,2,1.3l-0.9,1.2
		c-0.1,0.1-0.1,0.1-0.2,0.2C206.5,5,206.4,5,206.2,5c-0.1,0-0.3-0.1-0.4-0.2c-0.2-0.1-0.3-0.2-0.6-0.4c-0.2-0.1-0.5-0.3-0.9-0.4
		C204,4,203.5,3.9,203,3.9c-0.6,0-1.2,0.1-1.8,0.3c-0.5,0.2-1,0.5-1.4,1c-0.4,0.4-0.7,0.9-0.9,1.5c-0.2,0.6-0.3,1.3-0.3,2
		c0,0.8,0.1,1.5,0.3,2.1c0.2,0.6,0.5,1.1,0.9,1.5c0.4,0.4,0.8,0.7,1.3,0.9c0.5,0.2,1.1,0.3,1.6,0.3c0.3,0,0.7,0,0.9-0.1
		c0.3,0,0.5-0.1,0.8-0.2c0.2-0.1,0.5-0.2,0.7-0.3s0.4-0.3,0.6-0.5c0.1-0.1,0.1-0.1,0.2-0.1C206,12.4,206.1,12.4,206.2,12.4z"/>
	<path class="st2" d="M209.3,15.6V5.9h1.4c0.2,0,0.4,0,0.5,0.1c0.1,0.1,0.2,0.2,0.2,0.5l0.1,1.2c0.3-0.6,0.8-1.1,1.2-1.4
		c0.5-0.3,1-0.5,1.6-0.5c0.5,0,0.9,0.1,1.2,0.3l-0.3,1.8c0,0.1-0.1,0.2-0.1,0.2s-0.1,0.1-0.3,0.1c-0.1,0-0.2,0-0.4-0.1
		c-0.2,0-0.4-0.1-0.7-0.1c-0.5,0-0.9,0.1-1.3,0.4c-0.3,0.3-0.6,0.7-0.9,1.2v6.1H209.3z"/>
	<path class="st2" d="M221.1,5.7c0.6,0,1.2,0.1,1.7,0.3c0.5,0.2,1,0.5,1.3,0.9c0.4,0.4,0.7,0.8,0.9,1.4c0.2,0.5,0.3,1.2,0.3,1.9
		c0,0.2,0,0.3,0,0.4s0,0.2-0.1,0.3s-0.1,0.1-0.2,0.1c-0.1,0-0.2,0-0.3,0h-6c0.1,1,0.3,1.7,0.8,2.2s1.1,0.7,1.9,0.7
		c0.4,0,0.7,0,1-0.1c0.3-0.1,0.5-0.2,0.7-0.3c0.2-0.1,0.4-0.2,0.5-0.3c0.2-0.1,0.3-0.1,0.5-0.1c0.1,0,0.2,0,0.2,0.1
		c0.1,0,0.1,0.1,0.2,0.2l0.7,0.9c-0.3,0.3-0.6,0.6-0.9,0.8c-0.3,0.2-0.7,0.4-1,0.5s-0.7,0.2-1.1,0.3s-0.7,0.1-1.1,0.1
		c-0.7,0-1.3-0.1-1.9-0.3c-0.6-0.2-1.1-0.6-1.5-1c-0.4-0.4-0.8-1-1-1.6c-0.2-0.6-0.4-1.4-0.4-2.3c0-0.7,0.1-1.3,0.3-1.9
		c0.2-0.6,0.5-1.1,0.9-1.5c0.4-0.4,0.9-0.8,1.5-1C219.7,5.8,220.4,5.7,221.1,5.7z M221.2,7.4c-0.7,0-1.2,0.2-1.6,0.6
		c-0.4,0.4-0.6,0.9-0.7,1.6h4.4c0-0.3,0-0.6-0.1-0.9c-0.1-0.3-0.2-0.5-0.4-0.7s-0.4-0.4-0.6-0.5C221.8,7.5,221.5,7.4,221.2,7.4z"/>
	<path class="st2" d="M234.9,15.6h-1.1c-0.2,0-0.4,0-0.5-0.1c-0.1-0.1-0.2-0.2-0.3-0.4l-0.2-0.7c-0.2,0.2-0.5,0.4-0.7,0.6
		c-0.2,0.2-0.5,0.3-0.7,0.4c-0.3,0.1-0.5,0.2-0.8,0.3s-0.6,0.1-1,0.1c-0.4,0-0.8-0.1-1.1-0.2c-0.3-0.1-0.6-0.3-0.9-0.5
		c-0.3-0.2-0.4-0.5-0.6-0.8c-0.1-0.3-0.2-0.7-0.2-1.2c0-0.4,0.1-0.7,0.3-1.1c0.2-0.4,0.5-0.7,1-1c0.5-0.3,1-0.5,1.8-0.7
		c0.7-0.2,1.7-0.3,2.8-0.3V9.5c0-0.7-0.1-1.1-0.4-1.5s-0.7-0.5-1.2-0.5c-0.4,0-0.7,0-0.9,0.1c-0.3,0.1-0.5,0.2-0.7,0.3
		c-0.2,0.1-0.4,0.2-0.5,0.3c-0.2,0.1-0.3,0.1-0.5,0.1c-0.2,0-0.3,0-0.4-0.1c-0.1-0.1-0.2-0.2-0.3-0.3l-0.4-0.8
		c1.1-1,2.5-1.5,4.1-1.5c0.6,0,1.1,0.1,1.5,0.3c0.4,0.2,0.8,0.4,1.1,0.8s0.5,0.7,0.7,1.2c0.2,0.5,0.2,1,0.2,1.5V15.6z M230.3,14.1
		c0.2,0,0.5,0,0.7-0.1c0.2,0,0.4-0.1,0.6-0.2c0.2-0.1,0.4-0.2,0.5-0.3s0.3-0.3,0.5-0.5v-1.6c-0.7,0-1.3,0-1.7,0.1s-0.8,0.2-1.1,0.3
		c-0.3,0.1-0.5,0.3-0.6,0.5c-0.1,0.2-0.2,0.4-0.2,0.6c0,0.4,0.1,0.7,0.4,0.9C229.6,14.1,229.9,14.1,230.3,14.1z"/>
	<path class="st2" d="M240.4,15.8c-0.8,0-1.5-0.2-1.9-0.7c-0.5-0.5-0.7-1.1-0.7-2V7.6h-1c-0.1,0-0.2,0-0.3-0.1
		c-0.1-0.1-0.1-0.2-0.1-0.4V6.2l1.6-0.3l0.5-2.7c0-0.1,0.1-0.2,0.2-0.3c0.1-0.1,0.2-0.1,0.3-0.1h1.2v3.1h2.6v1.7h-2.6v5.3
		c0,0.3,0.1,0.5,0.2,0.7c0.2,0.2,0.4,0.3,0.6,0.3c0.1,0,0.3,0,0.4-0.1c0.1,0,0.2-0.1,0.3-0.1s0.1-0.1,0.2-0.1c0.1,0,0.1-0.1,0.2-0.1
		c0.1,0,0.1,0,0.2,0.1c0,0,0.1,0.1,0.1,0.2l0.7,1.1c-0.3,0.3-0.7,0.5-1.2,0.6S240.9,15.8,240.4,15.8z"/>
	<path class="st2" d="M247.4,3c0,0.2,0,0.4-0.1,0.6c-0.1,0.2-0.2,0.3-0.3,0.5c-0.1,0.1-0.3,0.2-0.5,0.3c-0.2,0.1-0.4,0.1-0.6,0.1
		c-0.2,0-0.4,0-0.6-0.1c-0.2-0.1-0.3-0.2-0.5-0.3c-0.1-0.1-0.2-0.3-0.3-0.5s-0.1-0.4-0.1-0.6c0-0.2,0-0.4,0.1-0.6
		c0.1-0.2,0.2-0.3,0.3-0.5c0.1-0.1,0.3-0.2,0.5-0.3s0.4-0.1,0.6-0.1c0.2,0,0.4,0,0.6,0.1s0.3,0.2,0.5,0.3c0.1,0.1,0.2,0.3,0.3,0.5
		C247.4,2.6,247.4,2.8,247.4,3z M247,5.9v9.7h-2.3V5.9H247z"/>
	<path class="st2" d="M254.6,15.6h-2.1l-3.9-9.7h1.9c0.2,0,0.3,0,0.4,0.1c0.1,0.1,0.2,0.2,0.2,0.3l1.9,5.2c0.1,0.3,0.2,0.6,0.3,0.9
		c0.1,0.3,0.1,0.6,0.2,0.9c0.1-0.3,0.1-0.6,0.2-0.9c0.1-0.3,0.2-0.6,0.3-0.9l1.9-5.2c0-0.1,0.1-0.2,0.2-0.3c0.1-0.1,0.2-0.1,0.4-0.1
		h1.9L254.6,15.6z"/>
	<path class="st2" d="M262.7,3c0,0.2,0,0.4-0.1,0.6c-0.1,0.2-0.2,0.3-0.3,0.5c-0.1,0.1-0.3,0.2-0.5,0.3c-0.2,0.1-0.4,0.1-0.6,0.1
		c-0.2,0-0.4,0-0.6-0.1c-0.2-0.1-0.3-0.2-0.5-0.3c-0.1-0.1-0.2-0.3-0.3-0.5s-0.1-0.4-0.1-0.6c0-0.2,0-0.4,0.1-0.6
		c0.1-0.2,0.2-0.3,0.3-0.5c0.1-0.1,0.3-0.2,0.5-0.3s0.4-0.1,0.6-0.1c0.2,0,0.4,0,0.6,0.1s0.3,0.2,0.5,0.3c0.1,0.1,0.2,0.3,0.3,0.5
		C262.6,2.6,262.7,2.8,262.7,3z M262.3,5.9v9.7H260V5.9H262.3z"/>
	<path class="st2" d="M268.2,15.8c-0.8,0-1.5-0.2-1.9-0.7c-0.5-0.5-0.7-1.1-0.7-2V7.6h-1c-0.1,0-0.2,0-0.3-0.1
		c-0.1-0.1-0.1-0.2-0.1-0.4V6.2l1.6-0.3l0.5-2.7c0-0.1,0.1-0.2,0.2-0.3c0.1-0.1,0.2-0.1,0.3-0.1h1.2v3.1h2.6v1.7h-2.6v5.3
		c0,0.3,0.1,0.5,0.2,0.7c0.2,0.2,0.4,0.3,0.6,0.3c0.1,0,0.3,0,0.4-0.1c0.1,0,0.2-0.1,0.3-0.1s0.1-0.1,0.2-0.1c0.1,0,0.1-0.1,0.2-0.1
		c0.1,0,0.1,0,0.2,0.1c0,0,0.1,0.1,0.1,0.2l0.7,1.1c-0.3,0.3-0.7,0.5-1.2,0.6S268.7,15.8,268.2,15.8z"/>
	<path class="st2" d="M275.8,18.3c-0.1,0.2-0.2,0.3-0.3,0.4c-0.1,0.1-0.3,0.1-0.5,0.1h-1.7l1.8-3.9l-3.9-9h2.1c0.2,0,0.3,0,0.4,0.1
		c0.1,0.1,0.2,0.2,0.2,0.3l2.1,5.1c0.1,0.2,0.1,0.3,0.2,0.5c0.1,0.2,0.1,0.4,0.1,0.5c0-0.2,0.1-0.4,0.2-0.5c0.1-0.2,0.1-0.3,0.2-0.5
		l2-5c0.1-0.1,0.1-0.2,0.3-0.3c0.1-0.1,0.2-0.1,0.4-0.1h1.9L275.8,18.3z"/>
</g>
<text transform="matrix(1 0 0 1 414.6665 128.8077)" class="st5" style="font-family:'Lato-Bold'; font-size:19px;">Litheness</text>
<text transform="matrix(1 0 0 1 664.4417 205.7991)" class="st4" style="font-family:'Lato-Bold'; font-size:19px;">Flexibility</text>
<text transform="matrix(1 0 0 1 410.8961 259.4601)"><tspan x="0" y="0" class="st3" style="font-family:'Lato-Bold'; font-size:19px;">Customized ‘Fit‘</tspan><tspan x="18.5" y="22.8" class="st3" style="font-family:'Lato-Bold'; font-size:19px;">for our clients</tspan></text>
<text transform="matrix(1 0 0 1 604.6665 72.2085)" class="st2" style="font-family:'Lato-Bold'; font-size:19px;">Creativity</text>
</svg>
