<?xml version="1.0" encoding="UTF-8" standalone="no"?>
<svg width="300px" height="75px" viewBox="0 0 300 75" version="1.1" xmlns="http://www.w3.org/2000/svg" xmlns:xlink="http://www.w3.org/1999/xlink">
    <!-- Generator: Sketch 39.1 (31720) - http://www.bohemiancoding.com/sketch -->
    <title>financial-insurance-consultants-logo</title>
    <desc>Created with Sketch.</desc>
    <defs></defs>
    <g id="Page-1" stroke="none" stroke-width="1" fill="none" fill-rule="evenodd">
        <g id="financial-insurance-consultants-logo">
            <polyline id="Fill-1" fill="#273777" points="11.3451829 0.0315388456 48.8309346 0.0315388456 47.6016531 7.60966334 27.1175396 7.60966334 25.1379269 19.4227947 38.9988828 19.4227947 37.3610632 27.6170269 23.5690527 27.6170269 20.2215343 45.5743654 3.22062956 45.5743654 11.3451829 0.0315388456"></polyline>
            <path d="M49.7220904,16.0107317 L63.6512582,16.0107317 L57.9177895,45.5743654 L43.9182093,45.5743654 L49.7220904,16.0107317 L49.7220904,16.0107317 Z M65.1519205,6.79112028 C65.1519205,10.0014814 61.8095363,12.457844 57.3713606,12.457844 C54.0238422,12.457844 51.4281219,10.2743291 51.4281219,7.40722796 C51.4281219,4.26507878 54.7059614,1.8072492 58.8742233,1.8072492 C62.6288128,1.8072492 65.1519205,3.78832879 65.1519205,6.79112028 L65.1519205,6.79112028 Z" id="Fill-2" fill="#273777"></path>
            <path d="M68.5243766,16.0107317 L82.8620825,16.0107317 L81.7684914,21.6048427 C86.1384552,17.5128609 90.7130547,15.394624 95.2883877,15.394624 C99.3847703,15.394624 102.867979,18.3988824 102.867979,22.0170481 C102.867979,22.5634769 102.796833,23.1766508 102.664077,23.7927585 C102.594398,24.0656062 102.52692,24.2695085 102.52692,24.3391873 L98.6344392,45.5743654 L84.2945329,45.5743654 L87.7102632,27.1351426 C87.848154,26.250588 87.9141655,25.7041592 87.9141655,25.3645665 C87.9141655,23.7927585 86.6152052,22.4263196 85.1130759,22.4263196 C83.749571,22.4263196 82.1799633,23.3834869 81.5653225,24.6127685 C81.1545841,25.3645665 81.0181602,25.9109954 80.7467795,27.4813365 L77.5349515,45.5743654 L63.4026148,45.5743654 L68.5243766,16.0107317" id="Fill-3" fill="#273777"></path>
            <path d="M122.999298,42.226847 C118.631534,45.0279366 115.491585,46.1890062 112.007643,46.1890062 C106.954093,46.1890062 102.925923,42.4996947 102.925923,37.7908717 C102.925923,34.3751414 105.110904,31.2344591 108.731271,29.3245253 C110.982997,28.1605219 113.510506,27.6170269 117.333307,27.5488149 L120.60968,27.4116576 C124.162568,27.2759673 126.61893,25.5024573 126.61893,23.1099058 C126.61893,21.541765 125.048589,20.3784951 122.932553,20.3784951 C119.792604,20.3784951 118.221529,21.541765 117.333307,24.2695085 L106.954093,24.8841492 C107.978006,18.1971805 114.194092,15.0520975 126.346083,15.0520975 C132.899561,15.0520975 136.381303,16.1434882 138.909545,18.9460447 C140.138827,20.3095497 140.890625,22.2224173 140.890625,23.9299158 C140.890625,25.3645665 140.751267,26.6598596 140.275984,29.254113 L137.202047,45.5743654 L122.384657,45.5743654 L122.999298,42.226847 L122.999298,42.226847 Z M120.679359,33.1451264 C118.561122,34.2379841 117.6751,35.3308417 117.6751,36.6958136 C117.6751,38.2676217 118.905115,39.5643817 120.405778,39.5643817 C122.521081,39.5643817 123.68215,38.4033121 124.162568,36.0122275 L125.18648,30.8237207 L120.679359,33.1451264 L120.679359,33.1451264 Z" id="Fill-4" fill="#273777"></path>
            <path d="M147.744823,16.0107317 L162.081062,16.0107317 L160.991138,21.6048427 C165.358901,17.5128609 169.934234,15.394624 174.507367,15.394624 C178.605216,15.394624 182.086958,18.3988824 182.086958,22.0170481 C182.086958,22.5634769 182.020947,23.1766508 181.883789,23.7927585 C181.815577,24.0656062 181.745899,24.2695085 181.745899,24.3391873 L177.856352,45.5743654 L163.515712,45.5743654 L166.929242,27.1351426 C167.064933,26.250588 167.136078,25.7041592 167.136078,25.3645665 C167.136078,23.7927585 165.837852,22.4263196 164.335722,22.4263196 C162.96855,22.4263196 161.398942,23.3834869 160.784302,24.6127685 C160.37283,25.3645665 160.237873,25.9109954 159.964292,27.4813365 L156.756131,45.5743654 L142.621594,45.5743654 L147.744823,16.0107317" id="Fill-5" fill="#273777"></path>
            <path d="M215.670695,35.3308417 L215.670695,35.9469494 C215.670695,38.2676217 214.030675,41.4779828 211.983584,43.0497908 C209.25364,45.2333058 204.403992,46.3929085 198.192306,46.3929085 C192.318747,46.3929085 188.356587,45.3007843 185.764534,42.8414878 C183.920612,41.2044016 182.8967,38.8140505 182.8967,36.1493848 C182.8967,35.3308417 182.964912,34.716201 183.170281,33.4891198 L184.533786,26.1794423 C184.942324,24.2034969 185.694855,22.2906293 186.584544,21.1295597 C189.517657,17.5128609 195.733743,15.394624 203.38008,15.394624 C212.051062,15.394624 217.649574,18.5353062 217.649574,23.4516989 C217.649574,23.9981277 217.514617,25.6344804 217.444938,26.1134307 L217.104612,28.2984126 L206.518562,28.2984126 L206.863289,26.250588 C206.863289,26.1134307 206.863289,25.8398496 206.927833,25.5024573 C207.065724,24.8841492 207.134669,24.2695085 207.134669,23.8624373 C207.134669,22.1527385 205.700752,20.8559785 203.72334,20.8559785 C202.288689,20.8559785 200.852571,21.6759885 200.239398,22.7688462 C199.896871,23.4516989 199.694436,23.9981277 199.417921,25.3645665 L197.099449,36.0122275 C196.824401,37.3119213 196.756189,37.651514 196.756189,38.1304644 C196.756189,39.8379628 198.394008,41.2711466 200.375088,41.2711466 C203.03682,41.2711466 204.882209,39.0201532 205.224002,35.3308417 L215.670695,35.3308417" id="Fill-6" fill="#273777"></path>
            <path d="M223.513599,16.0107317 L237.442033,16.0107317 L231.706364,45.5743654 L217.707517,45.5743654 L223.513599,16.0107317 L223.513599,16.0107317 Z M238.944162,6.79112028 C238.944162,10.0014814 235.597377,12.457844 231.161402,12.457844 C227.813884,12.457844 225.220364,10.2743291 225.220364,7.40722796 C225.220364,4.26507878 228.498937,1.8072492 232.663531,1.8072492 C236.416654,1.8072492 238.944162,3.78832879 238.944162,6.79112028 L238.944162,6.79112028 Z" id="Fill-7" fill="#273777"></path>
            <path d="M256.21058,42.226847 C251.838416,45.0279366 248.697734,46.1890062 245.215992,46.1890062 C240.165376,46.1890062 236.133538,42.4996947 236.133538,37.7908717 C236.133538,34.3751414 238.32072,31.2344591 241.936685,29.3245253 C244.190613,28.1605219 246.718121,27.6170269 250.540923,27.5488149 L253.819496,27.4116576 C257.369449,27.2759673 259.826545,25.5024573 259.826545,23.1099058 C259.826545,21.541765 258.259872,20.3784951 256.141635,20.3784951 C252.999486,20.3784951 251.430611,21.541765 250.540923,24.2695085 L240.165376,24.8841492 C241.187088,18.1971805 247.402441,15.0520975 259.555165,15.0520975 C266.110844,15.0520975 269.590385,16.1434882 272.11716,18.9460447 C273.348642,20.3095497 274.09824,22.2224173 274.09824,23.9299158 C274.09824,25.3645665 273.963283,26.6598596 273.480665,29.254113 L270.411862,45.5743654 L255.595939,45.5743654 L256.21058,42.226847 L256.21058,42.226847 Z M253.888441,33.1451264 C251.772404,34.2379841 250.884183,35.3308417 250.884183,36.6958136 C250.884183,38.2676217 252.114198,39.5643817 253.613393,39.5643817 C255.730896,39.5643817 256.889766,38.4033121 257.369449,36.0122275 L258.395562,30.8237207 L253.888441,33.1451264 L253.888441,33.1451264 Z" id="Fill-8" fill="#273777"></path>
            <polyline id="Fill-9" fill="#273777" points="285.595983 0.0315388456 299.591896 0.0315388456 290.920913 45.5743654 276.856789 45.5743654 285.595983 0.0315388456"></polyline>
            <polyline id="Fill-10" fill="#273777" points="0.101217691 75.1054349 2.18571535 65.1171559 3.51841494 65.1171559 1.43318382 75.1054349 0.101217691 75.1054349"></polyline>
            <path d="M8.68638486,75.1054349 L10.7701491,65.1171559 L12.1600587,65.1171559 L13.8147479,68.8636773 C14.3201028,70.0100777 14.717639,70.9760465 15.0102901,71.7542492 C15.1811867,72.2111958 15.3770209,72.8236361 15.6021936,73.5945042 C15.7276155,72.7495565 15.8867767,71.8782042 16.0760097,70.9848481 L17.2898886,65.1171559 L18.5903159,65.1171559 L16.5226878,75.1054349 L15.1745855,75.1054349 L12.753429,69.3455616 C12.3155525,68.3267835 11.9576233,67.3718166 11.675974,66.4835947 C11.582091,67.2302585 11.4397994,68.0774066 11.2410314,69.0213716 L9.98681215,75.1054349 L8.68638486,75.1054349" id="Fill-11" fill="#273777"></path>
            <path d="M24.5350215,71.8833384 L25.8435169,71.7608504 L25.8288477,72.1070442 C25.8288477,72.492845 25.916863,72.8463734 26.0936273,73.1654292 C26.2689246,73.4888857 26.5608423,73.732395 26.9686469,73.9076923 C27.3742511,74.0844565 27.8590692,74.171005 28.4179669,74.171005 C29.2145061,74.171005 29.8225457,73.9949742 30.2398853,73.6443796 C30.6572249,73.2930515 30.8662614,72.8940484 30.8662614,72.4400357 C30.8662614,72.1297815 30.7562422,71.8422646 30.5347368,71.5833527 C30.3110311,71.3281081 29.6912561,70.9841146 28.6842134,70.5469715 C27.9038103,70.2051785 27.3705838,69.9440662 27.0860007,69.7621677 C26.6385892,69.4665827 26.3107319,69.1504608 26.0972946,68.7991327 C25.8853242,68.451472 25.7804392,68.0532024 25.7804392,67.6101916 C25.7804392,67.0982354 25.91833,66.6346878 26.1999792,66.2195485 C26.4845623,65.8080766 26.8938338,65.4926882 27.4373288,65.2741166 C27.9800903,65.0555451 28.5903303,64.9462593 29.2709826,64.9462593 C30.0807241,64.9462593 30.7694445,65.0841501 31.3276087,65.3591982 C31.8865064,65.6320459 32.2891768,65.9965762 32.5436879,66.4535228 C32.7937983,66.9090024 32.9177533,67.3432116 32.9177533,67.7605512 L32.9177533,67.9637201 L31.6129253,68.0671381 C31.6129253,67.7832885 31.5894545,67.5617831 31.5381122,67.4011551 C31.447163,67.1195058 31.3100057,66.8847981 31.1193057,66.6904308 C30.9300726,66.496797 30.6718941,66.344237 30.3389026,66.2246828 C30.0095784,66.1087958 29.6384468,66.0493855 29.2277084,66.0493855 C28.5052488,66.0493855 27.9470846,66.2173482 27.5466146,66.5430051 C27.2385607,66.7916485 27.0860007,67.1246401 27.0860007,67.5383124 C27.0860007,67.7854889 27.1490784,68.0040604 27.2752338,68.1962274 C27.4006557,68.3913281 27.6287623,68.5820281 27.957353,68.7690608 C28.1927942,68.9018173 28.7472911,69.1614627 29.6289118,69.5516643 C30.3374357,69.87072 30.827388,70.1208304 31.0973018,70.299795 C31.4588983,70.5418373 31.7339464,70.833755 31.9275803,71.1755481 C32.1197472,71.5173411 32.2224318,71.9097431 32.2224318,72.3468861 C32.2224318,72.8852469 32.0552026,73.3840007 31.7273453,73.8431476 C31.399488,74.2949599 30.9469422,74.6499553 30.3667741,74.9007992 C29.7858726,75.1479757 29.1198895,75.275598 28.3746926,75.275598 C27.2451619,75.275598 26.3254011,75.0306219 25.6117431,74.5370023 C24.8973515,74.0448496 24.5401558,73.160295 24.5350215,71.8833384" id="Fill-12" fill="#273777"></path>
            <path d="M41.322489,65.1171559 L42.6544551,65.1171559 L41.3907009,71.26283 C41.2865493,71.7711188 41.2330066,72.1466511 41.2330066,72.3916273 C41.2330066,72.9285211 41.444977,73.3539288 41.864517,73.6817861 C42.2833236,74.007443 42.8136162,74.171005 43.4509943,74.171005 C43.9563493,74.171005 44.4250312,74.055118 44.8621743,73.8196769 C45.3000508,73.5857027 45.6425773,73.2417092 45.897822,72.7891634 C46.1493993,72.3336838 46.3797062,71.6119577 46.5814081,70.6210512 L47.7329427,65.1171559 L49.0678427,65.1171559 L47.8422285,70.9789804 C47.6331919,71.9757546 47.35521,72.7678931 47.0178177,73.3473277 C46.6796919,73.9304296 46.2073427,74.3976446 45.6044373,74.7460388 C45.0066662,75.0988338 44.305477,75.275598 43.5089378,75.275598 C42.7571397,75.275598 42.1080262,75.1531099 41.5564632,74.9007992 C41.006367,74.6528892 40.5941617,74.3103626 40.3169132,73.8695523 C40.0440655,73.4294753 39.9083751,72.9321884 39.9083751,72.3769581 C39.9083751,72.0263634 40.0007913,71.4227246 40.186357,70.5682419 L41.322489,65.1171559" id="Fill-13" fill="#273777"></path>
            <path d="M54.8357841,75.1054349 L56.9224822,65.1171559 L61.1083471,65.1171559 C61.9349582,65.1171559 62.5606009,65.1861012 62.988209,65.3261924 C63.4128832,65.4648166 63.7473417,65.7237285 63.9908509,66.1043951 C64.2343601,66.487262 64.3568482,66.9654789 64.3568482,67.5449135 C64.3568482,68.3590558 64.0898682,69.0323735 63.5595755,69.5678004 C63.0248821,70.1017604 62.168199,70.4486877 60.9807248,70.6100492 C61.3437882,70.8792296 61.6188363,71.1440092 61.8073359,71.4080554 C62.2166075,71.9948246 62.5473986,72.6006638 62.7960421,73.2285069 L63.5713109,75.1054349 L62.082384,75.1054349 L61.3599244,73.2468434 C61.1017459,72.5735257 60.8120286,71.9948246 60.481971,71.501205 C60.2567983,71.1630792 60.0235575,70.9393735 59.7917837,70.8315546 C59.5526752,70.7252027 59.1720087,70.6709265 58.641716,70.6709265 L57.0985129,70.6709265 L56.1706841,75.1054349 L54.8357841,75.1054349 L54.8357841,75.1054349 Z M57.3236856,69.5824696 L59.1602733,69.5824696 C60.0118221,69.5824696 60.5685194,69.5714677 60.8252309,69.5516643 C61.3283856,69.4995885 61.7427913,69.385902 62.0655144,69.2084043 C62.387504,69.0323735 62.6368809,68.7939985 62.816579,68.4940127 C62.9918763,68.1932935 63.0776913,67.8713039 63.0776913,67.5236431 C63.0776913,67.2317254 63.0153471,66.9808816 62.8825905,66.763777 C62.749834,66.5481393 62.5789375,66.3992466 62.3640332,66.3229666 C62.1535298,66.2437528 61.7911998,66.2085466 61.2792436,66.2085466 L58.0270752,66.2085466 L57.3236856,69.5824696 L57.3236856,69.5824696 Z" id="Fill-14" fill="#273777"></path>
            <path d="M69.7925316,75.1054349 L75.4379849,65.1171559 L77.0626022,65.1171559 L78.6908868,75.1054349 L77.3963272,75.1054349 L76.9254449,72.2265984 L72.8708696,72.2265984 L71.2755908,75.1054349 L69.7925316,75.1054349 L69.7925316,75.1054349 Z M73.4583723,71.1990188 L76.7611495,71.1990188 L76.3753488,68.6964481 C76.2213219,67.6989404 76.1252384,66.8708624 76.0856315,66.2085466 C75.8567915,66.7813801 75.5237999,67.4627658 75.0866569,68.2505035 L73.4583723,71.1990188 L73.4583723,71.1990188 Z" id="Fill-15" fill="#273777"></path>
            <path d="M85.5223475,75.1054349 L87.6090455,65.1171559 L88.9974882,65.1171559 L90.6485101,68.8636773 C91.1523982,70.0100777 91.5550685,70.9760465 91.8499201,71.7542492 C92.0186162,72.2111958 92.213717,72.8236361 92.4374228,73.5945042 C92.5650451,72.7495565 92.7212724,71.8782042 92.909772,70.9848481 L94.1258512,65.1171559 L95.4277454,65.1171559 L93.3549831,75.1054349 L92.013482,75.1054349 L89.5886582,69.3455616 C89.152982,68.3267835 88.7935859,67.3718166 88.5104697,66.4835947 C88.418787,67.2302585 88.2735617,68.0774066 88.0777274,69.0213716 L86.8227748,75.1054349 L85.5223475,75.1054349" id="Fill-16" fill="#273777"></path>
            <path d="M109.268164,71.58702 L110.589862,71.7740527 C110.172522,72.9285211 109.565216,73.797673 108.766477,74.3910434 C107.967737,74.9792796 107.071447,75.275598 106.07834,75.275598 C104.865928,75.275598 103.902893,74.9029996 103.19437,74.1658707 C102.483645,73.4243411 102.129383,72.3637557 102.129383,70.9841146 C102.129383,69.1834666 102.667744,67.6960066 103.745933,66.5188008 C104.708234,65.4714178 105.90451,64.9462593 107.333293,64.9462593 C108.391678,64.9462593 109.246894,65.2293755 109.902609,65.800742 C110.556856,66.3677078 110.936056,67.1297743 111.040941,68.0884085 L109.798457,68.1962274 C109.662767,67.4752347 109.391386,66.9390743 108.978447,66.5833455 C108.570642,66.2283501 108.038883,66.0493855 107.39197,66.0493855 C106.169289,66.0493855 105.18205,66.5943474 104.428052,67.6798704 C103.777471,68.613567 103.451081,69.7232943 103.451081,71.0105192 C103.451081,72.0358984 103.702658,72.8221692 104.208013,73.359063 C104.713368,73.8988907 105.365416,74.171005 106.177358,74.171005 C106.866811,74.171005 107.48952,73.9472992 108.049151,73.49402 C108.608782,73.045875 109.01512,72.4121642 109.268164,71.58702" id="Fill-17" fill="#273777"></path>
            <polyline id="Fill-18" fill="#273777" points="117.210819 75.1054349 119.29605 65.1171559 126.54265 65.1171559 126.305742 66.2510874 120.392575 66.2510874 119.743462 69.3624312 125.53194 69.3624312 125.3009 70.50003 119.506554 70.50003 118.782627 73.9685696 125.100665 73.9685696 124.859356 75.1054349 117.210819 75.1054349"></polyline>
            <path d="M144.687022,71.58702 L146.007252,71.7740527 C145.586245,72.9285211 144.980406,73.797673 144.1802,74.3910434 C143.379993,74.9792796 142.48737,75.275598 141.492063,75.275598 C140.282585,75.275598 139.32175,74.9029996 138.611026,74.1658707 C137.899569,73.4243411 137.542373,72.3637557 137.542373,70.9841146 C137.542373,69.1834666 138.085134,67.6960066 139.162589,66.5188008 C140.125624,65.4714178 141.3197,64.9462593 142.749216,64.9462593 C143.806134,64.9462593 144.662084,65.2293755 145.318532,65.800742 C145.97278,66.3677078 146.353446,67.1297743 146.458331,68.0884085 L145.21218,68.1962274 C145.080157,67.4752347 144.806576,66.9390743 144.39217,66.5833455 C143.983632,66.2283501 143.453339,66.0493855 142.804959,66.0493855 C141.584479,66.0493855 140.59724,66.5943474 139.843975,67.6798704 C139.191194,68.613567 138.864804,69.7232943 138.864804,71.0105192 C138.864804,72.0358984 139.118582,72.8221692 139.621736,73.359063 C140.125624,73.8988907 140.782806,74.171005 141.59108,74.171005 C142.279801,74.171005 142.906177,73.9472992 143.461407,73.49402 C144.022505,73.045875 144.428843,72.4121642 144.687022,71.58702" id="Fill-19" fill="#273777"></path>
            <path d="M153.005209,70.9210369 C153.005209,69.1423927 153.517898,67.6989404 154.546211,66.5980147 C155.570124,65.4963555 156.819209,64.9462593 158.283198,64.9462593 C159.522014,64.9462593 160.535658,65.352597 161.320462,66.1616051 C162.100865,66.9742805 162.4918,68.060537 162.4918,69.4240419 C162.4918,70.3958785 162.293032,71.2965692 161.902097,72.1268477 C161.605779,72.7517569 161.232447,73.2879173 160.784302,73.7382627 C160.335423,74.1908084 159.854272,74.5399361 159.34305,74.7856457 C158.661664,75.1120361 157.943605,75.275598 157.180072,75.275598 C156.381332,75.275598 155.655939,75.0834311 154.998024,74.7027646 C154.344509,74.3198976 153.848689,73.788138 153.510564,73.1060188 C153.173171,72.4202323 153.005209,71.6926385 153.005209,70.9210369 L153.005209,70.9210369 Z M154.309303,70.9885154 C154.309303,71.5738177 154.431791,72.1107115 154.675301,72.6043311 C154.917343,73.0942834 155.278206,73.4786173 155.76009,73.7565992 C156.242708,74.0316473 156.748796,74.171005 157.280556,74.171005 C157.791045,74.171005 158.283198,74.0514507 158.745279,73.8064746 C159.208826,73.5629653 159.623232,73.2263065 159.987029,72.7906304 C160.353026,72.3571546 160.643477,71.8217277 160.855447,71.1880169 C161.06375,70.5565065 161.169369,69.9301304 161.169369,69.3162231 C161.169369,68.3238497 160.892854,67.5273104 160.335423,66.935407 C159.778726,66.3471708 159.094406,66.0493855 158.274396,66.0493855 C157.229214,66.0493855 156.307986,66.496797 155.511447,67.3908866 C154.710507,68.2820424 154.309303,69.4834523 154.309303,70.9885154 L154.309303,70.9885154 Z" id="Fill-20" fill="#273777"></path>
            <path d="M168.70862,75.1054349 L170.791651,65.1171559 L172.178626,65.1171559 L173.833316,68.8636773 C174.337937,70.0100777 174.739141,70.9760465 175.032525,71.7542492 C175.201221,72.2111958 175.398523,72.8236361 175.621495,73.5945042 C175.749117,72.7495565 175.905344,71.8782042 176.096044,70.9848481 L177.31139,65.1171559 L178.612551,65.1171559 L176.539789,75.1054349 L175.196087,75.1054349 L172.773464,69.3455616 C172.337788,68.3267835 171.976925,67.3718166 171.694542,66.4835947 C171.603593,67.2302585 171.459834,68.0774066 171.260333,69.0213716 L170.008314,75.1054349 L168.70862,75.1054349" id="Fill-21" fill="#273777"></path>
            <path d="M185.172631,71.8833384 L186.478192,71.7608504 L186.46719,72.1070442 C186.46719,72.492845 186.553005,72.8463734 186.72977,73.1654292 C186.9036,73.4888857 187.199185,73.732395 187.604056,73.9076923 C188.010394,74.0844565 188.493745,74.171005 189.055576,74.171005 C189.849182,74.171005 190.456488,73.9949742 190.876028,73.6443796 C191.293367,73.2930515 191.503871,72.8940484 191.503871,72.4400357 C191.503871,72.1297815 191.392385,71.8422646 191.170879,71.5833527 C190.943506,71.3281081 190.328865,70.9841146 189.321823,70.5469715 C188.542153,70.2051785 188.010394,69.9440662 187.72361,69.7621677 C187.276199,69.4665827 186.946874,69.1504608 186.734904,68.7991327 C186.522934,68.451472 186.416582,68.0532024 186.416582,67.6101916 C186.416582,67.0982354 186.55814,66.6346878 186.839055,66.2195485 C187.120705,65.8080766 187.529976,65.4926882 188.074938,65.2741166 C188.614766,65.0555451 189.22794,64.9462593 189.907125,64.9462593 C190.721267,64.9462593 191.40412,65.0841501 191.964485,65.3591982 C192.518982,65.6320459 192.928253,65.9965762 193.178363,66.4535228 C193.428474,66.9090024 193.556096,67.3432116 193.556096,67.7605512 L193.556096,67.9637201 L192.250535,68.0671381 C192.250535,67.7832885 192.22413,67.5617831 192.176455,67.4011551 C192.085506,67.1195058 191.945415,66.8847981 191.756182,66.6904308 C191.565482,66.496797 191.30657,66.344237 190.977245,66.2246828 C190.645721,66.1087958 190.276056,66.0493855 189.866785,66.0493855 C189.145059,66.0493855 188.583227,66.2173482 188.182024,66.5430051 C187.874703,66.7916485 187.722143,67.1246401 187.722143,67.5383124 C187.722143,67.7854889 187.786688,68.0040604 187.91211,68.1962274 C188.036798,68.3913281 188.267105,68.5820281 188.594962,68.7690608 C188.828203,68.9018173 189.383434,69.1614627 190.262854,69.5516643 C190.975045,69.87072 191.465731,70.1208304 191.735645,70.299795 C192.096508,70.5418373 192.37449,70.833755 192.56739,71.1755481 C192.759557,71.5173411 192.85564,71.9097431 192.85564,72.3468861 C192.85564,72.8852469 192.689878,73.3840007 192.364955,73.8431476 C192.037097,74.2949599 191.579417,74.6499553 191.00145,74.9007992 C190.422015,75.1479757 189.758232,75.275598 189.010835,75.275598 C187.882771,75.275598 186.960077,75.0306219 186.246419,74.5370023 C185.537161,74.0448496 185.177765,73.160295 185.172631,71.8833384" id="Fill-22" fill="#273777"></path>
            <path d="M201.575764,65.1171559 L202.908464,65.1171559 L201.641043,71.26283 C201.536158,71.7711188 201.487016,72.1466511 201.487016,72.3916273 C201.487016,72.9285211 201.695319,73.3539288 202.114859,73.6817861 C202.535132,74.007443 203.063224,74.171005 203.702069,74.171005 C204.208158,74.171005 204.677573,74.055118 205.112516,73.8196769 C205.549659,73.5857027 205.892919,73.2417092 206.148164,72.7891634 C206.399741,72.3336838 206.628581,71.6119577 206.83175,70.6210512 L207.986218,65.1171559 L209.320385,65.1171559 L208.091103,70.9789804 C207.884267,71.9757546 207.610686,72.7678931 207.271093,73.3473277 C206.927833,73.9304296 206.459151,74.3976446 205.857713,74.7460388 C205.255541,75.0988338 204.558019,75.275598 203.76148,75.275598 C203.010415,75.275598 202.356901,75.1531099 201.806805,74.9007992 C201.255242,74.6528892 200.842303,74.3103626 200.568722,73.8695523 C200.295874,73.4294753 200.158717,72.9321884 200.158717,72.3769581 C200.158717,72.0263634 200.251133,71.4227246 200.438166,70.5682419 L201.575764,65.1171559" id="Fill-23" fill="#273777"></path>
            <polyline id="Fill-24" fill="#273777" points="215.240153 75.1054349 217.325384 65.1171559 218.658817 65.1171559 216.811961 73.9685696 221.960127 73.9685696 221.724686 75.1054349 215.240153 75.1054349"></polyline>
            <polyline id="Fill-25" fill="#273777" points="230.604705 75.1054349 232.458162 66.2510874 229.101842 66.2510874 229.342417 65.1171559 237.277004 65.1171559 237.038629 66.2510874 233.791595 66.2510874 231.938138 75.1054349 230.604705 75.1054349"></polyline>
            <path d="M241.027927,75.1054349 L246.676314,65.1171559 L248.299464,65.1171559 L249.929949,75.1054349 L248.636123,75.1054349 L248.168174,72.2265984 L244.110665,72.2265984 L242.514653,75.1054349 L241.027927,75.1054349 L241.027927,75.1054349 Z M244.697435,71.1990188 L248.000212,71.1990188 L247.614411,68.6964481 C247.460384,67.6989404 247.360633,66.8708624 247.32396,66.2085466 C247.098054,66.7813801 246.762129,67.4627658 246.322052,68.2505035 L244.697435,71.1990188 L244.697435,71.1990188 Z" id="Fill-26" fill="#273777"></path>
            <path d="M256.53257,75.1054349 L258.616334,65.1171559 L260.004043,65.1171559 L261.657265,68.8636773 C262.16262,70.0100777 262.561623,70.9760465 262.855008,71.7542492 C263.025171,72.2111958 263.221005,72.8236361 263.446178,73.5945042 C263.570867,72.7495565 263.729294,71.8782042 263.917794,70.9848481 L265.13534,65.1171559 L266.4343,65.1171559 L264.365205,75.1054349 L263.017103,75.1054349 L260.595213,69.3455616 C260.163204,68.3267835 259.803808,67.3718166 259.518492,66.4835947 C259.426075,67.2302585 259.282317,68.0774066 259.084282,69.0213716 L257.828596,75.1054349 L256.53257,75.1054349" id="Fill-27" fill="#273777"></path>
            <polyline id="Fill-28" fill="#273777" points="275.243173 75.1054349 277.095164 66.2510874 273.742511 66.2510874 273.979419 65.1171559 281.914739 65.1171559 281.676364 66.2510874 278.430064 66.2510874 276.575139 75.1054349 275.243173 75.1054349"></polyline>
            <path d="M286.595691,71.8833384 L287.901252,71.7608504 L287.886583,72.1070442 C287.886583,72.492845 287.973865,72.8463734 288.15283,73.1654292 C288.32666,73.4888857 288.622245,73.732395 289.026382,73.9076923 C289.433453,74.0844565 289.917538,74.171005 290.477169,74.171005 C291.273708,74.171005 291.879548,73.9949742 292.297621,73.6443796 C292.716427,73.2930515 292.925464,72.8940484 292.925464,72.4400357 C292.925464,72.1297815 292.814711,71.8422646 292.593939,71.5833527 C292.368766,71.3281081 291.751192,70.9841146 290.743416,70.5469715 C289.963746,70.2051785 289.429786,69.9440662 289.14887,69.7621677 C288.699258,69.4665827 288.369934,69.1504608 288.156497,68.7991327 C287.944527,68.451472 287.838908,68.0532024 287.838908,67.6101916 C287.838908,67.0982354 287.978999,66.6346878 288.262849,66.2195485 C288.542298,65.8080766 288.953036,65.4926882 289.494331,65.2741166 C290.038559,65.0555451 290.649533,64.9462593 291.331652,64.9462593 C292.143594,64.9462593 292.82718,65.0841501 293.387545,65.3591982 C293.944242,65.6320459 294.351313,65.9965762 294.601423,66.4535228 C294.853001,66.9090024 294.979156,67.3432116 294.979156,67.7605512 L294.979156,67.9637201 L293.672128,68.0671381 C293.672128,67.7832885 293.64719,67.5617831 293.597315,67.4011551 C293.508566,67.1195058 293.367741,66.8847981 293.180708,66.6904308 C292.990008,66.496797 292.731096,66.344237 292.399572,66.2246828 C292.070248,66.1087958 291.693982,66.0493855 291.285444,66.0493855 C290.565918,66.0493855 290.005553,66.2173482 289.60435,66.5430051 C289.29923,66.7916485 289.147403,67.1246401 289.147403,67.5383124 C289.147403,67.7854889 289.209748,68.0040604 289.33737,68.1962274 C289.459858,68.3913281 289.687231,68.5820281 290.014355,68.7690608 C290.25053,68.9018173 290.80796,69.1614627 291.684447,69.5516643 C292.398105,69.87072 292.888791,70.1208304 293.157238,70.299795 C293.518101,70.5418373 293.796816,70.833755 293.986783,71.1755481 C294.182617,71.5173411 294.2787,71.9097431 294.2787,72.3468861 C294.2787,72.8852469 294.114405,73.3840007 293.785081,73.8431476 C293.457223,74.2949599 293.004678,74.6499553 292.423776,74.9007992 C291.845075,75.1479757 291.180559,75.275598 290.435362,75.275598 C289.302897,75.275598 288.385337,75.0306219 287.670945,74.5370023 C286.958754,74.0448496 286.597891,73.160295 286.595691,71.8833384" id="Fill-29" fill="#273777"></path>
            <polygon id="Fill-30" fill="#D9222A" points="2 54 295.600006 54 295.600006 55 2 55"></polygon>
        </g>
    </g>
</svg>