<?xml version="1.0" encoding="UTF-8" standalone="no"?>
<!DOCTYPE svg  PUBLIC '-//W3C//DTD SVG 1.1//EN'  'http://www.w3.org/Graphics/SVG/1.1/DTD/svg11.dtd'>
<svg xmlns="http://www.w3.org/2000/svg" fill-rule="evenodd" xml:space="preserve" height="100%" width="100%" version="1.1" clip-rule="evenodd" xmlns:xlink="http://www.w3.org/1999/xlink" viewBox="0 0 360 360"><g opacity=".25"><clipPath id="_clip1"><rect y="86.34" x="3.639" height="188.4" width="352.68"/></clipPath><g fill-rule="nonzero" fill="#348ea9" clip-path="url(#_clip1)"><path d="m87.4 150.88h-17.908v39.047h29.915v-30.956h-12.007v-8.091z"/><path d="m130.45 116.83h45.071v-2.921l-1.137-1.754-0.006-0.095-0.665-10.345-1.196-3.614-0.004-0.036-0.572-4.69 0.327-1.31-0.645-2.337-41.173-0.05v27.152z"/><path d="m87.4 130.38v-0.185l-1.551-2.094-0.519 0.044v1.48l-7.991 0.629-1.325 0.771-1.329-3.133-1.903-1.086v-1.359l-2.697-2.522v-2.452l-0.859-0.402-1.808 1.989-1.785-1.673 0.204-2.142 0.748-0.672-0.519-0.818 0.911-5.549h-1.064l-1.761-0.976-0.626-1.612-4.578-4.315v-2.364l-2.436-2.698v-9.647l-5.427-0.007 0.052 23.464 1.287 3.689 0.565 1.617 1.715 1.084v1.407l-2.262 4.784v1.339l-2.262 3.219v0.964l2.406 1.111-0.932 1.655-0.17 3.563v12.685h35.916v-19.788z"/><path d="m65.981 203.12l-1.46-6.657 2.614-0.109 1.404 0.775 0.242-1.146-0.001-5.269h-0.002l-0.001-39.841h-17.292-0.358-18v23.849l32.224 29.91 0.63-1.512z"/><path d="m50.769 137.46v-0.01l0.178-3.74 0.635-1.127-2.117-0.977v-1.648l2.262-3.219v-1.273l2.262-4.784v-0.853l-1.592-1.005-0.567-1.619h-13.951l-7.049 2.609-9.273-0.084-2.302 1.414-3.595-0.874-0.687-4.298-5.872-0.265-0.957 14.877-2.838 13.087 1.695 6.492h43.768v-12.703z"/><path d="m175.52 117.55h-45.071v24.455h33.825l2.286 1.802 0.857 0.273 0.579-1.001h4.086l2.127 1.495 1.282 1.417 0.983 0.185v-0.436l-1.031-1.178 0.544-2.586 0.386-0.993-0.962-0.412 0.327-1.358-0.725-1.452h1.27v-15.188l-1.917-1.356-0.409-1.873 1.563-1.317v-0.477z"/><path d="m219.26 193.53h0.004l0.35-0.825 1.24-0.414 0.352-1.89-0.286-0.295h-0.907l-1.443-2.382v-2.668l-5.366-4.402 1.885-4.611-1.429-0.75-1.305 0.886-0.831-1.174-0.234-2.489-3.883-3.597-0.81-2.886 0.275-2.067-1.321-1.651-24.168 0.185v0.519l2.163 2.585 0.238 0.952h0.281l0.574 0.763h1.67l0.402 1.541-1.108 1.339 1.454 2.747h1.191v17.32l0.328 3.264h26.486l1.314 1.213v0.978l-1.692 1.583h3.005l1.481-3.557 0.002-0.006 0.088-0.211z"/><path d="m273.46 162.31v2.416l-0.579 1.877-0.37 3.338-2.935 2.24h-1.804l-1.39 3.737-1.914-0.637-1.256 4.097h-1.11l-0.193 1.889 2.963 4.535 1.505 1.526 1.716 0.819 0.676-0.992 1.231 0.672 3.713-1.533 1.344-0.078v-2.072l3.382-4.543 0.96-2.208 2.049 1.293 1.322-3.102 1.349 0.154 2.578-2.223 0.782-2.01 3.041 1.639 0.503-0.974-0.943-1.534-1.461-0.121-2.283 0.804-1.493-0.492-4.734 2.654v-4.021h-6.362v-7.151h-0.287z"/><path d="m177.54 150.22l-0.01-0.037-0.986-3.27-1.431-0.27-1.389-1.536-1.876-1.32h-3.448l-0.66 1.144-1.528-0.489-2.194-1.726h-33.577v15.536h12.57v8.3h40.029l-0.156-0.621-2.223-2.658v-1.074l-0.385-1.193v-2.162l-0.638-2.99-1.346-1.889 0.436-1.598-1.188-2.147z"/><path d="m177 138.47h-0.358-0.47l0.324 0.648-0.246 1.025 1.041 0.448-0.615 1.58-0.458 2.182 0.972 1.11v1.084l1.024 3.394 1.29 2.332-0.422 1.551 1.234 1.734 0.685 3.208v2.126l0.286 0.889 24.609-0.19 1.468 1.838 0.309-0.309-0.589-1.179 0.926-0.336 0.991-0.277 0.244-1.018 0.718-2.15-0.556-1.159 0.346-2.32h2.294l1.893-0.699-0.047-1.417 1.055-0.72v-1.944l-1.425-0.847-2.153-3.462-1.914-0.302-0.567-4.332 0.211-0.976-1.017-1.11v-0.402h-31.083z"/><path d="m209.87 139.77l-0.265 1.217 0.481 3.679 1.709 0.271 0.642 1.029 17.334 0.458-0.681-4.375 1.27-8.356 0.836-0.928 0.03-1.641 3.499-7.831-0.744-0.34-2.599 3.744-3.096 2.54 0.311-1.456 1.988-3.204-0.349-0.287-0.557-0.868 0.366-0.976-1.115-0.419 0.629-2.279-1.986-1.063v-0.899l-12.044-3.496-0.529-1.006-1.598-1.877h-2.851l0.927-2.012-0.425-0.991-5.237 2.136h-1.921l-1.302 0.665v5.183l-2.818 1.632-0.95 1.553v0.4h0.754l0.969 1.65-0.065 1.169-0.989 0.519v4.396l5.201 3.12 0.291 1.266 3.804 3.033v3.468l1.08 1.176z"/><path d="m244.17 179.08l-2.693 1.678-0.187 1.551-1.117 0.909-1.507-1.404h-0.348l-1.69 2.254-1.205-1.003-1.708 1.422-1.514-1.161-1.367 0.397-2.061-0.164v0.417l-0.707 1.322 0.54 0.836-0.782 1.137-1.603-0.182-0.283 0.754 0.437 1.121-0.676 1.274-2.814-1.535-0.655 0.172-0.681 0.852 0.429 0.442-0.496 2.668-1.336 0.446-0.106 0.248h7.792l0.432-1.136 27.512 0.277 4.322-2.633 0.601-1.363 1.924-0.396 1.748-1.97-0.051-0.052-0.02-0.029-3.119-4.781 0.229-2.273-1.191-1.023-0.598-1.059h-0.552l-1.426 0.838-1.832-0.483-1.127 0.512-1.109-0.843-2.091-0.447-1.09-2.188-2.107-0.357-0.43 0.728 0.272 1.805-3.959 0.578v1.844z"/><path d="m252.37 200.78h3.961l2.676-1.873 0.361-1.01 1.709-1.081 0.664 0.687 0.829-1.184 2.089 0.282 0.92-1.757h1.088l0.283-1.353-38.195-0.385-0.43 1.132h-8.59l-1.426 3.424 0.374 1.023-1.065 0.822-0.797 1.732-0.882 0.547-0.295 1.738-0.325 1.119h35.193v-1.718h1.858v-2.145z"/><path d="m278.97 147.2v3.238h26.763l1.985 2.223v1.648l2.014 0.538 0.527 0.831 4.772 2.714-0.069 0.814 0.904-0.253-0.583-1.169 1.439-1.225-0.647-1.492 0.731-5.844 0.007-0.024 1.278-4.617 0.555-6.595-0.963-0.965-0.676-3.905 1.006-3.889-0.07-2.817v-0.007l0.017-1.113-9.485 0.141-8.687 7.509 1.181 1.288v3.324l-4.293 2.145-3.967 0.752-2.146-1.609-7.294 1.395 0.967 4.076-5.266 2.888z"/><path d="m316.81 154.96l0.782 1.799-1.419 1.206 0.396 0.787 10.886-3.076v-4.718l-10.089-0.441-0.556 4.443z"/><path d="m322.66 144.44v-1.337l0.295-1.178 0.79-4.07 1.775-4.151v-2.576l2.81-1.439 0.424-4.558-10.083 0.151-0.017 1.13 0.073 2.902-0.993 3.835 0.611 3.53 1.038 1.04-0.555 6.584 3.832 0.136z"/><path d="m167.74 212.42l0.302 0.71 1.587-0.991 1.268 1.12 1.336-0.381 0.386 0.69 0.741-0.877h1.269l0.456 0.815 0.87-0.312 1.774 1.013 6.491-1.462 4.272 1.997 0.228-2.745v-9.836l-1.158-11.52h-44.548-0.656-5.09v2.888h18.114v14.584h0.605l1.062 1.204 2.297-0.175 1.128 0.993v0.531l3.448 0.507 0.508 0.453 0.516-0.373 2.107 0.138v0.872l0.687 0.157z"/><path d="m308.96 155.39l-1.958-0.523v-1.926l-1.59-1.78h-27.157v-3.562l-3.79 2.079v19.075h28.228l1.21-1.364 1.446 0.635 0.751-0.365 2.899-2.191-2.641-3.387v-2.223l2.602-4.468z"/><path d="m329.01 130.14l-2.769 1.421v2.286l-1.802 4.215-0.782 4.022-0.277 1.1v1.274l7.169 0.251 1.944-1.626 0.33 0.026 0.738-1.196-0.454-0.294v-1.518l-0.922-0.712-0.723-16.294-1.101 0.083-0.538 1.931-0.345 0.005-0.468 5.025z"/><path d="m227.41 206.82l-0.408-1.455h-12.182l-1.309 1.731-0.712 2.542-0.972 0.359-0.533 1.664-0.024 0.039-1.714 2.744 0.265 1.47 0.151 1.887-0.706 1.415 0.477 2.726 0.972 3.441-3.056 4.149-0.436 2.615-0.496 0.433 0.428 1.385h11.232l-0.957 2.497 1.087 2.548 1.044 0.123 6.099-0.271-0.678-10.771 0.004-0.032 2.424-21.239z"/><path d="m211.25 209.45l0.956-0.355 0.65-2.321 1.79-2.362 0.308-1.059 0.334-1.999 0.976-0.6 0.778-1.698 0.791-0.611-0.156-0.424h-4.803l2.787-2.608v-0.357l-0.879-0.81h-26.134l0.791 7.9v9.884l-0.253 3.035 0.591 0.278 2.023 0.084v3.879h16.755l-0.034-0.197 0.721-1.445-0.133-1.671-0.308-1.692 1.838-2.939 0.611-1.912z"/><path d="m270.32 226.19l-1.154-2.448h-0.559l-0.974-4.145-1.28-0.884-2.865-3.724-1.982-1.525-1.917-3.809h-1.112l-2.516-1.844 1.61-2.441h-14.348l2.987 15.308 1.724 4.613-1.159 0.927-0.334 2.8 0.433 2.097-0.349 1.466 0.669 1.603 0.7 1.59 15.799 1.214 0.73 1.6 0.083 0.018v-3.396l1.367-0.103 2.54 1.326-0.262-0.838 3.405-8.43-1.236-0.976z"/><path d="m187.53 173.66h-0.907l-1.881-3.548 1.18-1.424-0.17-0.652h-1.477l-0.572-0.763h-40.689v22.654h44.516v-16.267z"/><path d="m280.83 169.46v2.801l3.943-2.211 1.56 0.511 2.196-0.772 1.974 0.165 1.2 1.95 1.723 1.22-0.373 0.899 2.668 2.597-0.904 1.599 2.232 1.518 2.525 1.044-1.074-3.108v-3.972l-1.073-1.5 3.863-0.966-0.429 2.038 0.858 4.721-1.073 0.214 0.751 1.5 1.931 0.753 0.858 2.038-1.396 2.787 0.217 2.054 4.504-6.451 0.086-1.416h-4.649v-10.013h-22.118z"/><path d="m114.45 226.99h21.808l-0.015-33.461h0.31v-2.889h-36.434v40.72l4.665-0.056 0.108-2.574h9.558v-1.74z"/><path d="m279.39 206.93h-7.213v-1.692l-1.099-0.493-0.994-0.532h-7.443l-4.186 1.103-1.527 2.315 1.778 1.303h1.32l2.041 4.056 1.926 1.481 2.855 3.71 1.413 0.977 0.91 3.863h0.444l1.276 2.704 0.94 0.742 0.821-2.031h1.502v-0.86l3.646-1.394 0.322-1.393h1.394l5.791-7.296h0.433l-6.35-6.563z"/><path d="m231.82 236.65l-1.263-1.403v-1.282h15.767l-0.553-1.328 0.366-1.536-0.423-2.055 0.38-3.206 0.985-0.787-1.564-4.182-0.007-0.03-3.018-15.475h-14.753l0.394 1.397-0.009 0.069-2.428 21.28 0.676 10.723 0.48-0.023 1.393-2.361 2.254 2.683 0.928-0.159 0.395-2.325z"/><path d="m265.72 235.83l-0.504 0.037v3.611l-1.3-0.266-0.701-1.55-15.807-1.214-0.779-1.77h-15.355v0.293l1.31 1.455-0.41 2.418 7.12-1.216 5.815 5.794 8.343-3.323 6.437 6.969 1.287 4.933-0.86 3.327 0.753 0.964 0.643-0.857 0.858 0.857-1.716 2.683 6.435 9.868 2.251 1.5 2.147 4.399 3.755-1.072 1.287-10.727-8.016-25.549-2.993-1.564z"/><path d="m217.95 243.85l1.718-1.609-0.322-0.964-1.824 0.642-0.107-1.286-1.93 0.215-1.824-0.429 1.285-1.824 2.752 0.32-1.039-2.443 0.688-1.794h-10.722l-0.717-2.333 0.65-0.568 0.422-2.533 2.95-4.003-0.886-3.142-0.365-2.08h-16.878v7.04l1.715 1.752v1.665l1.574 2.858v1.463l-1.422 2.915 0.251 2.598-0.444 1.1-0.148 2.033 2.1-0.557 7.614 1.609 0.751-1.824 1.503-0.216 6.756 4.507 2.038-1.075 1.072 1.075 0.967-0.107v-2.469l5.363 3.433-0.107-1.286-3.434-2.683z"/><path d="m192.77 241.25l0.418-1.044-0.251-2.624 1.438-2.948v-1.113l-1.572-2.861v-1.556l-1.719-1.75v-11.245l-1.479-0.06-0.066-0.031-5.396-2.524-6.523 1.472-1.73-0.989-1.13 0.405-0.546-0.978h-0.519l-1.19 1.411-0.615-1.094-1.167 0.33-1.163-1.025-1.845 1.155-0.486-1.146-0.886-0.203v-0.771l-1.182-0.079-0.772 0.561-0.778-0.695-3.847-0.565v-0.828l-0.66-0.578-2.351 0.18-1.084-1.228h-0.998v-14.586h-17.709l0.016 33.461h-21.808v1.025h0.024l10.512 9.223 1.072 5.579 9.118 4.611 2.431-4.718 2.61-1.289 5.363 1.396 9.975 13.622 1.609 0.429 0.537 3.969 2.466 4.396 9.04 2.576 0.722 1.393 1.179-0.749-1.179-8.581-1.288-0.646 1.288-0.534 0.857-3.006 2.038-2.036 3.433-2.361 0.536-1.178h3.11l5.899-4.721 0.431-2.252 1.607 0.859 4.037-1.071 0.173-2.39z"/><path d="m355.56 124.04l-0.858-0.321v-2.925l-2.467-1.796v-11.585l-3.111-2.895-4.292 1.393-0.535-1.822-1.072-0.107-4.827 6.65v1.716l-1.61 4.29 0.752 0.964-3.325 2.576v1.61l-0.966 1.178-1.081 0.081 0.71 15.982 0.937 0.72v1.483l0.114 0.076 3.504-5.686h1.285l0.966-1.931 1.718 1.288 0.751-1.18 1.072 0.645 1.821-5.15 1.075 1.61 1.288 0.75v-1.286l2.466 0.108 6.436-3.541-0.751-2.895z"/><path d="m299.15 197.3l2.788-1.5-0.428-1.503 0.159-0.45-33.988-0.344-0.428 2.061h-1.236l-0.954 1.818-2.154-0.292-1.077 1.534-0.861-0.888-1.01 0.638-0.353 0.994-3.048 2.13h-3.474v2.146h-1.859v1.005h6.963l4.363-1.147h7.716l1.139 0.611 1.488 0.663v1.444h6.802l7.042 7.276h2.541l5.042-5.684 4.827-0.857 0.644-1.289-1.073-0.641-1.075 0.641-1.072-0.749h0.857l0.322-1.93-0.963-0.86 1.823-0.858 2.253 0.858 1.714-1.393 0.216-1.716-2.252-0.644-1.394-1.074z"/><path d="m338.19 152.25l-0.322 0.643-3.003-0.536-1.288-3.005-0.861-0.643-0.212-1.501 2.038-1.61-1.18-0.536-0.577-1.237-0.057-0.005-1.93 1.617-12.085-0.423-1.206 4.351-0.053 0.443 13.149 0.574v2.184l1.479 0.661 0.096 1.039 2.471-1.159 0.858 1.181 3.54-1.181-0.752-2.467-0.106 1.61z"/><path d="m331.41 153.71l-1.523-0.679v-1.962l-1.715-0.076v4.485l0.794-0.224 1.608-1.824 0.644 1.288 0.274-0.129-0.082-0.879z"/><path d="m99.407 190.64h-29.912v5.422l-0.455 2.161-2.075-1.141-1.563 0.065 1.325 6.046-0.856 2.052 1.44 3.444 1.706 0.447 0.244 1.465-2.206 2.029-0.087 3.322-1.649 1.302v1.471h1.931l-0.114 2.51-2.133 0.923-0.168 0.212 0.158 1.423 22.203 7.724 12.211-0.148v-40.729z"/><path d="m302.15 192.48l-0.644-1.289h-1.609l-1.395-1.071-1.287-1.934 2.789 1.934-0.858-2.493-0.106-0.939 0.964-0.322-1.179-1.824 0.965-1.289-3.003-2.573-0.083-0.309-2.83-1.926 0.955-1.693-2.622-2.55 0.34-0.819-0.979-0.694-0.742 1.437-2.968-1.602-0.553 1.421-2.951 2.545-1.13-0.131-1.442 3.384-2.053-1.295-0.661 1.521-3.291 4.42v2.505l-1.897 0.112-3.918 1.616-0.961-0.525-0.658 0.966-2.381-1.14-1.088-1.102-1.874 2.114-1.797 0.366-0.543 1.233-3.532 2.152 44.789 0.451 0.233-0.657z"/><path d="m129.73 125.74h-41.617v32.514h41.617v-32.514z"/><rect height="30.956" width="42.18" y="158.97" x="100.12"/><path d="m75.249 127.39l1.107 2.61 0.763-0.448 7.496-0.589v-1.478l1.571-0.129 1.214 1.638v-3.966h42.332v-35.346l-72.505-0.088v9.372l2.436 2.695v2.333l4.471 4.214 0.592 1.519 1.372 0.763h1.72l-1.003 6.111 0.699 1.096-0.993 0.893-0.143 1.514 0.999 0.938 1.673-1.84 1.75 0.815v2.596l2.698 2.525v1.251l1.751 1.001z"/><path d="m207.32 165.98l0.717 2.549 3.936 3.647 0.243 2.569 0.314 0.446 1.078-0.732 2.385 1.25-1.931 4.724 5.219 4.282v2.808l1.13 1.868h0.487l0.919-1.149 1.156-0.305 2.432 1.324 0.182-0.345-0.42-1.071 0.575-1.534 1.733 0.197 0.268-0.389-0.51-0.787 0.821-1.538v-2.874l2.788-4.444-0.607-2.71 0.63-2.186v-19.055l-0.153-0.059-0.828-5.319-16.993-0.448 1.141 1.833 1.626 0.967v2.727l-1.042 0.711 0.049 1.541-2.496 0.92h-1.805l-0.225 1.495 0.588 1.222-0.803 2.41-0.331 1.384-1.382 0.384-0.135 0.049 0.462 0.921-0.987 0.986-0.231 1.731z"/><path d="m64.554 221.57l1.887-0.817 0.06-1.316h-1.898v-2.532l1.658-1.308 0.087-3.289 2.144-1.974-0.104-0.624-1.601-0.422-1.604-3.834-32.772-30.418v-24.16h-25.224l1.171 4.485-2.144 7.616v1.18l3.754 5.576v4.291l4.719 6.518v1.529l2.145 1.07 1.073-1.608 3.003 0.645-2.038 1.071 0.43 2.681-1.824-1.179 1.931 5.364 2.359 1.179-0.751 2.359 6.758 8.365-0.215 1.287 1.288 0.967 1.179 4.72 5.149 0.32 2.146 2.145 4.826 0.967 0.644 2.038 1.608-0.324 4.506 3.326 1.286 5.365 14.108-0.936 0.256-0.323z"/><path d="m234.14 153.75l-2.561-0.959v18.889l-0.609 2.107 0.632 2.819-2.835 4.519v1.71l1.988 0.163 1.591-0.463 1.345 1.031 1.726-1.436 1.084 0.903 1.454-1.941h0.987l1.26 1.171 0.408-0.333 0.194-1.601 2.646-1.652v-2.064l3.859-0.565-0.202-1.344 0.634-1.074v-20.474h-13.146l-0.455 0.594z"/><path d="m8.252 108.6l-0.644 0.535 0.644 1.824 0.858 1.717-0.965 0.964 3.11 0.752-1.181 0.648 5.513 0.248 0.705 4.405 2.844 0.691 2.222-1.368 9.347 0.087 7.046-2.609h13.83l-1.16-3.324v-0.058l-0.051-23.527-34.601-0.04 0.421 1.356 1.179 1.288v2.788l0.321 1.758 1.502 2.318-0.429 1.502-0.322 4.076-1.286 1.286-3.004 1.609-0.537-1.717 3.433-1.178-0.214-1.823 0.322-2.146-0.859 1.502-1.93 0.75 1.93-2.145-1.287-2.68-4.612 0.214-6.758-2.682 3.755 11.905 0.858 1.074z"/><path d="m173 92.059l-0.34 1.361 0.552 4.524 1.202 3.633 0.004 0.046 0.661 10.299 1.15 1.775v4.658l-1.487 1.254 0.258 1.181 1.993 1.41v15.558h31.083v-2.282l-3.728-2.975-0.282-1.213-5.288-3.171v-5.233l1.014-0.531 0.03-0.547-0.652-1.114h-1.058v-1.317l1.149-1.879 2.618-1.515v-5.21l2.045-1.042 1.893-1.566 4.457-4.86 8.697-4.366-2.445 0.156-0.897-1.331-4.15 0.279-0.801-1.548-2.851 1.919h-0.896l-3.158-2.91h-1.486v1.229h-0.836l-0.185-1.322-2.692-2.383-2.663-0.185-0.99 1.392h-2.136v-1.083l-5.229-1.084-1.177-5.726h-1.642v3.406l-12.379-0.016 0.642 2.329z"/><path d="m214.64 111.41h-0.296l1.255 1.476 0.426 0.805 12.268 3.56v1.008l2.113 1.13-0.608 2.204 1.171 0.438-0.491 1.31 0.303 0.469 0.188 0.156 2.8-4.509h1.143l0.683-1.081 1.518-0.095-0.559 1.424 0.34 0.59 1.826-2.633 6.388-1.67 2.928 2.011 0.404-1.485 5.385 0.309-1.363-1.299-1.113-0.373 0.341-0.928-0.68-1.67-4.304 0.309 0.124-3.065-2.785 0.991-4.706 0.156-2.755 1.762-1.113-0.463h-3.25l-2.755-3.435-2.508-0.156-1.454 0.991 0.124-1.612 3.188-3.464 1.052-0.061v-0.714l-2.662-0.092-4.952 4.302-0.899 0.029-1.422 1.396-2.414-0.095-2.879 2.074z"/><path d="m257.69 153.49h-9.228v19.937l2.409 0.408 1.101 2.201 1.912 0.41 0.893 0.681 0.971-0.44 1.791 0.471 1.339-0.783h1.164l0.74 1.313 1.139 0.973h0.77l1.317-4.292 1.952 0.65 1.325-3.555h2.058l2.5-1.909 0.345-3.099 0.565-1.841v-3.02h1.002v-11.53l-4.961 2.721-1.286 2.467h-5.043l-4.774-1.763z"/><path d="m255.06 133.91l1.758-3.109v-7.617l-4.763-3.135-2.897-0.619-2.036-0.429-0.966 1.931 1.073 1.181-3.002 0.643 0.106 3.109-1.288 1.395-0.213-3.431-2.683 2.25-0.108 1.824h-0.963v2.148l-1.394 3.752 0.321 1.823-0.536 1.074 1.609 4.183 0.536 5.685-4.474 5.876h13.316v0.333h7.291l-0.258-0.095 5.148-7.616 1.821-0.322-2.145-11.263-2.68 0.107-3.005 3.862-1.609-1.393 0.324-1.824 1.716-0.323z"/><path d="m309.42 171.01l-0.766-1.688v9.443h3.976l0.085-1.409-3.327-5.684 0.032-0.662z"/><path d="m331.59 158.37l-3.425 0.857 0.646-1.716-1.288 1.502-2.466 0.214-5.212 1.303-0.01 0.122-0.357-0.03-0.356-0.031 0.153-1.797-4.527-2.576-0.235-0.365-2.445 4.2v1.782l2.937 3.764-3.535 2.671-1.109 0.54-1.272-0.557-0.086 0.098 0.497 1.095 0.002-0.029 3.861 5.364 1.717-1.717 3.432-7.937-0.965-2.68 7.938-1.825 6.105-2.252z"/></g></g><g opacity=".25"><clipPath id="_clip2"><rect y="242.72" x="30.543" height="39.135" width="86.71"/></clipPath><g fill-rule="nonzero" fill="#348ea9" clip-path="url(#_clip2)"><path d="m84.49 245.49l3.702-1.48 1.573-1.297h1.204l3.054 1.388 0.462 0.926 3.609 0.463 2.5 1.295h3.054l2.406 1.666v22.213h1.574l2.129 2.406 1.666-1.017 3.609 5.644 2.221 1.297-0.648 1.666-1.017-1.852-1.759-1.111-2.869-4.35-1.481 0.278-3.795-2.406-3.609-0.741-3.239-1.48-0.926 1.943-0.833-0.183-1.481 1.943-1.111-1.666 1.481-1.852h0.833v-1.017l-1.573 0.445-2.685 4.274 0.302 0.556-5.669 5.367-1.481 0.094 3.054-3.148 0.926-2.684-2.314 1.111-1.389-1.019-1.48 0.094-0.648-2.592-1.203 0.832-1.574-1.758-1.017-2.869 1.665-2.777 1.111 0.556 2.776-1.666-0.37-2.314-5.182 0.556-0.556-2.5-1.388-0.185 3.702-2.498 0.462 1.295h2.037l1.295-0.741-2.776-2.035-0.278-1.297-2.869-1.943 0.278-1.48 2.036-0.186 1.481-1.389 1.018-2.775z"/><path d="m78.796 270.59l0.852 1.1 1.07-0.276-0.164-1.043h-0.797l-0.961 0.219z"/><path d="m85.002 278.8l-1.263 1.07v0.791l1.071-0.931 0.851-0.16-0.659-0.77z"/><path d="m81.268 281.46l0.741-0.988h0.659l0.138 0.767-1.181 0.606-0.357-0.385z"/><path d="m92.197 275.62l-0.549 0.439 0.11 0.688h1.428l0.989-0.824-0.605-0.44-0.878 0.221-0.495-0.084z"/><path d="m74.128 263.01l0.247 0.852 1.236-0.303 0.961 1.127 0.961-0.838-1.538-0.647-1.867-0.191z"/><path d="m110.58 274.73l0.346 1.377 0.197-0.932-0.272-0.445h-0.272z"/><path d="m111.35 276.51l0.569 1.582v-1.064l-0.569-1.038v0.52z"/><path d="m113.65 279.11l0.692 1.553v-1.553l-0.692-0.545v0.545z"/><path d="m112.58 276.74l0.223 0.734 0.42 0.198-0.643-0.932z"/><path d="m33.098 250.67l1.118-0.879h1.197v2.156l-1.516-0.398-0.799-0.879z"/><path d="m30.543 251.94l0.958-1.078 0.399 0.539-1.357 1.178v-0.639z"/><path d="m40.305 253.42l1.236 1.398 1.139-0.259 0.422 0.65 0.488-0.894-1.333-1.442-1.952 0.547z"/><path d="m45.477 255.92l0.357-0.715 2.7 0.358-0.423 0.781-2.634-0.424z"/><path d="m46.778 257.16s0.325 0.553 0.39 0.65c0.065 0.098 0.586 0 0.586 0l0.162-0.65-0.91-0.293-0.228 0.293z"/><path d="m48.794 256.35v1.203h1.138v1.203h0.651l1.561-0.715-0.976-1.171h-1.398l-0.489-0.52h-0.487z"/><path d="m52.892 260.38l3.383 1.689 0.585 1.172 1.138 0.91v0.651l-3.317 1.627-0.65 1.203-1.334-0.553-0.26-2.156-0.488-1.877 0.911-1.301-0.325-1.365h0.357z"/></g></g><g fill="#636363" fill-rule="nonzero"><path d="m126.64 127.03h3.06l2.034 8.172h0.036l2.664-8.172h2.61l2.646 8.388h0.036l2.142-8.388h2.844l-3.726 12.744h-2.502l-2.808-8.82h-0.036l-2.808 8.82h-2.412l-3.78-12.744z"/><path d="m146.08 127.03h8.658v2.591h-5.85v2.376h5.526v2.593h-5.526v2.591h6.174v2.593h-8.982v-12.744z"/><rect height="12.744" width="2.808" y="127.03" x="162.6"/><path d="m167.97 127.03h3.816l5.418 8.856h0.036v-8.856h2.808v12.744h-3.672l-5.562-9.072h-0.036v9.072h-2.808v-12.744z"/><path d="m188.94 130.14c-0.228-0.288-0.537-0.501-0.927-0.639s-0.759-0.207-1.107-0.207c-0.204 0-0.414 0.024-0.63 0.072s-0.42 0.123-0.612 0.225-0.348 0.237-0.468 0.405-0.18 0.372-0.18 0.612c0 0.384 0.144 0.678 0.432 0.882s0.651 0.378 1.089 0.522 0.909 0.288 1.413 0.432 0.975 0.348 1.413 0.612 0.801 0.618 1.089 1.062 0.432 1.038 0.432 1.782c0 0.708-0.132 1.326-0.396 1.854s-0.621 0.965-1.071 1.314c-0.45 0.347-0.972 0.606-1.566 0.774s-1.221 0.252-1.881 0.252c-0.828 0-1.596-0.126-2.304-0.379-0.708-0.252-1.368-0.66-1.98-1.224l1.998-2.196c0.288 0.384 0.651 0.681 1.089 0.891s0.891 0.315 1.359 0.315c0.228 0 0.459-0.026 0.693-0.081 0.234-0.054 0.444-0.135 0.63-0.243s0.336-0.246 0.45-0.414 0.171-0.366 0.171-0.594c0-0.384-0.147-0.687-0.441-0.909s-0.663-0.411-1.107-0.567-0.924-0.312-1.44-0.468-0.996-0.366-1.44-0.63-0.813-0.612-1.107-1.044-0.441-1.002-0.441-1.71c0-0.684 0.135-1.284 0.405-1.8s0.63-0.948 1.08-1.296 0.969-0.609 1.557-0.783 1.194-0.261 1.818-0.261c0.72 0 1.416 0.102 2.088 0.306s1.278 0.546 1.818 1.026l-1.926 2.106z"/><path d="m203.71 134.86c0 0.756-0.114 1.452-0.342 2.088s-0.567 1.188-1.017 1.656-1.011 0.833-1.683 1.097-1.446 0.397-2.322 0.397c-0.888 0-1.668-0.132-2.34-0.397-0.672-0.264-1.233-0.63-1.683-1.097-0.45-0.469-0.789-1.02-1.017-1.656s-0.342-1.332-0.342-2.088v-7.831l2.808 0.001v7.722c0 0.395 0.063 0.762 0.189 1.097 0.126 0.337 0.303 0.627 0.531 0.874 0.228 0.245 0.501 0.438 0.819 0.576s0.663 0.207 1.035 0.207 0.714-0.069 1.026-0.207 0.582-0.331 0.81-0.576c0.228-0.246 0.405-0.537 0.531-0.874 0.126-0.335 0.189-0.702 0.189-1.097v-7.722l2.808-0.001v7.831z"/><path d="m206.31 127.03h4.932c0.648 0 1.263 0.063 1.845 0.189s1.092 0.336 1.53 0.63 0.786 0.69 1.044 1.188 0.387 1.119 0.387 1.863c0 0.9-0.234 1.665-0.702 2.295s-1.152 1.029-2.052 1.197l3.24 5.382h-3.366l-2.664-5.094h-1.386v5.094h-2.808v-12.744zm2.8 5.27h1.656c0.252 0 0.519-0.01 0.801-0.027 0.282-0.018 0.537-0.072 0.765-0.162s0.417-0.231 0.567-0.423 0.225-0.463 0.225-0.81c0-0.325-0.066-0.582-0.198-0.774s-0.3-0.339-0.504-0.441-0.438-0.171-0.702-0.207-0.522-0.054-0.774-0.054h-1.836v2.898z"/><path d="m218.08 127.03h8.658v2.591h-5.85v2.376h5.526v2.593h-5.526v2.591h6.174v2.593h-8.982v-12.744z"/></g><g fill="#636363" fill-rule="nonzero"><path d="m75.528 146.7h8.942c1.246 0 2.425 0.113 3.536 0.34 1.11 0.226 2.079 0.617 2.907 1.173 0.827 0.555 1.484 1.303 1.972 2.244 0.487 0.94 0.731 2.125 0.731 3.553 0 1.405-0.227 2.584-0.68 3.536-0.454 0.952-1.077 1.711-1.87 2.278-0.794 0.566-1.734 0.969-2.822 1.207s-2.267 0.357-3.536 0.357h-3.876v9.384h-5.304v-24.072zm5.304 10.2l3.536-0.001c0.476 0 0.935-0.045 1.377-0.136 0.442-0.09 0.838-0.243 1.19-0.459 0.351-0.215 0.634-0.51 0.85-0.883 0.215-0.374 0.323-0.845 0.323-1.411 0-0.612-0.142-1.105-0.425-1.48-0.284-0.374-0.646-0.662-1.088-0.867-0.442-0.204-0.935-0.334-1.479-0.391-0.544-0.056-1.066-0.085-1.564-0.085h-2.72v5.712z"/><path d="m97.648 146.7h9.316c1.224 0 2.385 0.119 3.485 0.357 1.099 0.238 2.062 0.634 2.89 1.19 0.827 0.555 1.484 1.303 1.972 2.244 0.487 0.94 0.731 2.113 0.731 3.519 0 1.7-0.442 3.145-1.326 4.335s-2.176 1.943-3.876 2.261l6.12 10.166h-6.358l-5.032-9.623h-2.618v9.623h-5.304v-24.072zm5.302 9.96l3.128-0.001c0.476 0 0.98-0.017 1.513-0.05 0.532-0.034 1.014-0.136 1.445-0.306 0.43-0.17 0.787-0.437 1.071-0.799 0.283-0.363 0.425-0.873 0.425-1.53 0-0.612-0.125-1.1-0.374-1.462-0.25-0.363-0.567-0.641-0.952-0.833-0.386-0.193-0.828-0.323-1.326-0.391-0.499-0.068-0.986-0.102-1.462-0.102h-3.468v5.474z"/><path d="m119.19 158.74c0-1.927 0.323-3.672 0.969-5.236s1.547-2.896 2.703-3.995c1.156-1.1 2.527-1.944 4.114-2.534 1.586-0.589 3.32-0.883 5.202-0.883 1.881 0 3.615 0.294 5.202 0.883 1.586 0.59 2.958 1.434 4.114 2.534 1.156 1.099 2.057 2.431 2.703 3.995s0.969 3.309 0.969 5.236c0 1.926-0.323 3.672-0.969 5.236s-1.547 2.895-2.703 3.995c-1.156 1.099-2.528 1.943-4.114 2.533-1.587 0.589-3.321 0.884-5.202 0.884-1.882 0-3.616-0.295-5.202-0.884-1.587-0.59-2.958-1.434-4.114-2.533-1.156-1.1-2.057-2.431-2.703-3.995s-0.969-3.31-0.969-5.236zm5.51 0c0 1.133 0.175 2.17 0.527 3.111 0.351 0.94 0.855 1.756 1.513 2.448 0.657 0.691 1.445 1.229 2.363 1.615 0.918 0.385 1.943 0.578 3.077 0.578 1.133 0 2.159-0.193 3.077-0.578 0.918-0.386 1.705-0.924 2.363-1.615 0.657-0.692 1.161-1.508 1.513-2.448 0.351-0.941 0.527-1.978 0.527-3.111 0-1.111-0.176-2.142-0.527-3.094-0.352-0.952-0.856-1.774-1.513-2.465-0.658-0.692-1.445-1.23-2.363-1.615-0.918-0.386-1.944-0.578-3.077-0.578-1.134 0-2.159 0.192-3.077 0.578-0.918 0.385-1.706 0.923-2.363 1.615-0.658 0.691-1.162 1.513-1.513 2.465-0.352 0.952-0.527 1.983-0.527 3.094z"/><path d="m149.47 146.7h8.942c1.246 0 2.425 0.113 3.536 0.34 1.11 0.226 2.079 0.617 2.907 1.173 0.827 0.555 1.484 1.303 1.972 2.244 0.487 0.94 0.731 2.125 0.731 3.553 0 1.405-0.227 2.584-0.68 3.536-0.454 0.952-1.077 1.711-1.87 2.278-0.794 0.566-1.734 0.969-2.822 1.207s-2.267 0.357-3.536 0.357h-3.876v9.384h-5.304v-24.072zm5.3 10.2l3.536-0.001c0.476 0 0.935-0.045 1.377-0.136 0.442-0.09 0.838-0.243 1.19-0.459 0.351-0.215 0.634-0.51 0.85-0.883 0.215-0.374 0.323-0.845 0.323-1.411 0-0.612-0.142-1.105-0.425-1.48-0.284-0.374-0.646-0.662-1.088-0.867-0.442-0.204-0.935-0.334-1.479-0.391-0.544-0.056-1.066-0.085-1.564-0.085h-2.72v5.712z"/><path d="m171.79 146.7h16.354v4.895h-11.05v4.489h10.438v4.895h-10.438v4.897h11.662v4.895h-16.966v-24.072z"/><path d="m193.86 146.7h9.316c1.224 0 2.385 0.119 3.485 0.357 1.099 0.238 2.062 0.634 2.89 1.19 0.827 0.555 1.484 1.303 1.972 2.244 0.487 0.94 0.731 2.113 0.731 3.519 0 1.7-0.442 3.145-1.326 4.335s-2.176 1.943-3.876 2.261l6.12 10.166h-6.358l-5.032-9.623h-2.618v9.623h-5.304v-24.072zm5.3 9.96l3.128-0.001c0.476 0 0.98-0.017 1.513-0.05 0.532-0.034 1.014-0.136 1.445-0.306 0.43-0.17 0.787-0.437 1.071-0.799 0.283-0.363 0.425-0.873 0.425-1.53 0-0.612-0.125-1.1-0.374-1.462-0.25-0.363-0.567-0.641-0.952-0.833-0.386-0.193-0.828-0.323-1.326-0.391-0.499-0.068-0.986-0.102-1.462-0.102h-3.468v5.474z"/><path d="m221.29 151.39h-6.868v-4.692h19.04v4.692h-6.868v19.38h-5.304v-19.38z"/><rect height="24.072" width="5.304" y="146.7" x="236.78"/><path d="m247.91 146.7h16.354v4.895h-11.05v4.489h10.438v4.895h-10.438v4.897h11.662v4.895h-16.966v-24.072z"/><path d="m281.73 152.58c-0.431-0.544-1.015-0.947-1.751-1.207-0.737-0.261-1.434-0.392-2.091-0.392-0.386 0-0.782 0.046-1.19 0.137-0.408 0.09-0.794 0.232-1.156 0.424-0.363 0.193-0.658 0.448-0.884 0.766-0.227 0.317-0.34 0.702-0.34 1.155 0 0.726 0.272 1.281 0.816 1.666 0.544 0.386 1.229 0.715 2.057 0.987 0.827 0.272 1.717 0.543 2.669 0.816 0.952 0.272 1.841 0.657 2.669 1.156 0.827 0.498 1.513 1.167 2.057 2.006 0.544 0.838 0.816 1.96 0.816 3.365 0 1.338-0.25 2.505-0.748 3.502-0.499 0.998-1.173 1.825-2.023 2.482-0.85 0.658-1.836 1.145-2.958 1.462-1.122 0.318-2.307 0.476-3.553 0.476-1.564 0-3.015-0.238-4.352-0.714-1.338-0.476-2.584-1.246-3.74-2.311l3.774-4.149c0.544 0.726 1.229 1.287 2.057 1.684 0.827 0.396 1.683 0.595 2.567 0.595 0.43 0 0.867-0.052 1.309-0.154 0.442-0.101 0.838-0.255 1.19-0.458 0.351-0.204 0.634-0.465 0.85-0.782 0.215-0.318 0.323-0.692 0.323-1.123 0-0.725-0.278-1.297-0.833-1.716-0.556-0.42-1.253-0.777-2.091-1.071-0.839-0.295-1.746-0.59-2.72-0.885-0.975-0.294-1.882-0.691-2.72-1.19-0.839-0.498-1.536-1.156-2.091-1.971-0.556-0.816-0.833-1.893-0.833-3.231 0-1.292 0.255-2.425 0.765-3.4 0.51-0.974 1.19-1.79 2.04-2.447 0.85-0.658 1.83-1.151 2.941-1.48 1.11-0.328 2.255-0.493 3.434-0.493 1.36 0 2.674 0.193 3.944 0.578 1.269 0.386 2.414 1.032 3.434 1.938l-3.638 3.978z"/></g><g fill="#636363" fill-rule="nonzero"><path d="m25.73 181.76h9.54l13.545 22.14h0.09v-22.14h7.02v31.86h-9.18l-13.905-22.68h-0.09v22.68h-7.02v-31.86z"/><path d="m74.94 181.76h5.805l13.86 31.86h-7.92l-2.745-6.75h-12.375l-2.655 6.75h-7.74l13.77-31.86zm2.7 9.27l-3.87 9.9h7.785l-3.915-9.9z"/></g><path stroke-width="2px" d="m25.731 213.62h7.02l-0.001-22.68h0.09l13.905 22.68h9.18v-31.86h-7.02v22.14h-0.09l-13.545-22.14h-9.54v31.86z" stroke="#636363" fill="none"/><path stroke-width="2px" d="m61.19 213.62h7.74l2.655-6.75h12.375l2.745 6.75h7.92l-13.861-31.86h-5.804l-13.77 31.86zm20.385-12.69h-7.785l3.87-9.9 3.914 9.9z" stroke="#636363" fill="none"/><path fill="#636363" d="m101.55 187.97h-9.09v-6.21h25.2v6.21h-9.09v25.65h-7.02v-25.65z" fill-rule="nonzero"/><path stroke-width="2px" d="m101.55 213.62h7.02v-25.65h9.09v-6.21h-25.2v6.21h9.09v25.65z" stroke="#636363" fill="none"/><g fill-rule="nonzero" fill="#636363"><rect height="31.86" width="7.02" y="181.76" x="123.2"/><path d="m136.95 197.69c0-2.55 0.427-4.86 1.282-6.93s2.048-3.832 3.578-5.287 3.345-2.573 5.445-3.353 4.395-1.17 6.885-1.17 4.785 0.39 6.885 1.17 3.915 1.898 5.445 3.353 2.722 3.217 3.577 5.287 1.283 4.38 1.283 6.93-0.428 4.86-1.283 6.93-2.047 3.833-3.577 5.288-3.345 2.572-5.445 3.352-4.395 1.17-6.885 1.17-4.785-0.39-6.885-1.17-3.915-1.897-5.445-3.352-2.723-3.218-3.578-5.288-1.282-4.38-1.282-6.93zm7.29 0c0 1.5 0.232 2.873 0.697 4.118s1.133 2.325 2.003 3.24 1.912 1.627 3.127 2.137 2.573 0.765 4.073 0.765 2.857-0.255 4.072-0.765 2.258-1.222 3.128-2.137 1.537-1.995 2.002-3.24 0.698-2.618 0.698-4.118c0-1.47-0.233-2.835-0.698-4.095s-1.132-2.347-2.002-3.262-1.913-1.628-3.128-2.138-2.572-0.765-4.072-0.765-2.858 0.255-4.073 0.765-2.257 1.223-3.127 2.138-1.538 2.002-2.003 3.262-0.697 2.625-0.697 4.095z"/><path d="m177.3 181.76h9.54l13.545 22.14h0.09v-22.14h7.02v31.86h-9.18l-13.905-22.68h-0.09v22.68h-7.02v-31.86z"/><path d="m211.79 181.76h7.65l5.085 20.43h0.09l6.66-20.43h6.525l6.615 20.97h0.09l5.355-20.97h7.11l-9.315 31.86h-6.255l-7.02-22.05h-0.09l-7.02 22.05h-6.03l-9.45-31.86z"/></g><rect height="31.86" width="7.02" stroke="#636363" y="181.76" x="123.2" stroke-width="2px" fill="none"/><path stroke-width="2px" d="m136.97 197.69c0 10.215 7.245 16.74 17.19 16.74s17.19-6.525 17.19-16.74-7.245-16.74-17.19-16.74-17.19 6.525-17.19 16.74zm7.29 0c0-5.94 3.915-10.26 9.9-10.26s9.9 4.32 9.9 10.26-3.915 10.26-9.9 10.26-9.9-4.32-9.9-10.26z" stroke="#636363" fill="none"/><path stroke-width="2px" d="m177.29 213.62h7.02v-22.68h0.09l13.905 22.68h9.18v-31.86h-7.02v22.14h-0.09l-13.545-22.14h-9.54v31.86z" stroke="#636363" fill="none"/><path stroke-width="2px" d="m221.25 213.62h6.03l7.02-22.05h0.09l7.02 22.05h6.255l9.315-31.86h-7.11l-5.355 20.97h-0.09l-6.615-20.97h-6.525l-6.66 20.43h-0.09l-5.085-20.43h-7.65l9.45 31.86z" stroke="#636363" fill="none"/><rect fill-rule="nonzero" height="31.86" width="7.02" y="181.76" x="262.11" fill="#636363"/><rect height="31.86" width="7.02" stroke="#636363" y="181.76" x="262.11" stroke-width="2px" fill="none"/><path fill="#636363" d="m275.79 181.76h10.53c2.55 0 4.973 0.285 7.268 0.855s4.297 1.493 6.007 2.768 3.068 2.932 4.073 4.972 1.507 4.515 1.507 7.425c0 2.58-0.487 4.853-1.462 6.818s-2.288 3.615-3.938 4.95-3.555 2.347-5.715 3.037-4.425 1.035-6.795 1.035h-11.475v-31.86zm7.02 25.38h3.645c1.62 0 3.128-0.165 4.523-0.495s2.602-0.877 3.622-1.642 1.823-1.77 2.408-3.015 0.877-2.768 0.877-4.568c0-1.56-0.292-2.917-0.877-4.072s-1.373-2.108-2.363-2.858-2.152-1.312-3.487-1.687-2.738-0.563-4.208-0.563h-4.14v18.9z" fill-rule="nonzero"/><path stroke-width="2px" d="m275.79 213.62h11.475c9.495 0 17.91-5.535 17.91-15.84 0-11.655-8.595-16.02-18.855-16.02h-10.53v31.86zm7.02-25.38h4.14c5.94 0 10.935 2.925 10.935 9.18 0 7.245-4.905 9.72-11.43 9.72h-3.645v-18.9z" stroke="#636363" fill="none"/><path fill="#636363" d="m310.49 181.76h21.645v6.48h-14.625v5.94h13.815v6.48h-13.815v6.48h15.435v6.48h-22.455v-31.86z" fill-rule="nonzero"/><g fill="#636363" fill-rule="nonzero"><path d="m26.731 183.76h9.54l13.545 22.14h0.09v-22.14h7.02v31.86h-9.18l-13.905-22.68h-0.09v22.68h-7.02v-31.86z"/><path d="m75.941 183.76h5.805l13.86 31.86h-7.92l-2.745-6.75h-12.375l-2.655 6.75h-7.74l13.77-31.86zm2.7 9.27l-3.87 9.9h7.785l-3.915-9.9z"/></g><path stroke-width="2px" d="m310.48 213.62h22.455v-6.48h-15.435v-6.48h13.815v-6.48h-13.815v-5.94h14.625v-6.48h-21.645v31.86z" stroke="#636363" fill="none"/><path stroke-width="2px" d="m26.731 215.62h7.02v-22.68h0.09l13.905 22.68h9.18v-31.86h-7.02v22.14h-0.09l-13.545-22.14h-9.54v31.86z" stroke="#636363" fill="none"/><path stroke-width="2px" d="m62.19 215.62h7.74l2.655-6.75h12.375l2.745 6.75h7.92l-13.86-31.86h-5.805l-13.77 31.86zm20.385-12.69h-7.785l3.87-9.9 3.915 9.9z" stroke="#636363" fill="none"/><path fill="#636363" d="m102.56 189.97h-9.09v-6.21h25.2v6.21h-9.09v25.65h-7.02v-25.65z" fill-rule="nonzero"/><path stroke-width="2px" d="m102.56 215.62h7.02v-25.65h9.09v-6.21h-25.2v6.21h9.09v25.65z" stroke="#636363" fill="none"/><g fill-rule="nonzero" fill="#636363"><rect height="31.86" width="7.02" y="183.76" x="124.2"/><path d="m137.95 199.69c0-2.55 0.427-4.86 1.282-6.93s2.048-3.833 3.578-5.288c1.53-1.454 3.345-2.572 5.445-3.352s4.395-1.17 6.885-1.17 4.785 0.39 6.885 1.17 3.915 1.898 5.445 3.352c1.53 1.456 2.722 3.218 3.577 5.288s1.283 4.38 1.283 6.93-0.428 4.86-1.283 6.93-2.047 3.832-3.577 5.287-3.345 2.573-5.445 3.353-4.395 1.17-6.885 1.17-4.785-0.39-6.885-1.17-3.915-1.898-5.445-3.353-2.723-3.217-3.578-5.287-1.282-4.38-1.282-6.93zm7.29 0c0 1.5 0.232 2.872 0.697 4.117s1.133 2.325 2.003 3.24 1.912 1.628 3.127 2.138 2.573 0.765 4.073 0.765 2.857-0.255 4.072-0.765 2.258-1.223 3.128-2.138 1.537-1.995 2.002-3.24 0.698-2.617 0.698-4.117c0-1.47-0.233-2.835-0.698-4.095s-1.132-2.348-2.002-3.263-1.913-1.627-3.128-2.137-2.572-0.765-4.072-0.765-2.858 0.255-4.073 0.765-2.257 1.222-3.127 2.137-1.538 2.003-2.003 3.263-0.697 2.625-0.697 4.095z"/><path d="m178.3 183.76h9.54l13.545 22.14h0.09v-22.14h7.02v31.86h-9.18l-13.905-22.68h-0.09v22.68h-7.02v-31.86z"/><path d="m212.8 183.76h7.65l5.085 20.43h0.09l6.66-20.43h6.525l6.615 20.97h0.09l5.355-20.97h7.11l-9.315 31.86h-6.255l-7.02-22.05h-0.09l-7.02 22.05h-6.03l-9.45-31.86z"/></g><rect height="31.86" width="7.02" stroke="#636363" y="183.76" x="124.2" stroke-width="2px" fill="none"/><path stroke-width="2px" d="m137.97 199.69c0 10.215 7.245 16.74 17.19 16.74s17.19-6.525 17.19-16.74-7.245-16.74-17.19-16.74-17.19 6.525-17.19 16.74zm7.29 0c0-5.94 3.915-10.26 9.9-10.26s9.9 4.32 9.9 10.26-3.915 10.26-9.9 10.26-9.9-4.32-9.9-10.26z" stroke="#636363" fill="none"/><path stroke-width="2px" d="m178.29 215.62h7.02v-22.68h0.09l13.905 22.68h9.18v-31.86h-7.02v22.14h-0.09l-13.545-22.14h-9.54v31.86z" stroke="#636363" fill="none"/><path stroke-width="2px" d="m222.25 215.62h6.03l7.02-22.05h0.09l7.02 22.05h6.255l9.315-31.86h-7.11l-5.355 20.97h-0.09l-6.615-20.97h-6.525l-6.66 20.43h-0.09l-5.085-20.43h-7.65l9.45 31.86z" stroke="#636363" fill="none"/><rect fill-rule="nonzero" height="31.86" width="7.02" y="183.76" x="263.11" fill="#636363"/><rect height="31.86" width="7.02" stroke="#636363" y="183.76" x="263.11" stroke-width="2px" fill="none"/><path fill="#636363" d="m276.79 183.76h10.53c2.55 0 4.973 0.285 7.268 0.855s4.297 1.493 6.007 2.767c1.71 1.275 3.068 2.933 4.073 4.973s1.507 4.515 1.507 7.425c0 2.58-0.487 4.852-1.462 6.817s-2.288 3.615-3.938 4.95-3.555 2.348-5.715 3.038-4.425 1.035-6.795 1.035h-11.475v-31.86zm7.02 25.38h3.645c1.62 0 3.128-0.165 4.523-0.495s2.602-0.877 3.622-1.643c1.02-0.764 1.823-1.769 2.408-3.014s0.877-2.768 0.877-4.568c0-1.56-0.292-2.917-0.877-4.072s-1.373-2.108-2.363-2.858-2.152-1.312-3.487-1.687-2.738-0.563-4.208-0.563h-4.14v18.9z" fill-rule="nonzero"/><path stroke-width="2px" d="m276.79 215.62h11.475c9.495 0 17.91-5.535 17.91-15.84 0-11.655-8.595-16.02-18.855-16.02h-10.53v31.86zm7.02-25.38h4.14c5.94 0 10.935 2.925 10.935 9.18 0 7.245-4.905 9.72-11.43 9.72h-3.645v-18.9z" stroke="#636363" fill="none"/><path fill="#636363" d="m311.49 183.76h21.645v6.48h-14.625v5.94h13.815v6.48h-13.815v6.48h15.435v6.48h-22.455v-31.86z" fill-rule="nonzero"/><g fill="#e18c32" fill-rule="nonzero"><path d="m25.73 181.76h9.54l13.545 22.14h0.09v-22.14h7.02v31.86h-9.18l-13.905-22.68h-0.09v22.68h-7.02v-31.86z"/><path d="m74.94 181.76h5.805l13.86 31.86h-7.92l-2.745-6.75h-12.375l-2.655 6.75h-7.74l13.77-31.86zm2.7 9.27l-3.87 9.9h7.785l-3.915-9.9z"/></g><path stroke-width="2px" d="m311.49 215.62h22.455v-6.48h-15.435v-6.48h13.815v-6.48h-13.815v-5.94h14.625v-6.48h-21.645v31.86z" stroke="#636363" fill="none"/><path stroke-width="2px" d="m25.731 213.62h7.02l-0.001-22.68h0.09l13.905 22.68h9.18v-31.86h-7.02v22.14h-0.09l-13.545-22.14h-9.54v31.86z" stroke="#636363" fill="none"/><path stroke-width="2px" d="m61.19 213.62h7.74l2.655-6.75h12.375l2.745 6.75h7.92l-13.861-31.86h-5.804l-13.77 31.86zm20.385-12.69h-7.785l3.87-9.9 3.914 9.9z" stroke="#636363" fill="none"/><path fill="#e18c32" d="m101.55 187.97h-9.09v-6.21h25.2v6.21h-9.09v25.65h-7.02v-25.65z" fill-rule="nonzero"/><path stroke-width="2px" d="m101.55 213.62h7.02v-25.65h9.09v-6.21h-25.2v6.21h9.09v25.65z" stroke="#636363" fill="none"/><g fill-rule="nonzero" fill="#e18c32"><rect height="31.86" width="7.02" y="181.76" x="123.2"/><path d="m136.95 197.69c0-2.55 0.427-4.86 1.282-6.93s2.048-3.832 3.578-5.287 3.345-2.573 5.445-3.353 4.395-1.17 6.885-1.17 4.785 0.39 6.885 1.17 3.915 1.898 5.445 3.353 2.722 3.217 3.577 5.287 1.283 4.38 1.283 6.93-0.428 4.86-1.283 6.93-2.047 3.833-3.577 5.288-3.345 2.572-5.445 3.352-4.395 1.17-6.885 1.17-4.785-0.39-6.885-1.17-3.915-1.897-5.445-3.352-2.723-3.218-3.578-5.288-1.282-4.38-1.282-6.93zm7.29 0c0 1.5 0.232 2.873 0.697 4.118s1.133 2.325 2.003 3.24 1.912 1.627 3.127 2.137 2.573 0.765 4.073 0.765 2.857-0.255 4.072-0.765 2.258-1.222 3.128-2.137 1.537-1.995 2.002-3.24 0.698-2.618 0.698-4.118c0-1.47-0.233-2.835-0.698-4.095s-1.132-2.347-2.002-3.262-1.913-1.628-3.128-2.138-2.572-0.765-4.072-0.765-2.858 0.255-4.073 0.765-2.257 1.223-3.127 2.138-1.538 2.002-2.003 3.262-0.697 2.625-0.697 4.095z"/><path d="m177.3 181.76h9.54l13.545 22.14h0.09v-22.14h7.02v31.86h-9.18l-13.905-22.68h-0.09v22.68h-7.02v-31.86z"/><path d="m211.79 181.76h7.65l5.085 20.43h0.09l6.66-20.43h6.525l6.615 20.97h0.09l5.355-20.97h7.11l-9.315 31.86h-6.255l-7.02-22.05h-0.09l-7.02 22.05h-6.03l-9.45-31.86z"/></g><rect height="31.86" width="7.02" stroke="#636363" y="181.76" x="123.2" stroke-width="2px" fill="none"/><path stroke-width="2px" d="m136.97 197.69c0 10.215 7.245 16.74 17.19 16.74s17.19-6.525 17.19-16.74-7.245-16.74-17.19-16.74-17.19 6.525-17.19 16.74zm7.29 0c0-5.94 3.915-10.26 9.9-10.26s9.9 4.32 9.9 10.26-3.915 10.26-9.9 10.26-9.9-4.32-9.9-10.26z" stroke="#636363" fill="none"/><path stroke-width="2px" d="m177.29 213.62h7.02v-22.68h0.09l13.905 22.68h9.18v-31.86h-7.02v22.14h-0.09l-13.545-22.14h-9.54v31.86z" stroke="#636363" fill="none"/><path stroke-width="2px" d="m221.25 213.62h6.03l7.02-22.05h0.09l7.02 22.05h6.255l9.315-31.86h-7.11l-5.355 20.97h-0.09l-6.615-20.97h-6.525l-6.66 20.43h-0.09l-5.085-20.43h-7.65l9.45 31.86z" stroke="#636363" fill="none"/><rect fill-rule="nonzero" height="31.86" width="7.02" y="181.76" x="262.11" fill="#e18c32"/><rect height="31.86" width="7.02" stroke="#636363" y="181.76" x="262.11" stroke-width="2px" fill="none"/><path fill="#e18c32" d="m275.79 181.76h10.53c2.55 0 4.973 0.285 7.268 0.855s4.297 1.493 6.007 2.768 3.068 2.932 4.073 4.972 1.507 4.515 1.507 7.425c0 2.58-0.487 4.853-1.462 6.818s-2.288 3.615-3.938 4.95-3.555 2.347-5.715 3.037-4.425 1.035-6.795 1.035h-11.475v-31.86zm7.02 25.38h3.645c1.62 0 3.128-0.165 4.523-0.495s2.602-0.877 3.622-1.642 1.823-1.77 2.408-3.015 0.877-2.768 0.877-4.568c0-1.56-0.292-2.917-0.877-4.072s-1.373-2.108-2.363-2.858-2.152-1.312-3.487-1.687-2.738-0.563-4.208-0.563h-4.14v18.9z" fill-rule="nonzero"/><path stroke-width="2px" d="m275.79 213.62h11.475c9.495 0 17.91-5.535 17.91-15.84 0-11.655-8.595-16.02-18.855-16.02h-10.53v31.86zm7.02-25.38h4.14c5.94 0 10.935 2.925 10.935 9.18 0 7.245-4.905 9.72-11.43 9.72h-3.645v-18.9z" stroke="#636363" fill="none"/><path fill="#e18c32" d="m310.49 181.76h21.645v6.48h-14.625v5.94h13.815v6.48h-13.815v6.48h15.435v6.48h-22.455v-31.86z" fill-rule="nonzero"/><path stroke-width="2px" d="m310.48 213.62h22.455v-6.48h-15.435v-6.48h13.815v-6.48h-13.815v-5.94h14.625v-6.48h-21.645v31.86z" stroke="#636363" fill="none"/><g fill="#f14948" fill-rule="nonzero"><path d="m25.73 181.76h9.54l13.545 22.14h0.09v-22.14h7.02v31.86h-9.18l-13.905-22.68h-0.09v22.68h-7.02v-31.86z"/><path d="m74.99 181.76h5.805l13.86 31.86h-7.92l-2.745-6.75h-12.375l-2.655 6.75h-7.74l13.77-31.86zm2.7 9.27l-3.87 9.9h7.785l-3.915-9.9z"/><path d="m101.58 187.97h-9.09v-6.21h25.2v6.21h-9.09v25.65h-7.02v-25.65z"/><rect height="31.86" width="7.02" y="181.76" x="123.25"/><path d="m137.05 197.69c0-2.55 0.428-4.86 1.283-6.93s2.047-3.832 3.577-5.287 3.345-2.573 5.445-3.353 4.395-1.17 6.885-1.17 4.785 0.39 6.885 1.17 3.915 1.898 5.445 3.353 2.723 3.217 3.578 5.287 1.282 4.38 1.282 6.93-0.427 4.86-1.282 6.93-2.048 3.833-3.578 5.288-3.345 2.572-5.445 3.352-4.395 1.17-6.885 1.17-4.785-0.39-6.885-1.17-3.915-1.897-5.445-3.352-2.722-3.218-3.577-5.288-1.283-4.38-1.283-6.93zm7.29 0c0 1.5 0.233 2.873 0.698 4.118s1.132 2.325 2.002 3.24 1.913 1.627 3.128 2.137 2.572 0.765 4.072 0.765 2.858-0.255 4.073-0.765 2.257-1.222 3.127-2.137 1.538-1.995 2.003-3.24 0.697-2.618 0.697-4.118c0-1.47-0.232-2.835-0.697-4.095s-1.133-2.347-2.003-3.262-1.912-1.628-3.127-2.138-2.573-0.765-4.073-0.765-2.857 0.255-4.072 0.765-2.258 1.223-3.128 2.138-1.537 2.002-2.002 3.262-0.698 2.625-0.698 4.095z"/><path d="m177.3 181.76h9.54l13.545 22.14h0.09v-22.14h7.02v31.86h-9.18l-13.905-22.68h-0.09v22.68h-7.02v-31.86z"/><path d="m211.8 181.76h7.65l5.085 20.43h0.09l6.66-20.43h6.525l6.615 20.97h0.09l5.355-20.97h7.11l-9.315 31.86h-6.255l-7.02-22.05h-0.09l-7.02 22.05h-6.03l-9.45-31.86z"/><rect height="31.86" width="7.02" y="181.76" x="262.14"/><path d="m275.8 181.76h10.53c2.55 0 4.973 0.285 7.268 0.855s4.297 1.493 6.007 2.768 3.068 2.932 4.073 4.972 1.507 4.515 1.507 7.425c0 2.58-0.487 4.853-1.462 6.818s-2.288 3.615-3.938 4.95-3.555 2.347-5.715 3.037-4.425 1.035-6.795 1.035h-11.475v-31.86zm7.02 25.38h3.645c1.62 0 3.128-0.165 4.523-0.495s2.602-0.877 3.622-1.642 1.823-1.77 2.408-3.015 0.877-2.768 0.877-4.568c0-1.56-0.292-2.917-0.877-4.072s-1.373-2.108-2.363-2.858-2.152-1.312-3.487-1.687-2.738-0.563-4.208-0.563h-4.14v18.9z"/><path d="m310.47 181.76h21.645v6.48h-14.625v5.94h13.815v6.48h-13.815v6.48h15.435v6.48h-22.455v-31.86z"/></g></svg>
