<svg xmlns="http://www.w3.org/2000/svg" width="303" height="82" viewBox="0 0 303 82">
  <path fill="#000000" fill-rule="evenodd" d="M37.8025017,60.1067977 L37.8025017,47.1506257 L18.4502449,47.1506257 L24.7643286,5.16606856 L8.364111,5.16606856 L0,60.1067977 L37.8025017,60.1067977 Z M85.4451339,35.6704734 C85.4451339,25.6663406 79.7050578,19.3522568 67.0768902,19.3522568 C51.2506801,19.3522568 42.4765637,29.6843939 42.4765637,44.8545953 C42.4765637,54.858728 48.1346388,61.0908107 60.7628064,61.0908107 C76.5890164,61.0908107 85.4451339,49.6926595 85.4451339,35.6704734 L85.4451339,35.6704734 Z M65.1908652,31.6524201 C68.5529098,31.6524201 69.700925,33.2924418 69.700925,36.4904843 C69.700925,44.3625887 67.4868956,48.7906475 62.6488314,48.7906475 C59.3687879,48.7906475 58.2207727,47.1506257 58.2207727,44.1165855 C58.2207727,39.1145191 59.2047857,31.6524201 65.1908652,31.6524201 L65.1908652,31.6524201 Z M113.079501,31.6524201 C114.145515,31.6524201 115.29353,31.7344211 116.523546,31.9804244 L114.391518,46.494617 C112.915499,47.5606312 110.865471,48.6266453 109.22545,48.6266453 C106.437413,48.6266453 104.71539,47.3146279 104.71539,43.70658 C104.71539,38.130506 106.929419,31.6524201 113.079501,31.6524201 L113.079501,31.6524201 Z M133.743775,20.7462753 C127.019686,19.6802612 121.197608,19.4342579 116.03154,19.4342579 C98.483307,19.4342579 88.5611753,30.668407 88.5611753,46.9046225 C88.5611753,56.8267542 93.7272439,61.1728118 102.091355,61.1728118 C106.027407,61.1728118 109.471453,59.9427955 112.915499,57.646765 L113.161502,57.7287661 L112.833497,60.2707999 C112.013487,66.7488858 107.093421,68.6349109 101.845352,68.6349109 C97.3352917,68.6349109 92.4972275,67.3228934 89.2991851,66.3388804 L87.0851557,79.2950523 C91.9232199,80.6070697 97.3352917,81.5910828 102.583361,81.5910828 C114.391518,81.5910828 125.461665,76.8350197 127.921698,60.2707999 L133.743775,20.7462753 Z M179.992389,35.6704734 C179.992389,25.6663406 174.252313,19.3522568 161.624145,19.3522568 C145.797935,19.3522568 137.023818,29.6843939 137.023818,44.8545953 C137.023818,54.858728 142.681894,61.0908107 155.310061,61.0908107 C171.136271,61.0908107 179.992389,49.6926595 179.992389,35.6704734 L179.992389,35.6704734 Z M159.73812,31.6524201 C163.100165,31.6524201 164.24818,33.2924418 164.24818,36.4904843 C164.24818,44.3625887 162.03415,48.7906475 157.196086,48.7906475 C153.916043,48.7906475 152.768027,47.1506257 152.768027,44.1165855 C152.768027,39.1145191 153.75204,31.6524201 159.73812,31.6524201 L159.73812,31.6524201 Z M215.170856,0 C204.428713,0 195.080589,5.24806965 193.276565,18.1222405 L192.948561,20.5002721 L185.814466,22.304296 L184.420447,31.9804244 L191.144537,31.9804244 L186.716478,62.7308325 C185.896467,67.8149 182.206418,69.0449163 177.778359,69.0449163 C175.56433,69.0449163 173.104297,68.7169119 170.726266,68.3889076 L168.922242,80.3610665 C172.612291,81.0170752 176.138338,81.4270806 179.418381,81.4270806 C191.39054,81.4270806 200.082655,76.5070153 201.96868,63.3868412 L206.724743,31.9804244 L218.450899,31.9804244 L214.268844,60.1067977 L229.767049,60.1067977 L235.83513,20.3362699 L208.282764,20.3362699 L208.528767,18.7782492 C209.184776,14.5141926 212.218816,12.5461665 215.990866,12.5461665 C223.862971,12.5461665 226.897011,14.5961937 233.539099,14.5961937 C234.687115,14.5961937 235.999132,14.5141926 237.475152,14.3501904 L239.525179,0.820010882 C238.049159,0.984013059 236.57314,1.06601415 234.933118,1.06601415 C228.947038,1.06601415 221.976946,0 215.170856,0 L215.170856,0 Z M253.465364,60.1067977 L262.403482,0.328004353 L259.287441,0.328004353 L246.741275,1.55802068 L238.049159,60.1067977 L253.465364,60.1067977 Z M302.420013,31.1604135 C302.420013,25.9123439 298.237958,19.3522568 286.183798,19.3522568 C269.619578,19.3522568 262.485483,32.6364331 262.485483,43.8705822 C262.485483,55.0227302 269.537577,61.0908107 280.443722,61.0908107 C285.527789,61.0908107 291.021862,60.3528009 297.581949,58.6307781 L297.581949,47.7246334 C293.399894,49.282654 289.38184,50.184666 287.003809,50.184666 C282.411748,50.184666 278.393695,49.9386627 278.229692,45.1005985 C290.283852,44.9365964 302.420013,43.6245789 302.420013,31.1604135 L302.420013,31.1604135 Z M284.379774,29.766395 C286.511802,29.766395 287.413814,31.1604135 287.413814,32.7184342 C287.413814,35.4244701 285.035783,37.0644919 278.06569,37.3924962 C278.885701,33.0464386 281.017729,29.766395 284.379774,29.766395 L284.379774,29.766395 Z"/>
</svg>
