<?xml version="1.0" encoding="UTF-8" standalone="no"?><!DOCTYPE svg PUBLIC "-//W3C//DTD SVG 1.1//EN" "http://www.w3.org/Graphics/SVG/1.1/DTD/svg11.dtd"><svg width="100%" height="100%" viewBox="0 0 201 173" version="1.1" xmlns="http://www.w3.org/2000/svg" xmlns:xlink="http://www.w3.org/1999/xlink" xml:space="preserve" style="fill-rule:evenodd;clip-rule:evenodd;stroke-linejoin:round;stroke-miterlimit:1.41421;"><clipPath id="_clip1"><rect id="napslo-logo" x="0" y="0" width="200" height="172"/></clipPath><g clip-path="url(#_clip1)"><g><path d="M98.846,37.894c16.789,0 31.549,8.851 39.858,22.134l8.453,0l-0.001,-0.003c-9.036,-17.495 -27.3,-29.483 -48.31,-29.483c-21.013,0 -39.276,11.989 -48.312,29.486l8.454,0c8.309,-13.283 23.068,-22.134 39.858,-22.134Z" style="fill:#ffffff;fill-rule:nonzero;"/><path d="M98.677,27.633c22.731,-0.001 42.43,13.231 51.8,32.395l20.742,0l-0.017,-0.051c-10.473,-29.968 -39.03,-51.523 -72.525,-51.522c-33.515,0 -62.084,21.579 -72.544,51.573l20.746,0c9.369,-19.164 29.067,-32.395 51.798,-32.395Z" style="fill:#ffffff;fill-rule:nonzero;"/><path d="M98.597,5.424c35.282,-0.001 65.318,22.892 76.033,54.604l5.38,0c-10.906,-34.577 -43.278,-59.718 -81.413,-59.718c-38.126,0 -70.494,25.131 -81.407,59.696l-0.004,0.022l5.379,0c10.715,-31.712 40.751,-54.605 76.032,-54.604Z" style="fill:#ffffff;fill-rule:nonzero;"/><path d="M98.865,133.786c16.79,0 31.549,-8.852 39.859,-22.135l8.452,0l-0.001,0.003c-9.036,17.495 -27.298,29.484 -48.31,29.484c-21.011,0 -39.275,-11.99 -48.31,-29.487l8.452,0c8.31,13.281 23.07,22.135 39.858,22.135Z" style="fill:#ffffff;fill-rule:nonzero;"/><path d="M98.697,144.047c22.731,0 42.429,-13.232 51.799,-32.396l20.743,0l-0.018,0.051c-10.472,29.968 -39.028,51.523 -72.524,51.523c-33.515,0 -62.084,-21.581 -72.543,-51.574l20.744,0c9.37,19.164 29.069,32.396 51.799,32.396Z" style="fill:#ffffff;fill-rule:nonzero;"/><path d="M98.617,166.256c35.283,0 65.318,-22.893 76.033,-54.605l5.381,0c-10.906,34.578 -43.28,59.719 -81.414,59.719c-38.126,0 -70.494,-25.131 -81.408,-59.698l-0.002,-0.021l5.378,0c10.716,31.712 40.751,54.605 76.032,54.605Z" style="fill:#ffffff;fill-rule:nonzero;"/><path d="M0,71.892l5.628,0l13.003,17.087l0,-17.087l6.026,0l0,27.75l-5.193,0l-13.44,-17.64l0,17.64l-6.024,0l0,-27.75Z" style="fill:#ffffff;fill-rule:nonzero;"/><path d="M54.143,88.028l-3.687,-9l-3.686,9l7.373,0ZM47.721,71.694l5.63,0l11.893,27.948l-6.383,0l-2.538,-6.224l-11.733,0l-2.538,6.224l-6.224,0l11.893,-27.948Z" style="fill:#ffffff;fill-rule:nonzero;"/><path d="M87.356,85.887c3.052,0 4.837,-1.824 4.837,-4.202l0,-0.08c0,-2.736 -1.903,-4.202 -4.956,-4.202l-4.718,0l0,8.484l4.837,0ZM76.415,71.892l11.337,0c6.621,0 10.625,3.926 10.625,9.595l0,0.079c0,6.422 -4.995,9.751 -11.219,9.751l-4.639,0l0,8.325l-6.104,0l0,-27.75Z" style="fill:#ffffff;fill-rule:nonzero;"/><path d="M107.884,95.599l3.608,-4.321c2.497,2.062 5.114,3.37 8.285,3.37c2.497,0 4.004,-0.991 4.004,-2.617l0,-0.08c0,-1.545 -0.951,-2.338 -5.589,-3.527c-5.59,-1.427 -9.197,-2.973 -9.197,-8.484l0,-0.078c0,-5.035 4.043,-8.366 9.712,-8.366c4.043,0 7.492,1.268 10.307,3.529l-3.172,4.597c-2.458,-1.704 -4.876,-2.734 -7.214,-2.734c-2.339,0 -3.567,1.071 -3.567,2.417l0,0.081c0,1.822 1.187,2.418 5.984,3.646c5.63,1.468 8.802,3.489 8.802,8.325l0,0.079c0,5.511 -4.203,8.603 -10.189,8.603c-4.202,0 -8.443,-1.466 -11.774,-4.44Z" style="fill:#ffffff;fill-rule:nonzero;"/><path d="M142.05,71.892l6.104,0l0,22.201l13.836,0l0,5.549l-19.94,0l0,-27.75Z" style="fill:#ffffff;fill-rule:nonzero;"/><path d="M193.619,85.846l0,-0.078c0,-4.757 -3.489,-8.722 -8.405,-8.722c-4.915,0 -8.325,3.886 -8.325,8.642l0,0.08c0,4.758 3.489,8.72 8.404,8.72c4.916,0 8.326,-3.884 8.326,-8.642ZM170.507,85.846l0,-0.078c0,-7.889 6.224,-14.351 14.786,-14.351c8.564,0 14.707,6.382 14.707,14.271l0,0.08c0,7.889 -6.223,14.351 -14.786,14.351c-8.563,0 -14.707,-6.384 -14.707,-14.273Z" style="fill:#ffffff;fill-rule:nonzero;"/></g></g></svg>