<?xml version="1.0" encoding="UTF-8" standalone="no"?>
<!DOCTYPE svg  PUBLIC '-//W3C//DTD SVG 1.1//EN'  'http://www.w3.org/Graphics/SVG/1.1/DTD/svg11.dtd'>
<svg xmlns="http://www.w3.org/2000/svg" fill-rule="evenodd" xml:space="preserve" height="100%" width="100%" version="1.1" clip-rule="evenodd" xmlns:xlink="http://www.w3.org/1999/xlink" viewBox="0 0 360 360"><g fill="#636363" fill-rule="nonzero"><path d="m92.08 231.27h10.686c1.404 0 2.737 0.136 3.998 0.409s2.366 0.728 3.315 1.365 1.703 1.495 2.262 2.574 0.838 2.425 0.838 4.037c0 1.95-0.507 3.607-1.521 4.972s-2.496 2.23-4.446 2.594l7.02 11.661h-7.293l-5.772-11.037h-3.002l-0.001 11.037h-6.083v-27.612zm6.084 11.43h3.588c0.546 0 1.125-0.02 1.736-0.059s1.163-0.156 1.657-0.351 0.904-0.5 1.229-0.916 0.487-1.001 0.487-1.755c0-0.702-0.143-1.261-0.429-1.677s-0.65-0.735-1.092-0.956-0.949-0.37-1.521-0.448-1.131-0.117-1.677-0.117h-3.978v6.279z"/><path d="m131.14 231.27h5.031l12.012 27.612h-6.864l-2.379-5.85h-10.725l-2.301 5.85h-6.708l11.934-27.612zm2.34 8.03l-3.354 8.58h6.747l-3.393-8.58z"/><path d="m154.71 236.65h-7.878v-5.382h21.84v5.382h-7.878v22.23h-6.084v-22.23z"/><rect height="27.612" width="6.084" y="231.27" x="174.82"/><path d="m187.99 231.27h8.268l11.739 19.188h0.078v-19.188h6.084v27.612h-7.956l-12.051-19.656h-0.078v19.656h-6.084v-27.612z"/><path d="m246.33 256.93c-1.794 0.936-3.666 1.612-5.616 2.028s-3.939 0.624-5.967 0.624c-2.157 0-4.147-0.338-5.966-1.014-1.82-0.676-3.393-1.645-4.719-2.906-1.327-1.261-2.36-2.788-3.101-4.582s-1.112-3.796-1.112-6.006 0.371-4.212 1.112-6.006 1.774-3.322 3.101-4.583c1.326-1.261 2.899-2.229 4.719-2.905s3.809-1.014 5.966-1.014c2.21 0 4.245 0.266 6.104 0.799s3.49 1.45 4.894 2.75l-4.29 4.68c-0.832-0.858-1.768-1.508-2.808-1.95s-2.34-0.663-3.9-0.663c-1.3 0-2.476 0.221-3.529 0.663s-1.957 1.059-2.711 1.852-1.332 1.736-1.735 2.828-0.605 2.275-0.605 3.549c0 1.3 0.202 2.489 0.605 3.568s0.981 2.015 1.736 2.808c0.754 0.793 1.657 1.411 2.71 1.853s2.23 0.663 3.529 0.663c1.327 0 2.471-0.15 3.433-0.449s1.728-0.604 2.3-0.916v-4.485h-4.953v-5.616h10.803v14.43z"/><path d="m268.42 238.02c-0.494-0.624-1.163-1.086-2.008-1.385s-1.645-0.448-2.399-0.448c-0.442 0-0.897 0.052-1.365 0.156s-0.91 0.266-1.326 0.487-0.754 0.514-1.014 0.878-0.389 0.806-0.389 1.326c0 0.832 0.311 1.469 0.935 1.911 0.625 0.442 1.411 0.819 2.36 1.131s1.969 0.624 3.061 0.936 2.113 0.754 3.062 1.326 1.736 1.339 2.359 2.301c0.625 0.962 0.937 2.249 0.937 3.861 0 1.534-0.286 2.873-0.858 4.017s-1.346 2.093-2.321 2.847-2.106 1.313-3.393 1.677-2.646 0.546-4.075 0.546c-1.795 0-3.459-0.273-4.993-0.819s-2.964-1.43-4.29-2.652l4.329-4.758c0.625 0.832 1.411 1.475 2.36 1.93s1.93 0.683 2.945 0.683c0.493 0 0.994-0.059 1.501-0.176s0.962-0.292 1.365-0.526 0.728-0.533 0.975-0.897 0.37-0.793 0.37-1.287c0-0.832-0.318-1.489-0.955-1.97s-1.437-0.89-2.399-1.228-2.002-0.676-3.12-1.014-2.158-0.793-3.12-1.365-1.761-1.326-2.398-2.262-0.956-2.171-0.956-3.705c0-1.482 0.293-2.782 0.878-3.9s1.365-2.054 2.34-2.808 2.099-1.32 3.373-1.697 2.587-0.565 3.94-0.565c1.56 0 3.067 0.221 4.524 0.663 1.456 0.442 2.769 1.183 3.938 2.223l-4.173 4.563z"/></g><g fill="#e18c32" fill-rule="nonzero"><path d="m89.078 229.28h10.685c1.404 0 2.737 0.136 3.998 0.409s2.366 0.728 3.315 1.365 1.703 1.495 2.262 2.574 0.838 2.425 0.838 4.037c0 1.95-0.507 3.607-1.521 4.972s-2.496 2.23-4.446 2.594l7.02 11.661h-7.293l-5.772-11.037h-3.002l-0.001 11.037h-6.083v-27.612zm6.083 11.43h3.588c0.546 0 1.125-0.02 1.736-0.059s1.163-0.156 1.657-0.351 0.904-0.5 1.229-0.916 0.487-1.001 0.487-1.755c0.001-0.702-0.142-1.261-0.428-1.677-0.287-0.416-0.65-0.735-1.093-0.956-0.441-0.221-0.948-0.37-1.52-0.448-0.573-0.078-1.132-0.117-1.677-0.117h-3.978l-0.001 6.279z"/><path d="m128.14 229.27h5.03l12.012 27.612h-6.863l-2.38-5.85h-10.725l-2.301 5.85h-6.708l11.935-27.612zm2.34 8.03l-3.353 8.58h6.747l-3.394-8.58z"/></g><path stroke-width="2px" d="m89.078 256.88h6.084v-11.037h3.003l5.772 11.037h7.293l-7.019-11.661c3.899-0.702 5.967-3.705 5.967-7.566 0-6.435-4.758-8.385-10.413-8.385h-10.687v27.612zm6.084-22.46h3.979c2.222 0 4.718 0.429 4.718 3.198 0 3.003-2.885 3.081-5.108 3.081h-3.589v-6.279z" stroke="#636363" fill="none"/><path stroke-width="2px" d="m116.18 256.88h6.708l2.301-5.85h10.725l2.379 5.85h6.865l-12.013-27.612h-5.031l-11.934 27.612zm17.67-11h-6.747l3.354-8.58 3.393 8.58z" stroke="#636363" fill="none"/><path fill="#e18c32" d="m151.71 234.65h-7.879v-5.382h21.84v5.382h-7.878v22.23h-6.083v-22.23z" fill-rule="nonzero"/><path stroke-width="2px" d="m151.71 256.88h6.084v-22.23h7.878v-5.382h-21.84v5.382h7.878v22.23z" stroke="#636363" fill="none"/><g fill-rule="nonzero" fill="#e18c32"><rect height="27.612" width="6.084" y="229.27" x="171.8"/><path d="m184.97 229.27h8.268l11.739 19.188h0.078v-19.188h6.084v27.612h-7.956l-12.051-19.656h-0.078v19.656h-6.084v-27.612z"/><path d="m243.3 254.93c-1.794 0.936-3.666 1.612-5.616 2.028s-3.939 0.624-5.967 0.624c-2.158 0-4.147-0.338-5.967-1.014s-3.393-1.645-4.719-2.906-2.359-2.788-3.1-4.582-1.112-3.796-1.112-6.006 0.371-4.212 1.112-6.006 1.774-3.322 3.1-4.583 2.899-2.229 4.719-2.905 3.809-1.014 5.967-1.014c2.21 0 4.245 0.266 6.104 0.799s3.49 1.45 4.894 2.75l-4.29 4.68c-0.832-0.858-1.768-1.508-2.808-1.95s-2.34-0.663-3.9-0.663c-1.3 0-2.476 0.221-3.529 0.663s-1.957 1.059-2.711 1.852-1.332 1.736-1.735 2.828-0.605 2.275-0.605 3.549c0 1.3 0.202 2.489 0.605 3.568s0.981 2.015 1.735 2.808 1.658 1.411 2.711 1.853 2.229 0.663 3.529 0.663c1.326 0 2.47-0.15 3.432-0.449s1.729-0.604 2.301-0.916v-4.485h-4.953v-5.616h10.803v14.43z"/><path d="m265.44 236.02c-0.494-0.624-1.163-1.086-2.008-1.385s-1.645-0.448-2.399-0.448c-0.442 0-0.897 0.052-1.365 0.156s-0.91 0.266-1.326 0.487-0.754 0.514-1.014 0.878-0.39 0.806-0.39 1.326c0 0.832 0.312 1.469 0.936 1.911s1.411 0.819 2.36 1.131 1.969 0.624 3.061 0.936 2.113 0.754 3.062 1.326 1.735 1.339 2.359 2.301 0.936 2.249 0.936 3.861c0 1.534-0.286 2.873-0.858 4.017s-1.345 2.093-2.32 2.847-2.106 1.313-3.393 1.677-2.646 0.546-4.076 0.546c-1.794 0-3.458-0.273-4.992-0.819s-2.964-1.43-4.29-2.652l4.329-4.758c0.624 0.832 1.411 1.475 2.36 1.93s1.93 0.683 2.944 0.683c0.494 0 0.995-0.059 1.502-0.176s0.962-0.292 1.365-0.526 0.728-0.533 0.975-0.897 0.37-0.793 0.37-1.287c0-0.832-0.318-1.489-0.955-1.97s-1.437-0.89-2.399-1.228-2.002-0.676-3.12-1.014-2.158-0.793-3.12-1.365-1.761-1.326-2.398-2.262-0.956-2.171-0.956-3.705c0-1.482 0.293-2.782 0.878-3.9s1.365-2.054 2.34-2.808 2.099-1.32 3.373-1.697 2.587-0.565 3.939-0.565c1.56 0 3.068 0.221 4.524 0.663s2.769 1.183 3.939 2.223l-4.173 4.563z"/></g><rect height="27.612" width="6.084" stroke="#636363" y="229.27" x="171.8" stroke-width="2px" fill="none"/><path stroke-width="2px" d="m184.98 256.88h6.083v-19.656h0.078l12.052 19.656h7.956v-27.612h-6.084v19.188h-0.077l-11.739-19.188h-8.269v27.612z" stroke="#636363" fill="none"/><path stroke-width="2px" d="m243.32 240.5h-10.803v5.616h4.953v4.485c-1.13 0.624-3.081 1.365-5.733 1.365-5.187 0-8.58-3.744-8.58-8.892s3.393-8.892 8.58-8.892c3.081 0 5.07 0.897 6.708 2.613l4.29-4.68c-2.769-2.574-6.63-3.549-10.998-3.549-8.618 0-14.897 5.655-14.897 14.508s6.279 14.508 14.897 14.508c4.057 0 7.995-0.78 11.583-2.652v-14.43z" stroke="#636363" fill="none"/><path stroke-width="2px" d="m269.61 231.45c-2.34-2.067-5.343-2.886-8.463-2.886-5.421 0-10.53 3.081-10.53 8.97 0 9.204 12.948 6.474 12.948 11.544 0 1.95-2.223 2.886-4.212 2.886-2.028 0-4.056-0.975-5.304-2.613l-4.329 4.758c2.613 2.418 5.733 3.471 9.283 3.471 5.693 0 10.646-2.925 10.646-9.087 0-9.672-12.714-6.435-12.714-11.466 0-2.067 2.379-2.847 4.095-2.847 1.482 0 3.433 0.585 4.407 1.833l4.173-4.563z" stroke="#636363" fill="none"/><g fill="#e18c32" fill-rule="nonzero"><path d="m89.079 229.27h10.685c1.404 0 2.737 0.136 3.998 0.409s2.366 0.728 3.315 1.365 1.703 1.495 2.262 2.574 0.838 2.425 0.838 4.037c0 1.95-0.507 3.607-1.521 4.972s-2.496 2.23-4.446 2.594l7.02 11.661h-7.293l-5.772-11.037h-3.002l-0.001 11.037h-6.083v-27.612zm6.084 11.43h3.588c0.546 0 1.124-0.02 1.735-0.059s1.164-0.156 1.658-0.351c0.493-0.195 0.903-0.5 1.228-0.916s0.488-1.001 0.488-1.755c0-0.702-0.143-1.261-0.429-1.677s-0.65-0.735-1.092-0.956-0.949-0.37-1.521-0.448-1.131-0.117-1.677-0.117h-3.978v6.279z"/><path d="m128.14 229.27h5.03l12.012 27.612h-6.863l-2.38-5.85h-10.725l-2.301 5.85h-6.708l11.935-27.612zm2.34 8.03l-3.355 8.58h6.747l-3.392-8.58z"/><path d="m151.7 234.65h-7.879v-5.382h21.84v5.382h-7.878v22.23h-6.084v-22.23z"/><rect height="27.612" width="6.084" y="229.27" x="171.82"/><path d="m184.99 229.27h8.268l11.739 19.188h0.078v-19.188h6.084v27.612h-7.956l-12.051-19.656h-0.078v19.656h-6.084v-27.612z"/><path d="m243.32 254.93c-1.794 0.936-3.666 1.612-5.616 2.028s-3.939 0.624-5.967 0.624c-2.157 0-4.147-0.338-5.966-1.014-1.82-0.676-3.393-1.645-4.719-2.906-1.327-1.261-2.36-2.788-3.101-4.582s-1.112-3.796-1.112-6.006 0.371-4.212 1.112-6.006 1.774-3.322 3.101-4.583c1.326-1.261 2.899-2.229 4.719-2.905s3.809-1.014 5.966-1.014c2.21 0 4.245 0.266 6.104 0.799s3.49 1.45 4.894 2.75l-4.29 4.68c-0.832-0.858-1.768-1.508-2.808-1.95s-2.34-0.663-3.9-0.663c-1.3 0-2.476 0.221-3.529 0.663s-1.957 1.059-2.711 1.852-1.332 1.736-1.735 2.828-0.605 2.275-0.605 3.549c0 1.3 0.202 2.489 0.605 3.568s0.981 2.015 1.736 2.808c0.754 0.793 1.657 1.411 2.71 1.853s2.23 0.663 3.529 0.663c1.327 0 2.47-0.15 3.433-0.449 0.962-0.299 1.728-0.604 2.3-0.916v-4.485h-4.953v-5.616h10.803v14.43z"/><path d="m265.42 236.02c-0.494-0.624-1.164-1.086-2.009-1.385s-1.644-0.448-2.398-0.448c-0.442 0-0.897 0.052-1.365 0.156s-0.91 0.266-1.326 0.487-0.754 0.514-1.014 0.878-0.39 0.806-0.39 1.326c0 0.832 0.312 1.469 0.936 1.911s1.41 0.819 2.359 1.131 1.97 0.624 3.062 0.936 2.112 0.754 3.061 1.326 1.736 1.339 2.36 2.301 0.936 2.249 0.936 3.861c0 1.534-0.286 2.873-0.858 4.017s-1.346 2.093-2.321 2.847-2.106 1.313-3.393 1.677-2.645 0.546-4.075 0.546c-1.794 0-3.458-0.273-4.992-0.819s-2.964-1.43-4.29-2.652l4.329-4.758c0.624 0.832 1.41 1.475 2.359 1.93s1.931 0.683 2.945 0.683c0.494 0 0.994-0.059 1.501-0.176s0.962-0.292 1.365-0.526 0.728-0.533 0.975-0.897 0.371-0.793 0.371-1.287c0-0.832-0.319-1.489-0.956-1.97s-1.436-0.89-2.398-1.228-2.002-0.676-3.12-1.014-2.158-0.793-3.12-1.365-1.762-1.326-2.399-2.262-0.955-2.171-0.955-3.705c0-1.482 0.292-2.782 0.877-3.9s1.365-2.054 2.34-2.808 2.1-1.32 3.374-1.697 2.587-0.565 3.939-0.565c1.56 0 3.068 0.221 4.524 0.663s2.769 1.183 3.939 2.223l-4.173 4.563z"/></g><path fill="#636363" d="m178.01 138.8h14.249l34.021 78.203h-19.441l-6.737-16.568h-30.376l-6.517 16.568h-18.998l33.799-78.203zm6.63 22.75l-9.5 24.3h19.109l-9.609-24.3z" fill-rule="nonzero"/><g fill="#636363" fill-rule="nonzero"><path d="m59.218 86.008h3.06l2.034 8.172h0.036l2.664-8.172h2.61l2.646 8.388h0.036l2.142-8.388h2.844l-3.726 12.744h-2.502l-2.808-8.82h-0.036l-2.808 8.82h-2.412l-3.78-12.744z"/><path d="m79.008 86.008h8.658v2.592h-5.85v2.376h5.526v2.592h-5.526v2.592h6.174v2.592h-8.982v-12.744z"/><path d="m95.676 87.778c0-1.757 0.295-3.348 0.884-4.774s1.41-2.64 2.464-3.642c1.054-1.003 2.305-1.773 3.751-2.31 1.447-0.537 3.028-0.806 4.743-0.806 1.716 0 3.297 0.269 4.743 0.806 1.447 0.537 2.697 1.307 3.751 2.31 1.054 1.002 1.876 2.216 2.465 3.642s0.883 3.017 0.883 4.774-0.294 3.348-0.883 4.774-1.411 2.64-2.465 3.642c-1.054 1.003-2.304 1.773-3.751 2.31-1.446 0.537-3.027 0.806-4.743 0.806-1.715 0-3.296-0.269-4.743-0.806-1.446-0.537-2.697-1.307-3.751-2.31-1.054-1.002-1.875-2.216-2.464-3.642s-0.884-3.017-0.884-4.774zm5.024 0c0 1.033 0.161 1.979 0.481 2.837 0.32 0.857 0.78 1.601 1.379 2.231 0.6 0.631 1.318 1.122 2.155 1.473s1.772 0.527 2.805 0.527c1.034 0 1.969-0.176 2.806-0.527s1.555-0.842 2.154-1.472c0.6-0.631 1.06-1.375 1.38-2.233 0.32-0.857 0.48-1.803 0.48-2.836 0-1.013-0.16-1.953-0.48-2.821s-0.78-1.617-1.38-2.248c-0.599-0.63-1.317-1.121-2.154-1.472s-1.772-0.527-2.806-0.527c-1.033 0-1.968 0.176-2.805 0.527s-1.555 0.842-2.155 1.472c-0.599 0.631-1.059 1.38-1.379 2.248s-0.481 1.808-0.481 2.821z"/><path d="m122.05 76.804h6.572l9.331 15.252h0.062v-15.252h4.836v21.948h-6.324l-9.579-15.624h-0.062v15.624h-4.836v-21.948z"/><path d="m147.5 76.804h4.836v17.484h8.959v4.464h-13.795v-21.948z"/><path d="m166.26 89.39l-8.246-12.586h6.014l4.65 8.215 4.929-8.215h5.735l-8.246 12.586v9.362h-4.836v-9.362z"/><path d="m184.02 86.008h3.06l2.034 8.172h0.036l2.664-8.172h2.61l2.646 8.388h0.036l2.142-8.388h2.844l-3.726 12.744h-2.502l-2.808-8.82h-0.036l-2.808 8.82h-2.412l-3.78-12.744z"/><path d="m203.36 92.38c0-1.02 0.171-1.944 0.513-2.772s0.819-1.533 1.431-2.115 1.338-1.029 2.178-1.341 1.758-0.468 2.754-0.468 1.914 0.156 2.754 0.468 1.566 0.759 2.178 1.341 1.089 1.287 1.431 2.115 0.513 1.752 0.513 2.772-0.171 1.944-0.513 2.772-0.819 1.533-1.431 2.115-1.338 1.029-2.178 1.341-1.758 0.468-2.754 0.468-1.914-0.156-2.754-0.468-1.566-0.759-2.178-1.341-1.089-1.287-1.431-2.115-0.513-1.752-0.513-2.772zm2.92 0c0 0.6 0.093 1.149 0.279 1.647s0.453 0.93 0.801 1.296 0.765 0.651 1.251 0.855 1.029 0.306 1.629 0.306 1.143-0.102 1.629-0.306 0.903-0.489 1.251-0.855 0.615-0.798 0.801-1.296 0.279-1.047 0.279-1.647c0-0.588-0.093-1.134-0.279-1.638s-0.453-0.939-0.801-1.305-0.765-0.651-1.251-0.855-1.029-0.306-1.629-0.306-1.143 0.102-1.629 0.306-0.903 0.489-1.251 0.855-0.615 0.801-0.801 1.305-0.279 1.05-0.279 1.638z"/><path d="m219.72 86.008h4.932c0.648 0 1.263 0.063 1.845 0.189s1.092 0.336 1.53 0.63 0.786 0.69 1.044 1.188 0.387 1.119 0.387 1.863c0 0.9-0.234 1.665-0.702 2.295s-1.152 1.029-2.052 1.197l3.24 5.382h-3.366l-2.664-5.094h-1.386v5.094h-2.808v-12.744zm2.81 5.274h1.656c0.252 0 0.519-0.009 0.801-0.027s0.537-0.072 0.765-0.162 0.417-0.231 0.567-0.423 0.225-0.462 0.225-0.81c0-0.324-0.066-0.582-0.198-0.774s-0.3-0.339-0.504-0.441-0.438-0.171-0.702-0.207-0.522-0.054-0.774-0.054h-1.836v2.898z"/><path d="m232.2 86.008h2.808v5.292l4.95-5.292h3.672l-5.67 5.922 6.156 6.822h-3.924l-5.184-6.048v6.048h-2.808v-12.744z"/><path d="m250.58 86.008h3.06l2.034 8.172h0.036l2.664-8.172h2.61l2.646 8.388h0.036l2.142-8.388h2.844l-3.726 12.744h-2.502l-2.808-8.82h-0.036l-2.808 8.82h-2.412l-3.78-12.744z"/><rect height="12.744" width="2.808" y="86.008" x="270.58"/><path d="m279.1 88.492h-3.636v-2.484h10.08v2.484h-3.636v10.26h-2.808v-10.26z"/><path d="m287.67 86.008h2.808v4.752h5.454v-4.752h2.808v12.744h-2.808v-5.508h-5.454v5.508h-2.808v-12.744z"/></g><g fill-rule="nonzero" fill="#636363"><rect height="12.744" width="2.808" y="107.61" x="43.119"/><path d="m48.483 107.61h3.816l5.418 8.856h0.036v-8.856h2.808v12.744h-3.672l-5.562-9.072h-0.036v9.072h-2.808v-12.744z"/><path d="m69.453 110.72c-0.228-0.288-0.537-0.501-0.927-0.639s-0.759-0.207-1.107-0.207c-0.204 0-0.414 0.024-0.63 0.072s-0.42 0.123-0.612 0.225-0.348 0.237-0.468 0.405-0.18 0.372-0.18 0.612c0 0.384 0.144 0.678 0.432 0.882s0.651 0.378 1.089 0.522 0.909 0.288 1.413 0.432 0.975 0.348 1.413 0.612 0.801 0.618 1.089 1.062 0.432 1.038 0.432 1.782c0 0.708-0.132 1.326-0.396 1.854s-0.621 0.966-1.071 1.314-0.972 0.606-1.566 0.774-1.221 0.252-1.881 0.252c-0.828 0-1.596-0.126-2.304-0.378s-1.368-0.66-1.98-1.224l1.998-2.196c0.288 0.384 0.651 0.681 1.089 0.891s0.891 0.315 1.359 0.315c0.228 0 0.459-0.027 0.693-0.081s0.444-0.135 0.63-0.243 0.336-0.246 0.45-0.414 0.171-0.366 0.171-0.594c0-0.384-0.147-0.687-0.441-0.909s-0.663-0.411-1.107-0.567-0.924-0.312-1.44-0.468-0.996-0.366-1.44-0.63-0.813-0.612-1.107-1.044-0.441-1.002-0.441-1.71c0-0.684 0.135-1.284 0.405-1.8s0.63-0.948 1.08-1.296 0.969-0.609 1.557-0.783 1.194-0.261 1.818-0.261c0.72 0 1.416 0.102 2.088 0.306s1.278 0.546 1.818 1.026l-1.926 2.106z"/><path d="m84.231 115.44c0 0.756-0.114 1.452-0.342 2.088s-0.567 1.188-1.017 1.656-1.011 0.834-1.683 1.098-1.446 0.396-2.322 0.396c-0.888 0-1.668-0.132-2.34-0.396s-1.233-0.63-1.683-1.098-0.789-1.02-1.017-1.656-0.342-1.332-0.342-2.088v-7.83h2.808v7.722c0 0.396 0.063 0.762 0.189 1.098s0.303 0.627 0.531 0.873 0.501 0.438 0.819 0.576 0.663 0.207 1.035 0.207 0.714-0.069 1.026-0.207 0.582-0.33 0.81-0.576 0.405-0.537 0.531-0.873 0.189-0.702 0.189-1.098v-7.722h2.808v7.83z"/><path d="m86.823 107.61h4.932c0.648 0 1.263 0.063 1.845 0.189s1.092 0.336 1.53 0.63 0.786 0.69 1.044 1.188 0.387 1.119 0.387 1.863c0 0.9-0.234 1.665-0.702 2.295s-1.152 1.029-2.052 1.197l3.24 5.382h-3.366l-2.664-5.094h-1.386v5.094h-2.808v-12.744zm2.808 5.27h1.656c0.252 0 0.519-0.009 0.801-0.027s0.537-0.072 0.765-0.162 0.417-0.231 0.567-0.423 0.225-0.462 0.225-0.81c0-0.324-0.066-0.582-0.198-0.774s-0.3-0.339-0.504-0.441-0.438-0.171-0.702-0.207-0.522-0.054-0.774-0.054h-1.836v2.898z"/><path d="m102.68 107.61h2.322l5.544 12.744h-3.168l-1.098-2.7h-4.95l-1.062 2.7h-3.096l5.508-12.744zm1.08 3.71l-1.548 3.96h3.114l-1.566-3.96z"/><path d="m111.82 107.61h3.816l5.418 8.856h0.036v-8.856h2.808v12.744h-3.672l-5.562-9.072h-0.036v9.072h-2.808v-12.744z"/><path d="m134.83 110.92c-0.276-0.336-0.615-0.594-1.017-0.774s-0.867-0.27-1.395-0.27-1.017 0.102-1.467 0.306-0.84 0.489-1.17 0.855-0.588 0.801-0.774 1.305-0.279 1.05-0.279 1.638c0 0.6 0.093 1.149 0.279 1.647s0.441 0.93 0.765 1.296 0.705 0.651 1.143 0.855 0.909 0.306 1.413 0.306c0.576 0 1.086-0.12 1.53-0.36s0.81-0.576 1.098-1.008l2.34 1.746c-0.54 0.756-1.224 1.314-2.052 1.674s-1.68 0.54-2.556 0.54c-0.996 0-1.914-0.156-2.754-0.468s-1.566-0.759-2.178-1.341-1.089-1.287-1.431-2.115-0.513-1.752-0.513-2.772 0.171-1.944 0.513-2.772 0.819-1.533 1.431-2.115 1.338-1.029 2.178-1.341 1.758-0.468 2.754-0.468c0.36 0 0.735 0.033 1.125 0.099s0.774 0.171 1.152 0.315 0.741 0.336 1.089 0.576 0.66 0.534 0.936 0.882l-2.16 1.764z"/><path d="m138.93 107.61h8.658v2.592h-5.85v2.376h5.526v2.592h-5.526v2.592h6.174v2.592h-8.982v-12.744z"/><path d="m163.83 110.92c-0.276-0.336-0.615-0.594-1.017-0.774s-0.867-0.27-1.395-0.27-1.017 0.102-1.467 0.306-0.84 0.489-1.17 0.855-0.588 0.801-0.774 1.305-0.279 1.05-0.279 1.638c0 0.6 0.093 1.149 0.279 1.647s0.441 0.93 0.765 1.296 0.705 0.651 1.143 0.855 0.909 0.306 1.413 0.306c0.576 0 1.086-0.12 1.53-0.36s0.81-0.576 1.098-1.008l2.34 1.746c-0.54 0.756-1.224 1.314-2.052 1.674s-1.68 0.54-2.556 0.54c-0.996 0-1.914-0.156-2.754-0.468s-1.566-0.759-2.178-1.341-1.089-1.287-1.431-2.115-0.513-1.752-0.513-2.772 0.171-1.944 0.513-2.772 0.819-1.533 1.431-2.115 1.338-1.029 2.178-1.341 1.758-0.468 2.754-0.468c0.36 0 0.735 0.033 1.125 0.099s0.774 0.171 1.152 0.315 0.741 0.336 1.089 0.576 0.66 0.534 0.936 0.882l-2.16 1.764z"/><path d="m167.14 113.98c0-1.02 0.171-1.944 0.513-2.772s0.819-1.533 1.431-2.115 1.338-1.029 2.178-1.341 1.758-0.468 2.754-0.468 1.914 0.156 2.754 0.468 1.566 0.759 2.178 1.341 1.089 1.287 1.431 2.115 0.513 1.752 0.513 2.772-0.171 1.944-0.513 2.772-0.819 1.533-1.431 2.115-1.338 1.029-2.178 1.341-1.758 0.468-2.754 0.468-1.914-0.156-2.754-0.468-1.566-0.759-2.178-1.341-1.089-1.287-1.431-2.115-0.513-1.752-0.513-2.772zm2.92 0c0 0.6 0.093 1.149 0.279 1.647s0.453 0.93 0.801 1.296 0.765 0.651 1.251 0.855 1.029 0.306 1.629 0.306 1.143-0.102 1.629-0.306 0.903-0.489 1.251-0.855 0.615-0.798 0.801-1.296 0.279-1.047 0.279-1.647c0-0.588-0.093-1.134-0.279-1.638s-0.453-0.939-0.801-1.305-0.765-0.651-1.251-0.855-1.029-0.306-1.629-0.306-1.143 0.102-1.629 0.306-0.903 0.489-1.251 0.855-0.615 0.801-0.801 1.305-0.279 1.05-0.279 1.638z"/><path d="m182.8 107.61h4.248l2.934 8.316h0.036l2.952-8.316h4.23v12.744h-2.808v-9.774h-0.036l-3.348 9.774h-2.142l-3.222-9.774h-0.036v9.774h-2.808v-12.744z"/><path d="m199.79 107.61h4.734c0.66 0 1.284 0.06 1.872 0.18s1.101 0.327 1.539 0.621 0.786 0.69 1.044 1.188 0.387 1.125 0.387 1.881c0 0.744-0.12 1.368-0.36 1.872s-0.57 0.906-0.99 1.206-0.918 0.513-1.494 0.639-1.2 0.189-1.872 0.189h-2.052v4.968h-2.808v-12.744zm2.81 5.4h1.872c0.252 0 0.495-0.024 0.729-0.072s0.444-0.129 0.63-0.243 0.336-0.27 0.45-0.468 0.171-0.447 0.171-0.747c0-0.324-0.075-0.585-0.225-0.783s-0.342-0.351-0.576-0.459-0.495-0.177-0.783-0.207-0.564-0.045-0.828-0.045h-1.44v3.024z"/><path d="m215.34 107.61h2.322l5.544 12.744h-3.168l-1.098-2.7h-4.95l-1.062 2.7h-3.096l5.508-12.744zm1.08 3.71l-1.548 3.96h3.114l-1.566-3.96z"/><path d="m224.49 107.61h3.816l5.418 8.856h0.036v-8.856h2.808v12.744h-3.672l-5.562-9.072h-0.036v9.072h-2.808v-12.744z"/><rect height="12.744" width="2.808" y="107.61" x="239.12"/><path d="m244.59 107.61h8.658v2.592h-5.85v2.376h5.526v2.592h-5.526v2.592h6.174v2.592h-8.982v-12.744z"/><path d="m262.12 110.72c-0.228-0.288-0.537-0.501-0.927-0.639s-0.759-0.207-1.107-0.207c-0.204 0-0.414 0.024-0.63 0.072s-0.42 0.123-0.612 0.225-0.348 0.237-0.468 0.405-0.18 0.372-0.18 0.612c0 0.384 0.144 0.678 0.432 0.882s0.651 0.378 1.089 0.522 0.909 0.288 1.413 0.432 0.975 0.348 1.413 0.612 0.801 0.618 1.089 1.062 0.432 1.038 0.432 1.782c0 0.708-0.132 1.326-0.396 1.854s-0.621 0.966-1.071 1.314-0.972 0.606-1.566 0.774-1.221 0.252-1.881 0.252c-0.828 0-1.596-0.126-2.304-0.378s-1.368-0.66-1.98-1.224l1.998-2.196c0.288 0.384 0.651 0.681 1.089 0.891s0.891 0.315 1.359 0.315c0.228 0 0.459-0.027 0.693-0.081s0.444-0.135 0.63-0.243 0.336-0.246 0.45-0.414 0.171-0.366 0.171-0.594c0-0.384-0.147-0.687-0.441-0.909s-0.663-0.411-1.107-0.567-0.924-0.312-1.44-0.468-0.996-0.366-1.44-0.63-0.813-0.612-1.107-1.044-0.441-1.002-0.441-1.71c0-0.684 0.135-1.284 0.405-1.8s0.63-0.948 1.08-1.296 0.969-0.609 1.557-0.783 1.194-0.261 1.818-0.261c0.72 0 1.416 0.102 2.088 0.306s1.278 0.546 1.818 1.026l-1.926 2.106z"/><path d="m270.15 107.61h3.06l2.034 8.172h0.036l2.664-8.172h2.61l2.646 8.388h0.036l2.142-8.388h2.844l-3.726 12.744h-2.502l-2.808-8.82h-0.036l-2.808 8.82h-2.412l-3.78-12.744z"/><rect height="12.744" width="2.808" y="107.61" x="289.45"/><path d="m297.28 110.09h-3.636v-2.484h10.08v2.484h-3.636v10.26h-2.808v-10.26z"/><path d="m305.14 107.61h2.808v4.752h5.454v-4.752h2.808v12.744h-2.808v-5.508h-5.454v5.508h-2.808v-12.744z"/></g><path fill="#e18c32" d="m172.01 134.8h14.249l34.021 78.203h-19.441l-6.737-16.568h-30.376l-6.517 16.568h-18.998l33.799-78.203zm6.63 22.75l-9.499 24.3h19.108l-9.609-24.3z" fill-rule="nonzero"/><path stroke-width="2px" d="m138.21 213h18.998l6.518-16.568h30.375l6.738 16.568h19.439l-34.02-78.203h-14.248l-33.8 78.203zm50.04-31.15h-19.108l9.499-24.301 9.609 24.301z" stroke="#636363" fill="none"/><path fill="#f14948" d="m138.33 272.04l2.564 5.194 5.733 0.834-4.149 4.042 0.98 5.71-5.128-2.695-5.127 2.695 0.979-5.71-4.148-4.042 5.733-0.834 2.563-5.194z" fill-rule="nonzero"/><path fill="#f14948" d="m158.82 272.04l2.563 5.194 5.733 0.834-4.149 4.042 0.98 5.71-5.127-2.695-5.127 2.695 0.979-5.71-4.149-4.042 5.733-0.834 2.564-5.194z" fill-rule="nonzero"/><path fill="#f14948" d="m179.31 272.04l2.562 5.194 5.733 0.834-4.148 4.042 0.979 5.71-5.127-2.695-5.127 2.695 0.979-5.71-4.149-4.042 5.734-0.834 2.563-5.194z" fill-rule="nonzero"/><path fill="#f14948" d="m199.8 272.04l2.563 5.194 5.733 0.834-4.149 4.042 0.98 5.71-5.127-2.695-5.128 2.695 0.98-5.71-4.149-4.042 5.733-0.834 2.564-5.194z" fill-rule="nonzero"/><path fill="#f14948" d="m220.29 272.04l2.563 5.194 5.733 0.834-4.148 4.042 0.979 5.71-5.127-2.695-5.127 2.695 0.979-5.71-4.149-4.042 5.734-0.834 2.563-5.194z" fill-rule="nonzero"/></svg>
